/* XPM */
static char *result[] = {
/* columns rows colors chars-per-pixel */
"64 64 237 2 ",
"   c #523B30",
".  c #7D553A",
"X  c #77523A",
"o  c #6F4832",
"O  c #373C50",
"+  c #173D5B",
"@  c #423F46",
"#  c #2F455F",
"$  c #394258",
"%  c #38516C",
"&  c #2B4775",
"*  c #364C75",
"=  c #304D71",
"-  c #37627B",
";  c #1D5277",
":  c #574A54",
">  c #5D5454",
",  c #5B565A",
"<  c #4A474F",
"1  c #675247",
"2  c #785B48",
"3  c #684A54",
"4  c #655757",
"5  c #765B54",
"6  c #6B4E4A",
"7  c #776359",
"8  c #6F635A",
"9  c #474A67",
"0  c #4A5564",
"q  c #555568",
"w  c #48577A",
"e  c #6F5D64",
"r  c #586368",
"t  c #5A667A",
"y  c #4C6977",
"u  c #686868",
"i  c #776A64",
"p  c #626874",
"a  c #737675",
"s  c #757771",
"d  c #885A3C",
"f  c #895E41",
"g  c #855C5B",
"h  c #896548",
"j  c #976847",
"k  c #876759",
"l  c #95665F",
"z  c #9E7654",
"x  c #8B7A5C",
"c  c #A6764A",
"v  c #AC7C55",
"b  c #A37958",
"n  c #856264",
"m  c #8A7665",
"M  c #937B67",
"N  c #877D74",
"B  c #926F73",
"V  c #A57369",
"C  c #B17E71",
"Z  c #A97A71",
"A  c #A9845D",
"S  c #B4855C",
"D  c #BB8A5E",
"F  c #BF985B",
"G  c #9A826D",
"H  c #97816F",
"J  c #998676",
"K  c #8A8277",
"L  c #A78968",
"P  c #BA8C63",
"I  c #BB9365",
"U  c #A48B74",
"Y  c #B98C79",
"T  c #AA957A",
"R  c #B79876",
"E  c #CCA95E",
"W  c #C69A6C",
"Q  c #C0976E",
"!  c #CAA57A",
"~  c #DAB778",
"^  c #D5B666",
"/  c #E8CE7C",
"(  c #1A5892",
")  c #14578A",
"_  c #275799",
"`  c #345995",
"'  c #2C5189",
"]  c #17699A",
"[  c #1A6085",
"{  c #29688A",
"}  c #3B629A",
"|  c #2E7096",
" . c #156DA1",
".. c #1B72A5",
"X. c #1A77AB",
"o. c #1E6CBC",
"O. c #1C7EB1",
"+. c #1972B8",
"@. c #3B66A7",
"#. c #366BB3",
"$. c #2A76BD",
"%. c #2D75AA",
"&. c #255CA9",
"*. c #4A5E88",
"=. c #586787",
"-. c #46649A",
";. c #467998",
":. c #52718C",
">. c #747A80",
",. c #697586",
"<. c #446BA5",
"1. c #4574AA",
"2. c #4774B8",
"3. c #5A7DB5",
"4. c #3A79C9",
"5. c #297ACA",
"6. c #4B7DC5",
"7. c #557FC2",
"8. c #1E84B7",
"9. c #248ABC",
"0. c #2484B5",
"q. c #378EB7",
"w. c #3994BF",
"e. c #538598",
"r. c #658996",
"t. c #73838D",
"y. c #558CB5",
"u. c #718DAF",
"i. c #5AA1BD",
"p. c #6CA6BB",
"a. c #258EC0",
"s. c #3988C7",
"d. c #2C93C3",
"f. c #2B96CA",
"g. c #3394C3",
"h. c #349BCA",
"j. c #3C9BC5",
"k. c #3A8DD8",
"l. c #3A97D9",
"z. c #2C91D5",
"x. c #3CA1CD",
"c. c #36A0CE",
"v. c #3BA8D2",
"b. c #3397E3",
"n. c #36A8E8",
"m. c #33B1EC",
"M. c #4785CA",
"N. c #5986C8",
"B. c #4998DB",
"V. c #4E91D1",
"C. c #638ECB",
"Z. c #678CC3",
"A. c #6C94CC",
"S. c #6994C9",
"D. c #7799CA",
"F. c #6998D2",
"G. c #779DD3",
"H. c #48A4CB",
"J. c #44A9D3",
"K. c #4BACD4",
"L. c #45A6D4",
"P. c #57ACD4",
"I. c #4EB1D7",
"U. c #55B3DA",
"Y. c #5DB9DC",
"T. c #59B4D8",
"R. c #5CAACE",
"E. c #67BADA",
"W. c #73ADD1",
"Q. c #4D9CE2",
"!. c #48ACE7",
"~. c #58A8E6",
"^. c #4BB2E9",
"/. c #4EB7ED",
"(. c #6BA9E6",
"). c #77A9E3",
"_. c #66BCE7",
"`. c #6DBDF3",
"'. c #35D3F5",
"]. c #2FE0F8",
"[. c #76C2DD",
"{. c #69C0DF",
"}. c #52CEED",
"|. c #68C6E7",
" X c #77C6E1",
".X c #66C6F4",
"XX c #75CCF1",
"oX c #6BD2F5",
"OX c #77D6F6",
"+X c #77E4F5",
"@X c #878886",
"#X c #878A95",
"$X c #93908C",
"%X c #AA9A89",
"&X c #B39D84",
"*X c #B79F88",
"=X c #AB9891",
"-X c #B9A28A",
";X c #B7A693",
":X c #8E9BAF",
">X c #92A3B5",
",X c #AFB3B4",
"<X c #C9AB87",
"1X c #C5AC94",
"2X c #CAB498",
"3X c #D1B590",
"4X c #C3B4A1",
"5X c #D1BBA0",
"6X c #D1AA8B",
"7X c #BFC7B3",
"8X c #E7C796",
"9X c #EDD991",
"0X c #DBC6A9",
"qX c #CEC8AB",
"wX c #F2D7A5",
"eX c #89A8D6",
"rX c #99B4DC",
"tX c #95B0CD",
"yX c #A8BCD9",
"uX c #AFBBC5",
"iX c #9ABAE3",
"pX c #84B0E4",
"aX c #ACC2DE",
"sX c #BBC8D2",
"dX c #88CAE6",
"fX c #88D5F5",
"gX c #92D0EE",
"hX c #A9C4E4",
"jX c #B6C9E2",
"kX c #A5D9E9",
"lX c #AADAF3",
"zX c #88E2F8",
"xX c #97E5F8",
"cX c #ACE5F4",
"vX c #CDE9F2",
"bX c #D3DDE7",
"nX c None",
/* pixels */
"nXnXnXnXnXnXnXnXnXnXnXnXnXnXnXnXnXnXnXnXnXnXnXnXnXnXnXnXnXnXnXnXnXnXnXnXnXnXnXnXnXnXnXnXnXnXnXnXnXnXnXnXnXnXnXnXnXnXnXnXnXnXnXnX",
"nXnXnXnXnXnXnXnXnXnXnXnXnXnXnXnXnXnXnXnXnXnXnXnXnXnXnXnXnXnXnXnXnXnXnXnXnXnXnXnXnXnXnXnXnXnXnXnXnXnXnXnXnXnXnXnXnXnXnXnXnXnXnXnX",
"nXnXnXnXnXnXnXnXnXnXnXnXnXnXnXnXnXnXnXnXnXnXnXnXnXnXnXnXnXnXnXnXnXnXnXnXnXnXnXnXnXnXnXnXnXnXnXnXnXnXnXnXnXnXnXnXnXnXnXnXnXnXnXnX",
"nXnXnXnXnXnXnXnXnXnXnXnXnXnXnXnXnXnXnXnXnXnXnXnXnXnXnXnXnXnXnXnXnXnXnXnXnXnXnXnXnXnXnXnXnXnXnXnXnXnXnXnXnXnXnXnXnXnXnXnXnXnXnXnX",
"nXnXnXnXnXnXnXnXnXnXnXnXnXnXnXnXnXnXnXnXnXnXnXnXnXnXnXnXnXnXnXnXnXnXnXnXnXnXnXnXnXnXnXnXnXnXnXnXnXnXnXnXnXnXnXnXnXnXnXnXnXnXnXnX",
"nXnXnXnXnXnXnXnXnXnXnXnXnXnXnXnXnXnXnXnXnXnXnXnXnXnXnXnXnX5X6X*X=XB B nXnXnXnXnXnXnXnXnXnXnXnXnXnXnXnXnXnXnXnXnXnXnXnXnXnXnXnXnX",
"nXnXnXnXnXnXnXnXnXnXnXnXnXnXnXnXnXnXnXnXnXnXnXnXnXnXnXnXZ &XC &XC g 3 w nXnXnXnXnXnXnXnXnXnXnXnXnXnXnXnXnXnXnXnXnXnXnXnXnXnXnXnX",
"nXnXnXnXnXnXnXnXnXnXnXnXnXnXnXnXnXnXnXnXnXnXnXnXnXnXnXnXB Z C C V g 3 q nXnXnXnXnXnXnXnXnXnXnXnXnXnXnXnXnXnXnXnXnXnXnXnXnXnXnXnX",
"nXnXnXnXnXnXnXnXnXnXnXnXnXnXnXnXnXnXnXnXnXnXnXnXnXnXnXnXe V V V l 3 3 9 nXnXnXnXnXnXnXnXnXnXnXnXnXnXnXnXnXnXnXnXnXnXnXnXnXnXnXnX",
"nXnXnXnXnXnXnXnXnXnXnXnXnXnXnXnXnXnXnXnXnXnXnXnXnXnXnXnXe n l l g 3 @ 9 nXnXnXnXnXnXnXnXnXnXnXnXnXnXnXnXnXnXnXnXnXnXnXnXnXnXnXnX",
"nXnXnXnXnXnXnXnXnXnXnXnXnXnXnXnXnXnXnXnXnXnXnXnXnXnXnXnXn n k k g 3 3 9 nXnXnXnXnXnXnXnXnXnXnXnXnXnXnXnXnXnXnXnXnXnXnXnXnXnXnXnX",
"nXnXnXnXnXnXnXnXnXnXnXnXnXnXnXnXnXnXnXnXnXnXnXnXnXnXnXnX4X;X;X-X%X=XJ #Xu.nXnXnXnXnXnXnXnXnXnXnXnXnXnXnXnXnXnXnXnXnXnXnXnXnXnXnX",
"nXnXnXnXnXnXnXnXnXnXnXnXnXnXnXnXnXnXnXnXnXnXnXnXnXnXnX:X0X0X5X1X&XY T K ;.nXnXnXnXnXnXnXnXnXnXnXnXnXnXnXnXnXnXnXnXnXnXnXnXnXnXnX",
"nXnXnXnXnXnXnXnXnXnXnXnXnXnXnXnXnXnXnXnXnXnXnXnXnXnXnX#X1X-XR T U M K a -.nXnXnXnXnXnXnXnXnXnXnXnXnXnXnXnXnXnXnXnXnXnXnXnXnXnXnX",
"nXnXnXnXnXnXnXnXnXnXnXnXnXnXnXnXnXnXnXnXnXnXnXnXnXnXnX4 8 4 4 3 3 : , 0 nXnXnXnXnXnXnXnXnXnXnXnXnXnXnXnXnXnXnXnXnXnXnXnXnXnXnXnX",
"nXnXnXnXnXnXnXnXnXnXnXnXnXnXnXnXnXnXnXnXnXnXnXnXnXnXnXnX|.L.H.H.j.g.v.}.nXnXnXnXnXnXnXnXnXnXnXnXnXnXnXnXnXnXnXnXnXnXnXnXnXnXnXnX",
"nXnXnXnXnXnXnXnXnXnXnXnXnXnXnXnXnXnXnXnXnXnXnXnXnXnXnXnX].}.OX.Xm.m.'.].nXnXnXnXnXnXnXnXnXnXnXnXnXnXnXnXnXnXnXnXnXnXnXnXnXnXnXnX",
"nXnXnXnXnXnXnXnXnXnXnXnXnXnXnXnXnXnXnXnXnXnXnXnXnXnXnXnXnXcXgXdX_.!.|.+XnXnXnXnXnXnXnXnXnXnXnXnXnXnXnXnXnXnXnXnXnXnXnXnXnXnXnXnX",
"nXnXnXnXnXnXnXnXnXnXnXnXnXnXnXnXnXnXnXnXnXnXnXnXnXnXnXnX+XxXfXXX.X^.OX+XnXnXnXnXnXnXnXnXnXnXnXnXnXnXnXnXnXnXnXnXnXnXnXnXnXnXnXnX",
"nXnXnXnXnXnXnXnXnXnXnXnXnXnXnXnXnXnXnXnXnXnXnXnX2X1XnXnX}.|.~.K.h.l.P.}.nXnXnXt.$XnXnXnXnXnXnXnXnXnXnXnXnXnXnXnXnXnXnXnXnXnXnXnX",
"nXnXnXnXnXnXnXnXnXnXnXnXnXnXnXnXnXnXnXnXnXnX-Xm m m M t.T.P.R.(.K.H.s.f.nX; % u i K nXnXnXnXnXnXnXnXnXnXnXnXnXnXnXnXnXnXnXnXnXnX",
"nXnXnXnXnXnXnXnXnXnXnXnXnXnXnXnXnXnXnXnXnX;X8 nXnXnX1 u B.G.eXeXG.N.#.+.] + nXnXnXnXK nXnXnXnXnXnXnXnXnXnXnXnXnXnXnXnXnXnXnXnXnX",
"nXnXnXnXnXnXnXnXnXnXnXnXnXnXnXnXnXnXnXnXnXN nXnXnXnXnXr L.F.eXD.C.3.@.+.[ nXnXnXnXnXnX=XnXnXnXnXnXnXnXnXnXnXnXnXnXnXnXnXnXnXnXnX",
"nXnXnXnXnXnXnXnXnXnXnXnXnXnXnXnXnXnXnXnX;XnXnXnXnXnXnXnX~.eXeXeXZ.y.2.+.X.nXnXnXnXnXnX=XnXnXnXnXnXnXnXnXnXnXnXnXnXnXnXnXnXnXnXnX",
"nXnXnXnXnXnXnXnXnXnXnXnXnXnXnXnXnXnXnXnX;XnXnXnXnXnXnXnXfXhXyXeXD.Z.2.$.b.nXnXnXnXnXnX;XnXnXnXnXnXnXnXnXnXnXnXnXnXnXnXnXnXnXnXnX",
"nXnXnXnXnXnXnXnXnXnXnXnXnXnXnXnXnXnXnXnX%XnXnXnXnXnXnXcXlXjXjXyXeXA.Z.M.n.nXnXnXnXnXnX;X$XnXnXnXnXnXnXnXnXnXnXnXnXnXnXnXnXnXnXnX",
"nXnXnXnXnXnXnXnXnXnXnXnXnXnXnXnXnXnXnXnX%XnXnXnXnXnXxXxXkXjXjXsXtXF.C.N.Q.m.nXnXnXnXnX;XnXnXnXnXnXnXnXnXnXnXnXnXnXnXnXnXnXnXnXnX",
"nXnXnXnXnXnXnXnXnXnXnXnXnXnXnXnXnXnXnXnX-XnXnXnXnXzXgXgXhXhXaX0X<X>XA.C.C.Q.m.nXnXnXnXK nXnXnXnXnXnXnXnXnXnXnXnXnXnXnXnXnXnXnXnX",
"nXnXnXnXnXnXnXnXnXnXnXnXnXnXnXnXnXnXnXnXU G nX[.OXOXiXiXhXhXsX9X/ :XF.A.C.C.B.m.R.nXH u nXnXnXnXnXnXnXnXnXnXnXnXnXnXnXnXnXnXnXnX",
"nXnXnXnXnXnXnXnXnXnXnXnXnXnXnXnXnXnXnXnXnXm r..X`.pXiXiXhXhX,X9X^ ,.C.A.C.N.M.B.!.| > nXnXnXnXnXnXnXnXnXnXnXnXnXnXnXnXnXnXnXnXnX",
"nXnXnXnXnXnXnXnXnXnXnXnXnXnXnXnXnXnXnXnXnXi.|.`.pXpXrXyXyXjX4XF c L :XF.C.N.6.6.B.n.| nXnXnXnXnXnXnXnXnXnXnXnXnXnXnXnXnXnXnXnXnX",
"nXnXnXnXnXnXnXnXnXnXnXnXnXnXnXnXnXnXnXnXy.}..X(.).eXrXyXsX0X6XW S W -X:XA.N.7.6.4.b.b.;.nXnXnXnXnXnXnXnXnXnXnXnXnXnXnXnXnXnXnXnX",
"nXnXnXnXnXnXnXnXnXnXnXnXnXnXnXnXnXnXnXnX:X(.R.>X>XtXsXqX8X3X^ u :.W ! Q %Xu.3.r.:.#.y.r.nXnXnXnXnXnXnXnXnXnXnXnXnXnXnXnXnXnXnXnX",
"nXnXnXnXnXnXnXnXnXnXnXnXnXnXnXnXnXnXnXnXK U %X! Q 3X8X8X8X~ a q.j.r.Q I I A M &XL s p r nXnXnXnXnXnXnXnXnXnXnXnXnXnXnXnXnXnXnXnX",
"nXnXnXnXnXnXnXnXnXnXnXnXnXnXnXnXnXnXnX.XW.K G j v 8XwX9X! t.y.R.H.i.r.R Q S z h o 1 9 #.z.nXnXnXnXnXnXnXnXnXnXnXnXnXnXnXnXnXnXnX",
"nXnXnXnXnXnXnXnXnXnXnXnXnXnXnXnXnXnXnXoX(.F.#XA 6XwX8XT r.R.[.E.R.H.q.e.U Q b f o q o.5.b.nXnXnXnXnXnXnXnXnXnXnXnXnXnXnXnXnXnXnX",
"nXnXnXnXnXnXnXnXnXnXnXnXnXnXnXnXnXnXzX`.).eX=X! 8X<X@Xp.vXkXkX[.E.T.H.d.| N S j . t 2.6.B./.nXnXnXnXnXnXnXnXnXnXnXnXnXnXnXnXnXnX",
"nXnXnXnXnXnXnXnXnXnXnXnXnXnXnXnXnXnXOX_.).tX%X! Q t.[.vXvXvXkXdXE.Y.I.H.g.%.s z f p 2.6.k.!.nXnXnXnXnXnXnXnXnXnXnXnXnXnXnXnXnXnX",
"nXnXnXnXnXnXnXnXnXnXnXnXnXnXnXnXnXxX`.(.iXrXT F @XW.kXkXvXcXkX X{.Y.I.J.h.0.| m f u 6.6.M.b..XnXnXnXnXnXnXnXnXnXnXnXnXnXnXnXnXnX",
"nXnXnXnXnXnXnXnXnXnXnXnXnXnXnXnXnXfX~.).tXsXT A r.E.kXkXkXgX X{.E.T.K.J.h.9...a f i 2.6.6.4.^.nXnXnXnXnXnXnXnXnXnXnXnXnXnXnXnXnX",
"nXnXnXnXnXnXnXnXnXnXnXnXnXnXnXnXxX`.F.).eXyXI z e.Y. XdXdX X{.{.Y.I.J.v.f.9...p h x @.2.2.#.k..XnXnXnXnXnXnXnXnXnXnXnXnXnXnXnXnX",
"nXnXnXnXnXnXnXnXnXnXnXnXnXnXnXnXOX~.C.G.eX4X^ b e.T.[.[. X{.{.Y.I.K.J.h.d.0...t A ^ :.2.1.#.5.^.nXnXnXnXnXnXnXnXnXnXnXnXnXnXnXnX",
"nXnXnXnXnXnXnXnXnXnXnXnXnXnXnXnXXXQ.N.D.eX4XE z e.I.{.{.{.{.Y.Y.I.J.c.f.9.8.X.p A ^ p #.1.@.o.!.nXnXnXnXnXnXnXnXnXnXnXnXnXnXnXnX",
"nXnXnXnXnXnXnXnXnXnXnXnXnXnXnXnXoXQ.C.A.G.:XG z y H.Y.Y.Y.Y.U.I.J.c.h.d.9.8.] u . 1 ` &.@.@.o.!.nXnXnXnXnXnXnXnXnXnXnXnXnXnXnXnX",
"nXnXnXnXnXnXnXnXnXnXnXnXnXnXnXnXoXQ.N.A.D.:XR D s j.I.U.U.T.I.J.x.h.f.9.8.O.] u . : ` @.<.} o.!.nXnXnXnXnXnXnXnXnXnXnXnXnXnXnXnX",
"nXnXnXnXnXnXnXnXnXnXnXnXnXnXnXnXOXQ.N.A.D.u.R D s 0.H.H.K.H.J.x.h.f.a.8.O.X.[ i . : } <.<.` $.^.nXnXnXnXnXnXnXnXnXnXnXnXnXnXnXnX",
"nXnXnXnXnXnXnXnXnXnXnXnXnXnXnXnXnX!.6.C.D.Z.U S m %.g.j.x.x.x.h.d.9.8.O.X.] [ k . : } -.` _ 5.nXnXnXnXnXnXnXnXnXnXnXnXnXnXnXnXnX",
"nXnXnXnXnXnXnXnXnXnXnXnXnXnXnXnXnX^.4.7.u.u.M S A { 0.w.9.w.d.9.9.8.8.X.] ) [ k X 9 -.-.` &.z.nXnXnXnXnXnXnXnXnXnXnXnXnXnXnXnXnX",
"nXnXnXnXnXnXnXnXnXnXnXnXnXnXnXnXnXnXk.6.3.u.N v v w ] X.O.O.0.O.X. .] ] ) ; = h o 9 -.` _ $.nXnXnXnXnXnXnXnXnXnXnXnXnXnXnXnXnXnX",
"nXnXnXnXnXnXnXnXnXnXnXnXnXnXnXnXnXnXnXs.6.3.>.P P m y :.:.| | { { { - - - r 7 c 2 % ` ` $.nXnXnXnXnXnXnXnXnXnXnXnXnXnXnXnXnXnXnX",
"nXnXnXnXnXnXnXnXnXnXnXnXnXnXnXnXnXnXnXnX4.2.=.b f c P I Q R R R U b c z j j d d o & _ $.nXnXnXnXnXnXnXnXnXnXnXnXnXnXnXnXnXnXnXnX",
"nXnXnXnXnXnXnXnXnXnXnXnXnXnXnXnXnXnXnXnXnXM.@.0 X j j c v v v I A j f d d X     O ( $.nXnXnXnXnXnXnXnXnXnXnXnXnXnXnXnXnXnXnXnXnX",
"nXnXnXnXnXnXnXnXnXnXnXnXnXnXnXnXnXnXnXnXnXnXs.` w q e e 7 k h 2 o 6 6 1 : < $ & ( 5.nXnXnXnXnXnXnXnXnXnXnXnXnXnXnXnXnXnXnXnXnXnX",
"nXnXnXnXnXnXnXnXnXnXnXnXnXnXnXnXnXnXnXnXnXnXR.<.-.-.=.,.,.=.=.t y w w w * = & ' _ $.nXnXnXnXnXnXnXnXnXnXnXnXnXnXnXnXnXnXnXnXnXnX",
"nXnXnXnXnXnXnXnXnXnXnXnXnXnXnXnXnXnXnXnXnXnXrX>.q w =.*.*.=.*.*.w w * * = = # # % 1.v.nXnXnXnXnXnXnXnXnXnXnXnXnXnXnXnXnXnXnXnXnX",
"nXnXnXnXnXnXnXnXnXnXnXnXnXnXnXnXnXnXnXnXnXnX>X,X%XM n i i 4 4 4 4 , , > , 4 4 u t *.;.nXnXnXnXnXnXnXnXnXnXnXnXnXnXnXnXnXnXnXnXnX",
"nXnXnXnXnXnXnXnXnXnXnXnXnXnXnXnXnXnXnXnXnXnXt.$X4X0X0X0X0X2X1X<X-XT T G G m i q 0 % nXnXnXnXnXnXnXnXnXnXnXnXnXnXnXnXnXnXnXnXnXnX",
"nXnXnXnXnXnXnXnXnXnXnXnXnXnXnXnXnXnXnXnXnXnXnXp i G -X;X1X2X5X1X*XT H k 8 4 < $ # nXnXnXnXnXnXnXnXnXnXnXnXnXnXnXnXnXnXnXnXnXnXnX",
"nXnXnXnXnXnXnXnXnXnXnXnXnXnXnXnXnXnXnXnXnXnXnXnXnXnX8 2 5 7 7 7 4 1 : < < O nXnXnXnXnXnXnXnXnXnXnXnXnXnXnXnXnXnXnXnXnXnXnXnXnXnX",
"nXnXnXnXnXnXnXnXnXnXnXnXnXnXnXnXnXnXnXnXnXnXnXnXnXnXnXnXnXnXnXnXnXnXnXnXnXnXnXnXnXnXnXnXnXnXnXnXnXnXnXnXnXnXnXnXnXnXnXnXnXnXnXnX",
"nXnXnXnXnXnXnXnXnXnXnXnXnXnXnXnXnXnXnXnXnXnXnXnXnXnXnXnXnXnXnXnXnXnXnXnXnXnXnXnXnXnXnXnXnXnXnXnXnXnXnXnXnXnXnXnXnXnXnXnXnXnXnXnX",
"nXnXnXnXnXnXnXnXnXnXnXnXnXnXnXnXnXnXnXnXnXnXnXnXnXnXnXnXnXnXnXnXnXnXnXnXnXnXnXnXnXnXnXnXnXnXnXnXnXnXnXnXnXnXnXnXnXnXnXnXnXnXnXnX",
"nXnXnXnXnXnXnXnXnXnXnXnXnXnXnXnXnXnXnXnXnXnXnXnXnXnXnXnXnXnXnXnXnXnXnXnXnXnXnXnXnXnXnXnXnXnXnXnXnXnXnXnXnXnXnXnXnXnXnXnXnXnXnXnX",
"nXnXnXnXnXnXnXnXnXnXnXnXnXnXnXnXnXnXnXnXnXnXnXnXnXnXnXnXnXnXnXnXnXnXnXnXnXnXnXnXnXnXnXnXnXnXnXnXnXnXnXnXnXnXnXnXnXnXnXnXnXnXnXnX"
};
