/* XPM */
static char *result[] = {
/* columns rows colors chars-per-pixel */
"64 64 216 2 ",
"   c #010002",
".  c #040204",
"X  c #060406",
"o  c #00030C",
"O  c #08080D",
"+  c #0F0E0D",
"@  c #180D09",
"#  c #010917",
"$  c #00071D",
"%  c #020F1E",
"&  c #0B091B",
"*  c #0E1216",
"=  c #0E131B",
"-  c #151617",
";  c #181312",
":  c #2A0C03",
">  c #350E08",
",  c #2B120B",
"<  c #35130D",
"1  c #251A19",
"2  c #32231E",
"3  c #000B26",
"4  c #000F2C",
"5  c #031827",
"6  c #1F1E21",
"7  c #001235",
"8  c #011634",
"9  c #0B1F3A",
"0  c #052237",
"q  c #152030",
"w  c #212222",
"e  c #292928",
"r  c #2C3137",
"t  c #323030",
"y  c #353535",
"u  c #3E3F3F",
"i  c #4D1306",
"p  c #4C190D",
"a  c #431D15",
"s  c #601D06",
"d  c #402D02",
"f  c #472118",
"g  c #4F2B19",
"h  c #6E240F",
"j  c #652817",
"k  c #6A2D1A",
"l  c #7C2B19",
"z  c #462820",
"x  c #4B2B25",
"c  c #5D2F21",
"v  c #40342C",
"b  c #4B3932",
"n  c #683323",
"m  c #7E3420",
"M  c #753928",
"N  c #564007",
"B  c #4F433C",
"V  c #64483E",
"C  c #665633",
"Z  c #766137",
"A  c #001C43",
"S  c #001D4C",
"D  c #062547",
"F  c #0B2A4E",
"G  c #182F4D",
"H  c #002051",
"J  c #012451",
"K  c #002557",
"L  c #00295D",
"P  c #002A5E",
"I  c #123458",
"U  c #2A3A4F",
"Y  c #313848",
"T  c #002B67",
"R  c #002D6B",
"E  c #002F6D",
"W  c #00306B",
"Q  c #04326A",
"!  c #00326D",
"~  c #123F6C",
"^  c #003272",
"/  c #013470",
"(  c #00377B",
")  c #0D3A79",
"_  c #0D4348",
"`  c #154D5E",
"'  c #115457",
"]  c #384340",
"[  c #204559",
"{  c #304055",
"}  c #275E5F",
"|  c #1E4C7E",
" . c #176569",
".. c #167475",
"X. c #464546",
"o. c #4E4B49",
"O. c #50504F",
"+. c #424B52",
"@. c #555454",
"#. c #5A5857",
"$. c #744F45",
"%. c #64554E",
"&. c #75584E",
"*. c #605E5E",
"=. c #705F56",
"-. c #6B6050",
";. c #6E635F",
":. c #7D635A",
">. c #7D6E5D",
",. c #455973",
"<. c #68686B",
"1. c #736E6A",
"2. c #797675",
"3. c #7F7D7A",
"4. c #8C3925",
"5. c #8E4406",
"6. c #8B4D11",
"7. c #9D5010",
"8. c #87640B",
"9. c #A97A01",
"0. c #AF7D00",
"q. c #A5641E",
"w. c #97452A",
"e. c #814431",
"r. c #8C4530",
"t. c #984931",
"y. c #A34B31",
"u. c #A74D35",
"i. c #A84E33",
"p. c #AA4E34",
"a. c #A94F36",
"s. c #AF5236",
"d. c #AF553D",
"f. c #B25538",
"g. c #B8583E",
"h. c #CD7E0F",
"j. c #85574C",
"k. c #805E53",
"l. c #AC5A43",
"z. c #9F684A",
"x. c #8F675D",
"c. c #BD654E",
"v. c #A7735B",
"b. c #807462",
"n. c #817563",
"m. c #8C7A6B",
"M. c #A97C6D",
"N. c #C25F42",
"B. c #C66245",
"V. c #D2674B",
"C. c #DB6E50",
"Z. c #E77B5C",
"A. c #C48D00",
"S. c #D48C15",
"D. c #958663",
"F. c #8C8072",
"G. c #948872",
"H. c #B28277",
"J. c #BA867A",
"K. c #EF957A",
"L. c #013C80",
"P. c #01408A",
"I. c #00438F",
"U. c #0A4489",
"Y. c #004694",
"T. c #014999",
"R. c #014C9E",
"E. c #11559B",
"W. c #2A5480",
"Q. c #275E98",
"!. c #2D7F89",
"~. c #014FA3",
"^. c #0151A7",
"/. c #0153AB",
"(. c #0253AC",
"). c #0155AF",
"_. c #0957AC",
"`. c #115BAC",
"'. c #0256B1",
"]. c #0157B2",
"[. c #0256B2",
"{. c #0258B4",
"}. c #2B6BB2",
"|. c #617389",
" X c #0762C0",
".X c #1869C0",
"XX c #1A76D8",
"oX c #357BC9",
"OX c #2C7FDA",
"+X c #1A8585",
"@X c #3C8384",
"#X c #239594",
"$X c #369FA0",
"%X c #27ABAB",
"&X c #2FB2B3",
"*X c #31BAB8",
"=X c #4F9B9D",
"-X c #728296",
";X c #41ABAC",
":X c #53ADAD",
">X c #5FB6B6",
",X c #3D89DF",
"<X c #2183EB",
"1X c #3F90EB",
"2X c #3AC9CB",
"3X c #3EE0E0",
"4X c #4CCBC9",
"5X c #40EDED",
"6X c #59EDEC",
"7X c #50F5F6",
"8X c #5AFBFB",
"9X c #7AECEE",
"0X c #60FBFB",
"qX c #64FFFF",
"wX c #65FFFF",
"eX c None",
/* pixels */
"eXeXeXeXeXeXeXeXeXeXeXeXeXeXeXeXeXeXeXeXeXeXeXeXeXeXeXeXeXeXeXeXeXeXeXeXeXeXeXeXeXeXeXeXeXeXeXeXeXeXeXeXeXeXeXeXeXeXeXeXeXeXeXeX",
"eXeXeXeXeXeXeXeXeXeXeXeXeXeXeXeXeXeXeXeXeXeXeXeXeXeXeXeXeXeXeXeXeXeXeXeXeXeXeXeXeXeXeXeXeXeXeXeXeXeXeXeXeXeXeXeXeXeXeXeXeXeXeXeX",
"eXeXeXeXeXeXeXeXeXeXeXeXeXeXeXeXeXeXeXeXeXeXeXeXeXeXeXeXeXeXeX2.eXeXeXeXeXeXeXeXeXeXeXeXeXeXeXeXeXeXeXeXeXeXeXeXeXeXeXeXeXeXeXeX",
"eXeXeXeXeXeXeXeXeXeXeXeXeXeXeXeXeXeXeXeXeXeXeXeXeXeXeXeXeXeXg n b eXeXeXeXeXeXeXeXeXeXeXeXeXeXeXeXeXeXeXeXeXeXeXeXeXeXeXeXeXeXeX",
"eXeXeXeXeXeXeXeXeXeXeXeXeXeXeXeXeXeXeXeXeXeXeX2.X.3.2.B eXB d.Z.t.V eX1.v b b @.eXeXeXeXeXeXeXeXeXeXeXeXeXeXeXeXeXeXeXeXeXeXeXeX",
"eXeXeXeXeXeXeXeXeXeXeXeXeXeXeXeXeXeXeXy t #.x g a c d.e.; n C.V.C.r.v 2 a.g.d.r.g B eX*.1 ;.eXeXeXeXeXeXeXeXeXeXeXeXeXeXeXeXeXeX",
"eXeXeXeXeXeXeXeXeXeXeXeXeXeXeXeXeXeX1.g < n N.C.C.C.Z.B.a g.B.a.N.C.M M C.g.g.B.B.t.f ; r.c 3.eXeXeXeXeXeXeXeXeXeXeXeXeXeXeXeXeX",
"eXeXeXeXeXeXeXeXeXeXeXeXeXeXeXeXeXeXc B.B.V.N.B.N.g.B.C.l.B.a.u.a.N.C.C.V.p.i.a.s.N.f.n d.t.z eXeXeXeXeXeXeXeXeXeXeXeXeXeXeXeXeX",
"eXeXeXeXeXeXeXeXeXeXeXeXeXeXeXeXeXo.t.C.V.f.u.a.g.g.s.V.C.f.u.p.u.u.g.C.N.u.p.a.p.a.f.V.C.a.a eXeXeXeXeXeXeXeXeXeXeXeXeXeXeXeXeX",
"eXeXeXeXeXeXeXeXeXeXeXeXeXeXeXeXeXc f.f.s.p.u.d.V.N.u.f.s.u.u.u.u.p.p.g.s.p.a.g.N.a.i.f.N.s.j 1.eXeXeXeXeXeXeXeXeXeXeXeXeXeXeXeX",
"eXeXeXeXeXeXeXeXeXeXeXeXeXeXeXeX3.k a.u.p.p.i.s.f.p.u.u.i.p.u.p.p.p.u.u.i.i.u.d.V.N.p.u.u.p.k 1.eXeXeXeXeXeXeXeXeXeXeXeXeXeXeXeX",
"eXeXeXeXeXeXeXeXeXeXeXeXeXeXeXeXb m s.f.p.i.p.p.p.u.p.p.a.p.p.p.p.p.u.p.p.p.u.u.s.g.f.a.u.a.k 1.eXeXeXeXeXeXeXeXeXeXeXeXeXeXeXeX",
"eXeXeXeXeXeXeXeXeXeXeXeXeXeXeXeX2 y.V.V.s.u.a.a.a.u.i.i.y.y.y.y.y.y.y.y.i.u.a.a.u.p.a.a.p.a.j 1.eXeXeXeXeXeXeXeXeXeXeXeXeXeXeXeX",
"eXeXeXeXeXeXeXeXeXeXeXeXeXeXeXeXf f.V.d.u.a.u.y.w.4.l h h h h h h h h h l m 4.w.u.a.p.p.p.p.k ;.eXeXeXeXeXeXeXeXeXeXeXeXeXeXeXeX",
"eXeXeXeXeXeXeXeXeXeXeXeXeXeXeXeXg y.p.u.u.t.m f > > < < < < , > > < < < < < > p k w.y.p.p.i.m ;.eXeXeXeXeXeXeXeXeXeXeXeXeXeXeXeX",
"eXeXeXeXeXeXeXeXeXeXeXeXeXeXeXeXg y.p.y.4.h > z j.M.J.J.J.J.J.J.J.J.J.J.J.H.x.V , i l w.u.p.m ;.eXeXeXeXeXeXeXeXeXeXeXeXeXeXeXeX",
"eXeXeXeXeXeXeXeXeXeXeXeXeXeXeXeXg y.y.m s : v eXeXeXeXeXeXeXeXeXeXeXeXeXeXeXeXeXx.: i h w.p.m ;.eXeXeXeXeXeXeXeXeXeXeXeXeXeXeXeX",
"eXeXeXeXeXeXeXeXeXeXeXeXeXeXeXeXa m p , ; + B :.=.=.=.=.%.%.%.%.%.%.%.=.=.=.=.=.=.w ; , < j j *.eXeXeXeXeXeXeXeXeXeXeXeXeXeXeXeX",
"eXeXeXeXeXeXeXeXeXeXeXeXeXeXeXeX, :   [ =X:X:X:X:X>X>X>X>X>X>X>X>X>X>X>X>X>X>X:X:X:X=X@X% . : *.eXeXeXeXeXeXeXeXeXeXeXeXeXeXeXeX",
"eXeXeXeXeXeXeXeXeXeXeXeXeXeXeXeX@ . o =XeXeXeXeXeXeXeXeXeXeXeXeXeXeXeXeXeXeXeXeXeXeXeXeX_ o   *.eXeXeXeXeXeXeXeXeXeXeXeXeXeXeXeX",
"eXeXeXeXeXeXeXeXeXeXeXeXeXeXeXeX: . # ;XeXeXeXeXeXeXeXeXeXeXeXeXeXeXeXeXeXeXeXeXeXeXeX9X' o   %.eXeXeXeXeXeXeXeXeXeXeXeXeXeXeXeX",
"eXeXeXeXeXeXeXeXeXeXeXeXeXeXeXz.5.< % &X0XqXqXwXwXwXwXwXwXwXwXwXwXwXwXwXwXwXwXwXwXqXwX7X .& s q.eXeXeXeXeXeXeXeXeXeXeXeXeXeXeXeX",
"eXeXeXeXeXeXeXeXeXeXeXeXeXeXeXq.S.f 5 *X8XqXqXqXqXqXwXqXqXwXqX0XqXwXqXwXqXqXqXqXwXqXwX7X .& 6.S.J.eXeXeXeXeXeXeXeXeXeXeXeXeXeXeX",
"eXeXeXeXeXeXeXeXeXeXeXeXeXeXeXq.S.f 5 *X8XwXqXqXqXqXwXqXwX6X;X!.!.4X0XqXqXqXqXqXwXwXqX7X .& 6.S.v.eXeXeXeXeXeXeXeXeXeXeXeXeXeXeX",
"eXeXeXeXeXeXeXeXeXeXeXeXeXeXeX7.S.f 5 &X8XwXqXqXqXqXqXqX6X!.~ .XE.` 4XwXqXqXqXqXwXwXqX7X .& 6.h.v.eXeXeXeXeXeXeXeXeXeXeXeXeXeXeX",
"eXeXeXeXeXeXeXeXeXeXeXeXeXeXeX7.h.p & %X8XwXwXqXqXqXwXwX;XD _.<XXX/  .6XwXwXqXqXqXwXqX5X' @ 7.h.H.eXeXeXeXeXeXeXeXeXeXeXeXeXeXeX",
"eXeXeXeXeXeXeXeXeXeXeXeXeXeXeXz.5.> & #X7XqXwXwXwXwXwX0X} T  X<XXXR.D 4XwXwXwXwXwXwX0X3X_ O s w.eXeXeXeXeXeXeXeXeXeXeXeXeXeXeXeX",
"eXeXeXeXeXeXeXeXeXeXeXeXeXeXeXeX;.X # +X5X0X0X0X0X8X8X6X_ ( {.XX X^.J $X8X8X8X0X0X0X7X2X0 . 1 eXeXeXeXeXeXeXeXeXeXeXeXeXeXeXeXeX",
"eXeXeXeXeXeXeXeXeXeXeXeXeXeXeXeXeXO   ' 3X5X5X5X5X4X*X#X5 L.'. X{.^.A ' &X2X3X5X5X5X5X%X#   #.eXeXeXeXeXeXeXeXeXeXeXeXeXeXeXeXeX",
"eXeXeXeXeXeXeXeXeXeXeXeXeXeXeX{ Y X   % ..+X+X.. .] ] 6   S L.L.L.! $ X ] +.} ..+X+X+X_     @.eXeXeXeXeXeXeXeXeXeXeXeXeXeXeXeXeX",
"eXeXeXeXeXeXeXeXeXeXeXeXeXeX- o O +   , V &.k.:.x.J.m.v e ] +.+.+.u y e :.J.M.x.k.&.$.x   O ; y eXeXeXeXeXeXeXeXeXeXeXeXeXeXeXeX",
"eXeXeXeXeXeXeXeXeXeXeXeXeXy   ; t e + g Z.eXeXeXeXx.2 X.eXeXeX3.eXeXeX2.; V M.eXeXeXK.l.@ w t w e eXeXeXeXeXeXeXeXeXeXeXeXeXeXeX",
"eXeXeXeXeXeXeXeXeXeXeXeXeX. . y <.t + . n j.k.V v u w X.eXeX3.o.*.2.eXeX- u t b &.k.e., X 6 O.O.+ O.eXeXeXeXeXeXeXeXeXeXeXeXeXeX",
"eXeXeXeXeXeXeXeXeXeXeXeX<.3 # w #.*.u t ] u O.#.*.*.e y eXeXeXeXeX2.eX<.; @.*.#.O.X.u y y O.*.y O X eXeXeXeXeXeXeXeXeXeXeXeXeXeX",
"eXeXeXeXeXeXeXeXeXeXeXeXX.H A O e u X.o.o.o.o.u t 1 O 6 eXeXeX@.eXeXeXu X ; e u X.o.o.o.X.X.t + # $ #.eXeXeXeXeXeXeXeXeXeXeXeXeX",
"eXeXeXeXeXeXeXeXeXeXeXeXr L I.J O ; w w w 6 - O X a e.z X.eXeX1.3.eX#.2 e.c @ X * 1 6 w w 1 O 4 P S r eXeXeXeXeXeXeXeXeXeXeXeXeX",
"eXeXeXeXeXeXeXeXeXeXeXeXq R ^.^.L.A o # 8 8 J S % c l.l.M z z x z z n l.c.r.; 7 J 8 8 5 . 4 T T.R.R q eXeXeXeXeXeXeXeXeXeXeXeXeX",
"eXeXeXeXeXeXeXeXeXeXeXeX% E ~.'.).T.4 A R.^./.~.P.J 6 x M r.r.e.e.r.r.n 2 9 ! R.^.^.~.L.$ ! (.)./.( 5 eXeXeXeXeXeXeXeXeXeXeXeXeX",
"eXeXeXeXeXeXeXeXeXeXeXeX# T R.).].~.7 P ].].[.'.[.(.U.Q J D D D 9 D D P ) R.).[.'.].{.T.3 ! ).]./.( 4 eXeXeXeXeXeXeXeXeXeXeXeXeX",
"eXeXeXeXeXeXeXeXeXeXeXeX% L P.(.[.R.7 P '.[.].].].].].).).^.^.^.^.^./.'.{.].].].].].].T.3 ! '.'.^.( 7 eXeXeXeXeXeXeXeXeXeXeXeXeX",
"eXeXeXeXeXeXeXeXeXeXeXeX= L ( ~.'.~.7 J '.{.].].].].'.[.[.).^.~.^.'.{.[.].].].].].].].Y.$ ! '.[.R.^ 7 2.eXeXeXeXeXeXeXeXeXeXeXeX",
"eXeXeXeXeXeXeXeXeXeXeXeXr H T ( I.Y.4 S '.{.].].].].].{.(.Q G U G Q ~.'.].].].].].].].I.$ ( ].(.I.E 7 <.eXeXeXeXeXeXeXeXeXeXeXeX",
"eXeXeXeXeXeXeXeXeXeXeXeX@.$ 4 8 A H $ A '.{.].].].].[.'.L.Y eXeXeXY / ].[.].].].].].].I.$ ( ~.P.^ T 4 eXeXeXeXeXeXeXeXeXeXeXeXeX",
"eXeXeXeXeXeXeXeXeXeXeXeXeX9 | ~ F 0 o A '.[.].].].].[.(.A 2.eXX.eX<.J ).].].].].[.].{.I.o H P S 7 $ & eXeXeXeXeXeXeXeXeXeXeXeXeX",
"eXeXeXeXeXeXeXeXeXeXeXeXeX{ oX1X,XoXF 8 (.[.[.].].].].'.T @.eXeXeX+.! '.].].].[.[.{.{.P.  # 0 F ~ | U eXeXeXeXeXeXeXeXeXeXeXeXeX",
"eXeXeXeXeXeXeXeXeXeXeXeXeX<.}.1X1X,XI 7 (.{.[.].].].].[.T.D +.<.+.F T.'.].].].].].[.[.L.o | oX,X,XoX*.eXeXeXeXeXeXeXeXeXeXeXeXeX",
"eXeXeXeXeXeXeXeXeXeXeXeXeXeXQ.OX1X,XI 4 ~.'.[.].].'.'.).).R./ P Q R.'.'.].].].'.].'.'./ % }.1X1X1XQ.eXeXeXeXeXeXeXeXeXeXeXeXeXeX",
"eXeXeXeXeXeXeXeXeXeXeXeXeXeX|.`.XX.XD 3 T.(.).'.'.).(.).'.[.{.[.{.{.[.[.[.[.{.{.{.).(.P # }.1X1XOXW.eXeXeXeXeXeXeXeXeXeXeXeXeXeX",
"eXeXeXeXeXeXeXeXeXeXeXeXeXeXeX|.| ,.y $ T L.L.P.I.I.Y.Y.Y.T.R.R.R.~.~.(././././.(./.~.H o E.OXOX`.-XeXeXeXeXeXeXeXeXeXeXeXeXeXeX",
"eXeXeXeXeXeXeXeXeXeXeXeXeXeXeXeXeXeXeXo K W E E E E E W E ^ ^ ^ ^ ( ( ( ( ( ( ( ( ( ( 7 o G [ ~ ,.eXeXeXeXeXeXeXeXeXeXeXeXeXeXeX",
"eXeXeXeXeXeXeXeXeXeXeXeXeXeXeXeXeXeXeXo K W W W W R W R W R R W R R R R R R R R R W R 3 e eXeXeXeXeXeXeXeXeXeXeXeXeXeXeXeXeXeXeX",
"eXeXeXeXeXeXeXeXeXeXeXeXeXeXeXeXeXeXeX= H W R R E W W W W R R W W W W R R W W R E R W $ ;.eXeXeXeXeXeXeXeXeXeXeXeXeXeXeXeXeXeXeX",
"eXeXeXeXeXeXeXeXeXeXeXeXeXeXeXeXeXeXeXr S R R R R E W W E E W W W W W E E E R R R R T $ eXeXeXeXeXeXeXeXeXeXeXeXeXeXeXeXeXeXeXeX",
"eXeXeXeXeXeXeXeXeXeXeXeXeXeXeXeXeXeXeXX.S R R T L K L L L L L L L L L L L K K K T E T % eXeXeXeXeXeXeXeXeXeXeXeXeXeXeXeXeXeXeXeX",
"eXeXeXeXeXeXeXeXeXeXeXeXeXeXeXeXeXeXeX@.7 R K # = = = = = = = = = = = = = = = O 7 R L = eXeXeXeXeXeXeXeXeXeXeXeXeXeXeXeXeXeXeXeX",
"eXeXeXeXeXeXeXeXeXeXeXeXeXeXeXeXeXeXeX2.3 T 7 ; %.-.-.-.-.-.-.-.-.-.-.-.-.-.-.v # L S 6 eXeXeXeXeXeXeXeXeXeXeXeXeXeXeXeXeXeXeXeX",
"eXeXeXeXeXeXeXeXeXeXeXeXeXeXeXeXeXeXeXeX# K $ 2 >.n.n.n.n.n.n.n.n.n.n.n.n.n.n.o.X A 7 e eXeXeXeXeXeXeXeXeXeXeXeXeXeXeXeXeXeXeXeX",
"eXeXeXeXeXeXeXeXeXeXeXeXeXeXeXeXeXeXeXeXO 7 o v b.n.b.b.b.b.b.b.b.b.b.b.b.b.n.-.+ 3 $ t eXeXeXeXeXeXeXeXeXeXeXeXeXeXeXeXeXeXeXeX",
"eXeXeXeXeXeXeXeXeXeXeXeXeXeXeXeXF.D.D.Z d + . X.n.n.b.b.b.b.b.b.b.b.b.b.b.b.n.>.6 @ N N Z >.n.eXeXeXeXeXeXeXeXeXeXeXeXeXeXeXeXeX",
"eXeXeXeXeXeXeXeXeXeXeXeXeXeXeX3.C 8.0.A.0.d 2 =.b.n.b.b.b.b.b.b.b.b.b.b.b.b.b.b.B : 9.A.9.8.C eXeXeXeXeXeXeXeXeXeXeXeXeXeXeXeXeX",
"eXeXeXeXeXeXeXeXeXeXeXeXeXeXeXeXeXeXG.Z g v =.n.b.b.b.n.n.b.b.n.n.n.n.n.b.b.b.n.>.v g C G.eXeXeXeXeXeXeXeXeXeXeXeXeXeXeXeXeXeXeX",
"eXeXeXeXeXeXeXeXeXeXeXeXeXeXeXeXeXeXeXeXeXF.b.>.>.b.b.b.b.b.b.n.n.b.n.b.b.b.b.b.b.m.eXeXeXeXeXeXeXeXeXeXeXeXeXeXeXeXeXeXeXeXeXeX",
"eXeXeXeXeXeXeXeXeXeXeXeXeXeXeXeXeXeXeXeXeXeXeXeXm.n.n.>.>.n.n.n.n.n.n.m.G.eXeXeXeXeXeXeXeXeXeXeXeXeXeXeXeXeXeXeXeXeXeXeXeXeXeXeX",
"eXeXeXeXeXeXeXeXeXeXeXeXeXeXeXeXeXeXeXeXeXeXeXeXeXeXeXeXeXeXeXeXeXeXeXeXeXeXeXeXeXeXeXeXeXeXeXeXeXeXeXeXeXeXeXeXeXeXeXeXeXeXeXeX"
};
