/* XPM */
static char *result[] = {
/* columns rows colors chars-per-pixel */
"64 64 224 2 ",
"   c #020A2F",
".  c #030536",
"X  c #080535",
"o  c #020A34",
"O  c #02033C",
"+  c #08033D",
"@  c #02093B",
"#  c #030442",
"$  c #080342",
"%  c #020944",
"&  c #03044C",
"*  c #0A034D",
"=  c #02084B",
"-  c #020454",
";  c #090353",
":  c #030A54",
">  c #02045C",
",  c #09035C",
"<  c #040859",
"1  c #030462",
"2  c #0A0465",
"3  c #030965",
"4  c #04056C",
"5  c #09046B",
"6  c #03086B",
"7  c #040674",
"8  c #090673",
"9  c #020A74",
"0  c #090A75",
"q  c #03067A",
"w  c #08077A",
"e  c #040D7D",
"r  c #090E7A",
"t  c #071176",
"y  c #06107D",
"u  c #09107C",
"i  c #090783",
"p  c #030A84",
"a  c #090E84",
"s  c #06078A",
"d  c #040C8B",
"f  c #0A0E8B",
"g  c #05118C",
"h  c #0C148C",
"j  c #0B188F",
"k  c #040D93",
"l  c #090E97",
"z  c #040E9F",
"x  c #051293",
"c  c #0C1595",
"v  c #0B1D94",
"b  c #06129B",
"n  c #09139A",
"m  c #0C1D9B",
"M  c #101497",
"N  c #111C94",
"B  c #101498",
"V  c #092095",
"C  c #0A209C",
"Z  c #0F2A99",
"A  c #10209F",
"S  c #0614A3",
"D  c #0A16A5",
"F  c #071AA4",
"G  c #091FA2",
"H  c #0A1DAC",
"J  c #0C1DB4",
"K  c #0E25A5",
"L  c #0E2BA6",
"P  c #0B23AB",
"I  c #0D29AD",
"U  c #1124A4",
"Y  c #1129A5",
"T  c #1224A9",
"R  c #1129AB",
"E  c #1333AC",
"W  c #1837AF",
"Q  c #153BAF",
"!  c #0C24B4",
"~  c #0E29B2",
"^  c #0B25B9",
"/  c #0F2BB9",
"(  c #1226B3",
")  c #122BB5",
"_  c #132CBB",
"`  c #1334B4",
"'  c #1836B5",
"]  c #173AB3",
"[  c #1B3CB4",
"{  c #1233B9",
"}  c #1A33B9",
"|  c #1639BB",
" . c #1C3DBD",
".. c #1D44B3",
"X. c #1D4AB6",
"o. c #1D45BE",
"O. c #1C49BD",
"+. c #1F50BD",
"@. c #2255BD",
"#. c #142DC2",
"$. c #1333C3",
"%. c #1B3DC2",
"&. c #1839C8",
"*. c #1B43C2",
"=. c #1E4BC2",
"-. c #1D42CB",
";. c #1E4CCC",
":. c #1F50C8",
">. c #1F4DD4",
",. c #224CC4",
"<. c #2348C8",
"1. c #244ECA",
"2. c #2253C4",
"3. c #2452CC",
"4. c #2559CC",
"5. c #2858C9",
"6. c #254DD2",
"7. c #2555D2",
"8. c #2954D4",
"9. c #265BD3",
"0. c #2958D4",
"q. c #2552DB",
"w. c #2957DA",
"e. c #2B5BDB",
"r. c #2C65C6",
"t. c #2C64CC",
"y. c #2D6BCE",
"u. c #3277CB",
"i. c #2C65D4",
"p. c #2D6AD4",
"a. c #2C63DB",
"s. c #2D6BDB",
"d. c #336CD6",
"f. c #336DDB",
"g. c #2F70DB",
"h. c #3372D4",
"j. c #367AD6",
"k. c #3473DD",
"l. c #3A75DB",
"z. c #377CDD",
"x. c #397DDD",
"c. c #2750E1",
"v. c #295BE1",
"b. c #326DE2",
"n. c #3574E1",
"m. c #3973E4",
"M. c #377EE2",
"N. c #3673EA",
"B. c #3873E9",
"V. c #3C7CEB",
"C. c #407FE8",
"Z. c #3781CF",
"A. c #3A85D4",
"S. c #3E8AD4",
"D. c #3A83DC",
"F. c #3E8ADC",
"G. c #3D84E4",
"H. c #3E8AE2",
"J. c #3E85EC",
"K. c #3E8CEB",
"L. c #418CDD",
"P. c #4397D8",
"I. c #49A1D7",
"U. c #4BA8DC",
"Y. c #52BADC",
"T. c #4086E5",
"R. c #428FE4",
"E. c #4283EB",
"W. c #458DEC",
"Q. c #488CED",
"!. c #4392E4",
"~. c #4997E6",
"^. c #459CE1",
"/. c #4593EB",
"(. c #4A92EE",
"). c #479CEC",
"_. c #4C9CED",
"`. c #509EEE",
"'. c #458DF2",
"]. c #468BF4",
"[. c #4694F3",
"{. c #4A93F2",
"}. c #479DF5",
"|. c #4D9DF2",
" X c #4B9DF8",
".X c #5197F2",
"XX c #529CF5",
"oX c #49A2E2",
"OX c #4EADE4",
"+X c #4CA3EC",
"@X c #4EABEA",
"#X c #52B4E5",
"$X c #56B8E6",
"%X c #52B4EC",
"&X c #55BAEC",
"*X c #4CA1F5",
"=X c #4EA8F3",
"-X c #4EA3F8",
";X c #53A4F5",
":X c #56ACF5",
">X c #59ADF7",
",X c #53ABF8",
"<X c #56A8F8",
"1X c #55B4F4",
"2X c #5AB1F7",
"3X c #56BDF3",
"4X c #59BCF4",
"5X c #5ABAF8",
"6X c #59C3DE",
"7X c #5CCBE3",
"8X c #58C2E9",
"9X c #5DCAEC",
"0X c #5ED1E9",
"qX c #5BC6F6",
"wX c #5FD0F4",
"eX c #61D4E4",
"rX c #61D4ED",
"tX c #63CFF5",
"yX c #62CFF9",
"uX c #61D3F5",
"iX c #65DAF4",
"pX c #69D8F4",
"aX c #6BE4F4",
"sX c #6CEAF6",
/* pixels */
"8XOXA.a.w.0.8.7.5.3.3.5.1.5.1.1.3.5.3.3.6.8.3.7.3.2.0.3.e.n.K.5XwX6XF.b.e.1.2.2.1.3.1.1.6.5.3.3.3.5.3.1.3.3.3.5.1.8.5.6.e.f.T.%X",
"iX9X%X).(././././././././././.(././././.[././.)././.!.W.(.}.=XwXsX0X#X@X)././././.!.Q.(.Q././././././.(././././.~.(.!./..X.X5XiX",
"uX8XOX).!.R.!.!.R.R.R.R.R.R.R.R.R.R.!.!.W./.K.!.!.!.L.L.W.).@XwXaX7XU.oX!.!.R.R.L.!.R.W.W.!.R.R.R.R.R.R.!.R.!.H.R.L.L.L.W./.%XuX",
"&XI.j.y.4.:.2.:.,.2.1.2.1.2.1.2.:.2.;.;.:.2.2.2.2.@.@.2.4.i.G.%XqXU.Z.y.4.2.2.2.:.@.O.:.3.;.:.2.1.2.,.2.2.:.:.:.2.5.@.5.5.p.F.@X",
"=XF.r.*.{ / ( ~ I I I I I I I I I I I I ~ I L Y L Y R R | ;.s.*X5X^.i.;.| ~ ` L L L I ~ ~ ~ I I I I I I ~ I I I I E L ~ $.-.a.{.",
"*XD.2.I F S S x d g g g g g g g g g g g f h g g g g x x H { 0.{.,XH.:.$.J b b x x d x k k g g g g g g g g g g g g x g x T #.8.'.",
"|.j.X.K k s i 7 4 4 4 4 4 4 4 4 4 4 4 4 4 5 2 3 6 4 8 q l ( 3.'.,XD.;.! z p e 9 8 8 8 7 8 4 6 4 4 4 4 4 4 4 4 4 4 9 7 i B ( 6.C.",
"|.j.X.C p 7 2 > - - < - - - - - - - - ; - ; * * * > , 4 f T 3.Q.,XF.=.H k 7 3 < ; , ; ; > - - - - - - - - - - - - < 1 1 f T 1.Q.",
"*Xz.X.V e 1 * & & & & & # * & & & & # & O X X @ # # * 2 a Y 5.Q.,XS.+.I d 3 - # # + $ # # & & & # & & & & * # & & & = - y A 5.Q.",
"*XM.+.V t - @ $ # # # % # # # # # % # % @ o   o O @ & 2 r Y 3.Q.:XS.O.I d > & @ @ O X O @ % $ # # $ % # # % # # % % % = t K 7.W.",
"}.M.=.V 9 : # O O $ % $ $ # % + # $ # @ @ o o o o O * > a Y 3.'.:XS.=.I d > # . O X + @ O O # O # $ $ # # O $ # # # % = t U 0.].",
"}.N.*.v e < # O # O + @ @ @ $ O O $ O # % @ @ @ @ # * , a R 7.Q.:XS.O.H d > # X X + # @ % O + # $ @ @ $ @ $ @ $ O # % & t P q.].",
" XN.=.m q > & $ + # O # # $ @ # # # O # % # # @ $ * * 2 a R 1.Q.%XA.*.H f > $ X + $ $ # # # O # % # + % # O # # $ O # & r T c.].",
" XM.*.m e > & O # O # O O # O O O O O # % # @ O O $ * 2 f R 3.].:XL.=.F i > # O + + $ # # @ # O O O O O O O O O O # # - r T c.].",
"*XM.=.C e > & # O O O O O O O O O O O O # O . . @ # * 1 a R 5.].:XS.o.K p 1 & # + O O O # O O O O O O O O O O O O $ % - e K 0.].",
"*XD.O.P e > & O O O O O O O O O O O O O O O . O @ # & 1 a R 1.].:XS.o.G p 1 - O + . . O O O O O O O O O O O O O O # & - y L 7.].",
"*XM.=.P e > & O O O O . O O O O O O O O O O . . @ # & 1 a T 3.].,XF.O.G p 1 - O O O O O O O O O O O O O O O O O O O # - a K 7.[.",
"*XM.=.m e > & # O O O O O O O O O . O O O O . . O # - 1 a T 3.Q.,XD.O.K p 1 & # + O O # # O . O O O O O O O O O O O & - e K 7.'.",
"*XM.=.m p > # # O O O O O O O O O O O O O . . . O # - 1 a R 3.].,XL.O.F p 1 - O . O O O O O O O O O O . O . O O O # # - y K 7.'.",
"*XM.=.P e > # # O O O O O O . O O O O O @ O . . O # & 1 a I 3.].:XS.O.F p 1 & # O + O O # O O O O O O O O O O O O # & ; e K 7.[.",
"*XM.=.G p > & O O O O . O O . O O O O O # O . . O # & 1 a R 6.Q.:XF.o.K p 1 & O + + O O # O O O O O O O O O . O O O & - u Y 7.].",
"*XM.=.G e > & # O O O O O O O O O O O O O O . . O # & 1 a R 3.].:XF.O.G p 1 - # + + @ O # O O O O . O O O O O O O # % < r K 7.[.",
"*XG.=.m p > & O O O O O O O O O O O O O O O . . @ # - 1 a R 3.Q.:XF.O.F p 1 : $ + + O % O O O O O O O . O O O O O # # - y K 7.].",
"*XM.=.G e > & O O O O O . O O O O O O O O @ . . O # & 2 a R 3.].:XF.O.G p 1 * # + X @ $ # O O O O O O O . O O O O # & - y K 7.[.",
"*XM.=.m e > & O O O O O O O O O O O O O # O . . @ # - 1 a R 3.].:XF.O.G p 1 & # + X @ # # O O O O O O O O O O O O $ # - e U 0.].",
"*XM.=.P p 1 & O O O O O O . . O O . O O @ O . . O # & 1 a R 3.Q.:XF.=.K p 1 & # # + # @ @ O O @ O O O O # O O O O # & > e U 7.[.",
"}.D.=.F s 1 & . . O O . O O @ @ O . O O # O . O # # & 1 a Y 3./.<XF.=.F i 1 & # & % % @ @ O # # # # O # # # # @ # & ; > i R 0.K.",
"}.n.=.P s 7 - & & & & & & & & * & & & & & * % = & - > 5 f Y 3.Q.,XG.;.! k 8 > > > < : : : : - - - - - - - - - - - > 5 7 d P q.J.",
"*XM.>./ F g 9 3 3 4 4 4 3 4 5 6 3 4 4 4 2 3 3 3 6 6 0 a B _ 0..X>XW.7.#.D f i q q q 9 6 6 4 9 6 4 4 7 6 8 4 9 4 6 w a g b _ 7.K.",
",XG.:.$.! P v v m m m m m m N m m m m m v N N N V m A D ( &.v.{.,X!.9.%.^ K K C C m v N v N N N v N N N N v v N N n m U ( -.a.[.",
"3XoXg.7.;.,.o. . .%. .%. .%.%.%. .%.%. . .[ [ [ o.%.<.<.6.v.N.XX4XI.u.4.,.O.=.*.o.X....... .%. . . . . . . . . . .%.*.,.3.9.M.+X",
"wX8XoXH.V.E.C.m.m.m.m.m.m.m.m.m.m.m.m.m.l.l.m.m.m.m.V.V.C.]. X5XpX6XI.L.T.C.J.G.G.x.j.l.n.B.N.N.N.N.B.B.N.B.B.B.B.V.E.T.T./.+X9X",
"sX0X#X).{.{.'.{.(.(.(.(.Q.(.(.(.(.(.{.(.(.Q.{.Q.{.{.{./.{.-X:XtXaXeX#X+X)./.[.[.[.[.[.[.[.[././.[./.[./././.[./.[.[./.).}.+X&XiX",
"0XY.S.j.k.p.t.t.r.r.r.r.r.r.r.r.r.r.r.r.t.t.t.t.t.i.t.y.k.x.L.&XeXY.P.D.p.p.s.b.s.p.p.s.p.y.y.y.y.y.y.p.y.y.y.y.y.p.t.y.h.D.P.$X",
"&XF.y.:.*.| E E W E E E E E E E E E E E ` ) E ` ` ` ` { %.;.f.*X4XoXh.:.*.` { { | ` ` { ` { { { { ` ` { { { { { { { E Q *.>.g.}.",
"1XH.:.$.^ F x g x k x x x x x k x k l x n x x x x x n D J $.v.{.5X/.9.%.P n v x n n x x x b b b b b b b n b l z b c g n ! $.v.[.",
"=XD.O.P b d 7 4 7 0 q 7 q 7 q 7 7 0 7 q q q q 7 9 7 q i l ( 7.{.1XH.;.! z e 7 7 q q q 7 7 7 7 7 7 7 7 7 7 7 7 7 7 8 7 e x ! q.K.",
"@XS.X.C d 9 - - - < < > < < < < > < < < > < : : : : : 2 r Z @.P.1XS.O.K d 4 - - > > > : - - - - - - - - - - - - - - - 1 p K 3.W.",
"+XD.+.C p 1 & # % # # # # # # # # # % # # % @ @ # % : , u Y @.Q.:XS.O.P p 1 - & * & & & % # # # # # # # # # # # # # & < y K 7.[.",
"*XG.=.C e > & # O O O @ O O O . O O O O O O O O @ # & 2 a R 3.].,XF.O.G p 1 * # O O @ # # O O O O O O O O O O O O # % - y K 7.'.",
"*XG.=.P e > # # O O O O O O O O O O O O O O . O @ # & 1 a T 1.].,XF.X.F p 1 - # + + O @ O O O O O O O O O . O O O # & - e U 9.'.",
"*XM.=.m e < & # O O O . O O O O O O O O O O . . O # - 1 a T 5.].>XF.O.K p 1 & # + O O # # O O O . O O O O O O O O $ # > e U 7.'.",
"*XM.=.m e > # # O O O O O . O O O O O O O O . . O O & 1 a R 3.].:XF.O.G p 1 & # + + @ # # O . O O O . O O O O O O O & - y K 9.'.",
"*XM.=.P e > & # O O O O O O O O O O O O O @ . . O # - 1 a I 3.].:XF.O.F p 1 * # + + X % O O O O O O O O O O O . O # # ; y K 7.'.",
"}.M.=.G e > & O O O O O O O O O O O O O O O . @ O # & 1 a R 3.].:XF.O.F p 1 & # + O O O # O O O O O O . O O O O O # & - y U 9.].",
"*XG.=.G p > & # O O . O O O O . O O O O O O . . @ # - 1 a R 1.].:XF.O.G p 1 - O O + O # # O O O O O O O O O O O O # % - u K 7.'.",
"*XM.=.m e > # # O O O O O . O O O O O O O O . . O O & 1 a R 1.].:XF.o.K p 1 - # + . O O O O O O . O O O O O O O O # % - y K 9.'.",
"}.G.=.F e > & # O O O O O O O O O O O O @ O . . O # - 2 a R 5.].:XF.O.F p 1 & O O + . O # O O O O O O O O O O O O + & - y K 7.'.",
"*XD.=.F e > & # O O O O O O O O O O O O O O . . @ # & 1 a R 3.].<XF.O.G p 1 - O O O O O O O O O O O O O O O . O O O # - r K 7.'.",
"*XM.=.C p > # # O O O O O O O O O O O O O O . . @ # - 1 a R 3.].<XF.O.G p 1 & # O O O # O O O O O O . O O O O O O # & - a K 9.].",
"}.D.=.C q 1 & # O O . O . O . . O O O O O @ O . O # & 2 g R q.].:XF.*.P p 1 - O + . O @ O O . O O O O . . O O O O O * - y K 9.'.",
"}.z.O.v e 1 - & . . X X X O X X X X X O # O O O # $ ; 5 f P q.[.<XH.=.F p 1 & @ O X O @ @ O + O X X . . + X X O + $ & > y L 7.[.",
"}.z.X.v 9 > & % O O O O O O + O O O O O O @ . o O $ * 2 a R 7.].:XF.=.P p > & @ X X o @ @ O O O O + O O O O O O O # & < y K 4./.",
"{.z.X.V y > & % # # # # # # # # # # # # O X o X X $ * 2 f R 7.'.:XF.O.K p 1 & @ X X X @ O # # # # # # # # # # # # % & - y L 3.[.",
" Xz.O.v y > = = & # # # & # # # % # # # O X X @ O $ ; 2 a R 3.'.,XF.=.P p 3 - % O + @ O % # # # # # # # & # # # # % = - e U 0.].",
"*XM.O.V y 1 : % # # # # # # # # # # # # # O X X # # ; 2 f R 3.{.,XF.O.P d 4 < * # # $ # # # # # # # # # # # # # # % & < a P 7.].",
"*Xz.O.V p 1 - & # # # # # # # # % # # # # $ + $ * & - 4 f R 3.W.1XF.=.P k 7 > - & * * & & # # # # # # # % # # # # & * > a K 1.].",
"-XD.+.K p 4 1 ; & - - - & - & - & - - & ; ; * * & > , 8 h I 2.W.:XD.=.! k q 4 > > - ; - - & - - - - & - - & - : - - , 1 s K 8.Q.",
"-XG.2.E x a 8 8 7 5 7 5 7 5 4 7 4 8 4 4 5 2 2 2 5 4 w a n ~ 3.W.:XL.2./ S d e 6 4 4 4 4 8 5 7 5 4 4 5 8 4 4 4 4 4 5 8 w M ( w.{.",
"*XG.4.| F m c c c B c B c B B c B B B M c h h h j h N G T &.e.[.1X!.7.$.! F v j j v c c x B c B M n B B B n M M l h h v T $.a.[.",
"=XH.h.:.%.| } } } } } } } } } } } } } ' } } ] ] ] ] ] ' &.q.n.-X4XU.s.>.&.| ] ..] ] ' ' } } } } } } } } } } } } } W W W %.1.n.}.",
"8X@X!.M.f.k.n.l.d.d.d.d.d.d.d.d.d.d.d.d.f.f.d.f.f.d.d.d.b.V./.1XwX$XH.J.N.k.h.h.d.d.f.f.f.d.d.d.d.d.d.d.d.d.d.d.d.h.h.d.C.l.~.3X",
"pX0X$X`.{.XXXXXX_.|.|.|.|.|.|.`.|.*X|.|. X|.XX|.|.XX.X.XXX<X2XyXaXeX1X-XXX|.).*X|.|.XX X X|.XX+X*X`.`.|.*X`.;X_.`..X`..XXXXX5XuX",
"rX6XP.j.k.f.k.n.k.k.k.k.k.k.k.k.k.k.k.n.n.n.k.k.n.l.f.d.N.J.}.qXiX7XoXJ.N.f.h.j.k.n.n.n.n.k.n.z.k.n.n.k.k.n.k.n.n.n.f.k.m.J.}.3X"
};
