/* XPM */
static char *result[] = {
/* columns rows colors chars-per-pixel */
"64 64 243 2 ",
"   c #1F1C36",
".  c #211E37",
"X  c #2A292E",
"o  c #282538",
"O  c #353435",
"+  c #3A373B",
"@  c #30303E",
"#  c #403D3E",
"$  c #42413F",
"%  c #2C2B44",
"&  c #282846",
"*  c #343243",
"=  c #35334C",
"-  c #3B3A49",
";  c #2B3358",
":  c #3B3A58",
">  c #2D2E47",
",  c #1D3D7B",
"<  c #1E3B76",
"1  c #1F366E",
"2  c #24356A",
"3  c #283566",
"4  c #223974",
"5  c #263B76",
"6  c #333D6C",
"7  c #413E41",
"8  c #1D417E",
"9  c #374476",
"0  c #354371",
"q  c #3E415D",
"w  c #424142",
"e  c #4D4A4C",
"r  c #46444C",
"t  c #454354",
"y  c #44435B",
"u  c #4B4956",
"i  c #524F53",
"p  c #555354",
"a  c #5C5C5C",
"s  c #575559",
"d  c #514E4E",
"f  c #625E5F",
"g  c #484864",
"h  c #5C5C63",
"j  c #54536B",
"k  c #585768",
"l  c #444B72",
"z  c #595974",
"x  c #4C516F",
"c  c #615E63",
"v  c #615E74",
"b  c #5F606C",
"n  c #626163",
"m  c #6C6A6C",
"M  c #67656A",
"N  c #646273",
"B  c #63627B",
"V  c #6A6A78",
"C  c #737374",
"Z  c #7B7B7C",
"A  c #777579",
"S  c #706D74",
"D  c #61615F",
"F  c #817E7E",
"G  c #2A3C94",
"H  c #2C3E99",
"J  c #273F94",
"K  c #293F80",
"L  c #1F3F82",
"P  c #1C4384",
"I  c #1B4A8B",
"U  c #1A4889",
"Y  c #1C4D91",
"T  c #195393",
"R  c #165C9C",
"E  c #195B9B",
"W  c #1B5599",
"Q  c #274386",
"!  c #364B86",
"~  c #26459A",
"^  c #2B439C",
"/  c #254A9D",
"(  c #254595",
")  c #2B4F99",
"_  c #1D5CAC",
"`  c #1B5BA3",
"'  c #1E5EB0",
"]  c #244DA1",
"[  c #2B4BA4",
"{  c #2D46A3",
"}  c #3245A4",
"|  c #334AAC",
" . c #3348A9",
".. c #2253A5",
"X. c #2355AA",
"o. c #225BAC",
"O. c #2A54A9",
"+. c #374FB4",
"@. c #285CB3",
"#. c #3A53BC",
"$. c #3454B6",
"%. c #3053AB",
"&. c #1563A4",
"*. c #136CAB",
"=. c #1966A9",
"-. c #1873AE",
";. c #1B64B3",
":. c #1A6BB6",
">. c #1A6CB9",
",. c #156DB4",
"<. c #0E7AB9",
"1. c #1673BD",
"2. c #1C73BC",
"3. c #1578B7",
"4. c #0F70AE",
"5. c #2363AD",
"6. c #246BBA",
"7. c #2867B9",
"8. c #3162BC",
"9. c #2274BC",
"0. c #14609F",
"q. c #4A5684",
"w. c #4D5886",
"e. c #5C6791",
"r. c #6B6B85",
"t. c #737383",
"y. c #7B7A82",
"u. c #78778B",
"i. c #7B7A95",
"p. c #6D7191",
"a. c #5D6796",
"s. c #3C59C5",
"d. c #147BC4",
"f. c #1979C3",
"g. c #0F7EC1",
"h. c #2D6AC3",
"j. c #3868C9",
"k. c #2A77C6",
"l. c #3473CD",
"z. c #3D69D2",
"x. c #3A77D8",
"c. c #425ACA",
"v. c #455ED6",
"b. c #4368D6",
"n. c #4375DC",
"m. c #4065CD",
"M. c #4B6BE4",
"N. c #4778E5",
"B. c #5477FB",
"V. c #4E78F2",
"C. c #817F87",
"Z. c #817F9A",
"A. c #0D81BD",
"S. c #0F88BA",
"D. c #1883BC",
"F. c #1490BD",
"G. c #7F808D",
"H. c #0D84C3",
"J. c #0D8CCB",
"K. c #0F88C7",
"L. c #1485C3",
"P. c #1383CA",
"I. c #198BC8",
"U. c #0C94CB",
"Y. c #1A93CD",
"T. c #1697CB",
"R. c #0C8CD3",
"E. c #0F86D0",
"W. c #0B93D4",
"Q. c #0B9CD4",
"!. c #069DDC",
"~. c #0B9BDC",
"^. c #0895D8",
"/. c #149BD3",
"(. c #1899D4",
"). c #2587CA",
"_. c #298AD3",
"`. c #3386D8",
"'. c #2898D8",
"]. c #2796D2",
"[. c #17A2CD",
"{. c #07A4DB",
"}. c #0BA3DC",
"|. c #0BAADB",
" X c #13ACDB",
".X c #16A6D7",
"XX c #0DB7DC",
"oX c #17B5DC",
"OX c #23A7D8",
"+X c #22B3DC",
"@X c #3C8CE5",
"#X c #3998E7",
"$X c #3091E9",
"%X c #06A4E4",
"&X c #0AA5E3",
"*X c #06A9E4",
"=X c #09ABE4",
"-X c #09ACE8",
";X c #0BB4E5",
":X c #0ABAE4",
">X c #0AB3E9",
",X c #09B8E8",
"<X c #17BAE2",
"1X c #11AEE4",
"2X c #2DA7E2",
"3X c #33A8E9",
"4X c #29B9E7",
"5X c #34B5F3",
"6X c #079EE3",
"7X c #4386E7",
"8X c #4989F5",
"9X c #4797F6",
"0X c #43A9FD",
"qX c #17C2DE",
"wX c #0CC3EB",
"eX c #0CCBED",
"rX c #0FC4E3",
"tX c #16C7E7",
"yX c #0AD3EE",
"uX c #16D6EC",
"iX c #09CEF1",
"pX c #0BDCF2",
"aX c #0DD4F2",
"sX c #13DAF1",
"dX c #12CEF1",
"fX c #24C7E8",
"gX c #2DC8F5",
"hX c #28D9F3",
"jX c #30CDF7",
"kX c #0BE8F6",
"lX c #13E4F2",
"zX c #18E9F6",
"xX c #0BFDFE",
"cX c #09F7FC",
"vX c #18F7FC",
"bX c #13E0EF",
"nX c #26E6F7",
"mX c #23F2FB",
"MX c #828182",
"NX c #81818E",
"BX c #818197",
"VX c #8186A8",
"CX c None",
/* pixels */
"CXCXCXCXCXCXCXCXCXCXCXCXCXCXCXCXCXCXCXCXCXCXCXCXCXCXCXCXCXCXCXCXCXCXCXCXCXCXCXCXCXCXCXCXCXCXCXCXCXCXCXCXCXCXCXCXCXCXCXCXCXCXCXCX",
"CXCXCXCXCXCXCXCXCXCXCXCXCXCXCXCXCXCXCXCXCXCXCXCXCXCXCXCXCXCXCXCXCXCXCXCXCXCXCXCXCXCXCXCXCXCXCXCXCXCXCXCXCXCXCXCXCXCXCXCXCXCXCXCX",
"CXCXCXCXCXCXCXCXCXCXCXCXCXCXCXCXCXCXCXCXCXCXCXCXCXCXCXCXr.N k j g u u y g k V C.CXCXCXCXCXCXCXCXCXCXCXCXCXCXCXCXCXCXCXCXCXCXCXCX",
"CXCXCXCXCXCXCXCXCXCXCXCXCXCXCXCXCXCXCXCXCXCXCXCXp.u.CXCXCXCXCXCXCXCXy.V k t = * = t h CXCXCXCXCXCXCXCXCXCXCXCXCXCXCXCXCXCXCXCXCX",
"CXCXCXCXCXCXCXCXCXCXCXCXCXCXCXCXCXCXCXCXG.B G.CXCXCXCXCXCXCXCXCXCXCXCXCXCXF m h r * o % t u.CXCXCXCXCXCXCXCXCXCXCXCXCXCXCXCXCXCX",
"CXCXCXCXCXCXCXCXCXCXCXCXCXCXCXCXCXCXV z CXCXCXCXCXCXCXCXCXCXCXCXCXCXCXCXCXCXA m D a u * o & 7 y.CXCXCXCXCXCXCXCXCXCXCXCXCXCXCXCX",
"CXCXCXCXCXCXCXCXCXCXCXCXCXCXCXCXr.x G.CXCXCXCXCXCXCXCXCXCXCXCXCXCXCXCXCXCXCXCXF m D s e - X . o d CXCXCXCXCXCXCXCXCXCXCXCXCXCXCX",
"CXCXCXCXCXCXCXCXCXCXCXCXCXCXu.g B CXCXCXCXCXCXCXCXCXCXCXCXCXCXCXCXCXC.C.F Z F Z Z m D s c MXr o   @ A CXCXCXCXCXCXCXCXCXCXCXCXCX",
"CXCXCXCXCXCXCXCXCXCXCXCXCXk y t.CXCXCXCXCXCXCXCXCXCXCXe.! 9 0 5 5 5 5 9 0 g j k h M m c CXCXCXO o   o s CXCXCXCXCXCXCXCXCXCXCXCX",
"CXCXCXCXCXCXCXCXCXCXCXCXu y A CXCXCXCXCXCXCXCXp.! 5 8 8 I I I I Y I I P P , < 3 : y i s C CXn w O X   . r CXCXCXCXCXCXCXCXCXCXCX",
"CXCXCXCXCXCXCXCXCXCXNX: q S Z y.CXCXCXCXCXw.Q ( 5.9.).).]..X[.Y.F.-.*.&.R R T I Q 2 3 = r d p e # O X .   r CXCXCXCXCXCXCXCXCXCX",
"CXCXCXCXCXCXCXCXCXCX: : h M S y.CXCXCXq.5 P o.9.).OX+XtXhXzXvXzXzXsXqX[.S.<.,.=.=.=.( 5 ; * w d e $ O X     u CXCXCXCXCXCXCXCXCX",
"CXCXCXCXCXCXCXCXCXg q n a n m C Z B 6 L Q =.D.D.F.U.}.|.|.;X:XwXeXsXkXlXuXXXU.<.3.3.=.W Q 2 > # d e w + X o o h CXCXCXCXCXCXCXCX",
"CXCXCXCXCXCXCXCXN y S m n a n N x 4 P T &.oXoXXXqXXX=X:XwXwXwX,X,X=X;XyXlXkXuXXXU.K.I.&.=.Y 4 % O e e w + X   o CXCXCXCXCXCXCXCX",
"CXCXCXCXCXCXCXG.g A Z C m n h 0 4 I R *.S.uXcXkXeXwX{.~.^.W.Q./..XoXoXoXuXsXlXlXwX}.J.<.=.=.W 5 & O e d w O o o * CXCXCXCXCXCXCX",
"CXCXCXCXCXCXCXx t.CXCXZ C V q < I ` *.<.U.rXkXbX<X}.E.Y.d.f.f.1.1.f.I.(.fXvXlXbXlXyX|.U.H.<.=.T < ; O d e w O o o s CXCXCXCXCXCX",
"CXCXCXCXCXCXu.B CXCXCXCXy.x 1 I 0.<.J.|.yXcXzXuX.XY.f.2.>.:.;.;.;.=.;.:.f.oXhXnXzXbXpX*X^.K.<.-.Y < > + p d # + o % CXCXCXCXCXCX",
"CXCXCXCXCXCXz CXCXCXCXCXr.5 U R F.uXsXkXcXuX/.<.f.).:.6.o.o.......] ....o.=.D.+XnXmXsXuX-X!.T.I.,.I 4 % r p m CXu o t CXCXCXCXCX",
"CXCXCXCXCXp.i.CXCXCXCXCX0 P W *.oXzX:X:X}.P.d.:.:.6.X.] O.[ ^ ^ ^ ^ ^ / / ..` 6.].hXnXuXeX-XtX/.Y.-.P 3 * p CXCXC % % CXCXCXCXCX",
"CXCXCXCXCXr.CXCXCXCXCXw., Y *.U.bXcXyX}.E.>.;._ X.O.^ { ^ H H G G G G ( ( ~ [ ..7.].jXfXuXwX,XQ.T.I.T < ; r C CXp 7 % s CXCXCXCX",
"CXCXCXCXCXCXCXCXCXCXCX5 U 0.S.tX:XeXvXnXgX9.....{ ^ H H G G G G G G G G G G ^ [ ] 6.2X4XtXuX=X=XU.[.-.U 3 - a D s e = = CXCXCXCX",
"CXCXCXCXp.CXCXCXCXCXe.L T 4..XuX,XQ.fXjX2X5./ [ +.s.c.v.b.b.j.s./ ( G G G G H ^ ) [ k.3XOXfX<X&X{.XXOXE P ; d m n a t = A CXCXCX",
"CXCXCXCXZ.CXCXCXCXCX0 I &.K.}.;X;XE.f.>.o.@.z.M.M.M.z.z.z.8X8X9X7Xl.[ ( ( J G ^ | ^ O.`.'.OXhX{.*XwXtX3.I 3 t m m n s = j CXCXCX",
"CXCXCXCXCXCXCXCXCXG., T 4./.%X*X Xd.:._ h.V.b.b.s.s.$.8.h.x.#X0X0X0X`.8./ ~ G G } } ~ 8._.'.fX|.,XlX.XF.E 8 q n F m n y t CXCXCX",
"CXCXCXZ.CXCXCXCXCXw.P ` A.oX%X!.(.f.;.l.N.s.$.#.| O.X.@.`.k._.2X5XjX0X9X5.) ~ ( G H ^ ) l.$X4X4XeXpX|.S.*.I 6 h F A S s 7 CXCXCX",
"CXCXCXu.CXCXCXCXCX5 Y =.K.1X;XW.P.>.k.7Xb.#.s.+.j.l.h.k.k.).'.OX2XjXjX2X9.....~ ^ G ^ ^ 8.#XOXfX}.>X{.oX4Xk.8 j F F A m q u.CXCX",
"CXCXCXZ.CXCXCXCXCX, T 4.U.>X*XE.f.f.@Xx.b.s.s.[ 8.h.k.2.2.Y.T.+X4X+XhXgXk.=.../ ^ G G G %.x.'.4XU.&X;XrXT.#X@.j CXCXMXF g V CXCX",
"CXCXCXCXCXCXCXCXp., E <.W.-X~.E.f.`.7Xn.c.s.$.%.o._ 1.Y.T.[.oX|. X X+XmX4X1._ ..~ ^ G G [ x.].gXY.~.,XuX.X'.O.l CXCXCXCXj B CXCX",
"CXCXCXCXCXCXCXCXw.U &.<.Q.*X^.d.f.#X7Xb.+.c.$.X.o.2.4XnX+X[.yXkXcXyX<XmXnX).=.o./ ~ G G ^ x._.2XI.~.-X;X[.I.I 9 CXCXCXCXB z CXCX",
"CXCXp.CXCXCXCXCX! U &.g.&X%XR.d.).x.n.+. .+.[ ..5.3XhXmXbXbXkXkXcXcXeXuXhX.X:._ ../ ^ G { z.h.).P.W.-X1XT.*.U 0 CXCXCXCXt.z CXCX",
"CXCXr.CXCXCXCXCX9 I &.H.{.%XR.d.'.`.z.{ #.+./ .._.5XhXzXcXxXxXkXpXkXyX:X<X/.>._ ../ ^ G | z.h.k.d.R.*X&XH.*.W 5 CXCXCXCXC.v CXCX",
"CXCXr.CXCXCXCXCX6 Y =.H.&X*XR.d.3X9X@.} c.} { o.2X].qXvXxXxXcXpXpXpXyXtXtXE.>.' ..) | { +.z.l.).f.R.%X!.K.2.7.! CXCXCXCXCXv CXCX",
"CXCXv CXCXCXCXCX0 I =.H.&X%XR.d.3X#X%.| } ^ / 7.5XY.fXmXxXxXkXiXyXpXiXuX<Xd.>.;.../ [ } #.j.`.).f.R.6X!.H.,.7.! CXCXCXCXCXB CXCX",
"CXCXz u.CXCXCXCX5 I &.H.&X%X^.P.5X#X$.^ H ^ ^ 7.).I.hXhXkXxXkXkXpXkXdX|.J.d.>.' ../ H } #.z.7X2.d.E.%X!.g.*.` ! CXCXCXCXCXr.CXCX",
"CXCXz A CXCXCXCX9 I &.H.&X=XR.(.5X9Xl.^ ^ H ( ..k.2XhXoXuXxXkXkXaXwX:X.Xd.f.:._ ] ~ ^ +.s.x.@X:.d.R.%X~.g.=.` ! CXCXCXCXCXu.CXCX",
"CXCXz N CXCXCXCX0 P ` <.^.-X^.fXjX`.j.^ } H ( ] k.3XjXoXfXlXtXtX,X&XW.E.d.>.' ` ] [ +.v.z.8Xl.,.Y.&X%X^.<.*.Y e.CXCXCXCXCXCXCXCX",
"CXCXB j MXCXCXCXl , R <.R.%X!.hXjX_.h.{ } ^ ( ( 8.#XjX5XOXoX[.<X XR.d.d.f.;._ ..%.#.#.s.M.@X6.Y.<X1X>XQ.L.5.P G.CXCXCXCXCXCXCXCX",
"CXCXV g C F CXCXj P 6.,.J.%X%XlXnX'.7.%.^ ^ G ^ %.k.#X3XI.I.I.Y.(.P.f.>.' ' @.h.z.#.| s.8Xk.h.].E.&X:X XI.E 8 CXCXCXCXCXi.CXCXCX",
"CXCXu.7 M A F C.k Q k.]./.Q.=XlXmX4Xk.5.^ } G G ^ 8.7.'.2X5X].2.:.:.>.' >.l.x.N.s. .#.V.N.' 2.d.W.=X;XU.-.I 9 CXCXCXCXCXi.CXCXCX",
"CXCXCX: s m A F h 6 I -.T.W.%XpXmXhX_.7.[ [ G G ( %.8.7.`.#X_.k.' ;.6.h.h.x.n.s.{ %.z.N.7.;.1.E.~.>X XL.&.8 w.CXCXCXCXCXVXCXCXCX",
"CXCXCXg 7 c m A n y 4 T 3.J.{.eXvXmXOX9.8.%.} G G G %.n.7X@X#X7Xl.l.l.x.b.N.M.s.s.c.N.h.' ,.d.^.-XtXU.-.W , CXCXCXCXCXCXCXCXCXCX",
"CXCXCXk ; s f m m u 2 I -..X}.:XvXmXfXD.l.X.%.^ G G G | n.8X8X8X8X8X8X8XB.B.M.M.M.N.j.' ;.I.tXdXwX}.A.*.I ! CXCXCXCXCXu.CXCXCXCX",
"CXCXCXi.= 7 p f m p ; , 5.Y./.|.kXxXnXY.).6.O.%.( G G G H +.b.M.B.B.B.B.B.B.V.V.z.h.' ' f.<XtX,X{.J.3...< a.CXCXCXCXCXp.CXCXCXCX",
"CXCXCXCX7 = e p D a - 2 Q 3.T.U.wXxXvXqXf.).6.X.[ ( J G G G G  .M.B.B.B.B.V.b.8.X.' >.1.g.tX,X=XQ.<.&.I 9 CXCXCXCXCXi.CXCXCXCXCX",
"CXCXCXCXz % - s CXCXe ; 4 E -.I.Q.pXxXvX XY.'.6.X.../ ^ ^ G ^ } #.c.m.v.s.@.@.7.h.f.f.E.W.>XwXXXoX-.I 8 r.CXCXCXCXCXr.CXCXCXCXCX",
"CXCXCXCXCX= % m CXCXs + ; 8 0.3.U.{.kXxXzX.X(._.>.o.o.../ / [ [ [ [ [ %.@.6.l.'._.I.(..X%X*X}./.Y.E 8 9 CXCXCXCXCXr.Z.CXCXCXCXCX",
"CXCXCXCXCXk o 7 C D d e @ 2 P =.D.S.XXcXxXsX}.T.'.I.=._ _ ..X.X.` o.7.6.h.2.).(./..X1X,X,X!.<XOX&.P 0 A CXCXCXCXCXz CXCXCXCXCXCX",
"CXCXCXCXCXCX% & O + e p $ % 2 I &.3.S.XXcXxXbX|.(..XY.1.:.:.;.;.9.).f.1.1.d..X/.&X:X=XaXrXA.3.D.T < z Z MXCXCXCXk i.CXCXCXCXCXCX",
"CXCXCXCXCXCXA & . O # e i # & 2 I R ,.A.|.kXxXkXXX}..XU.P.f.d.P.'.(.I.d.P.E.~.-X,X*X{.rXqX*.E Y 5 g M C Z G.CXB z CXCXCXCXCXCXCX",
"CXCXCXCXCXCXCXu . X O # e i O & 2 U W &.4.U.uXcXcXeX=X=X1X}.W.~.<X X&XW.6X6X%X%X{.W.K.L.Y.&.] 8 l h n M S Z V y CXCXCXCXCXCXCXCX",
"CXCXCXCXCXCXCXCX* . X O # e d # > 2 , Y 0.*.S.XXlXcXpXwX>X-X-X-X>X-X*X*X&X&X{.Q.Q.I.<.*.5.) ! z m n h n m N q V CXCXCXCXCXCXCXCX",
"CXCXCXCXCXCXCXCXCXo . o O # e d w % ; < U T 0.*.F.uXzXvXlXpXaXdXwXwX:X<XoX1X X/.S.2.k.8.[ q.t.y.C m n h h : j CXCXCXCXCXCXCXCXCX",
"CXCXCXCXCXCXCXCXCXy.o . X X # e p e - = 2 K U W 0.D.[.hXzXvXvXzXzXtX X[.(.Y.I._.`.`.$.! p.CXCXNXZ C m h = q CXCXCXCXCXCXCXCXCXCX",
"CXCXCXCXCXCXCXCXCXCXS o . X O # e p a e - ; 2 K 8 8 T &.D.OX4XgXgXgX5X5X5X3X$Xx.h.| i.CXCXCXCXCXMXG.M : u CXCXCXCXCXCXCXCXCXCXCX",
"CXCXCXCXCXCXCXCXCXCXCXA . . X O + m CXMXa p e 7 q 4 < P Q P T E 5.6.7.o.O.) ) a.CXCXCXCXCXCXCXCXCXV : k CXCXCXCXCXCXCXCXCXCXCXCX",
"CXCXCXCXCXCXCXCXCXCXCXCXCX@ . . O Z CXCXa m m m M b j x l 0 9 9 0 9 q.e.VXCXCXCXCXCXCXCXCXCXCXCXN q V CXCXCXCXCXCXCXCXCXCXCXCXCX",
"CXCXCXCXCXCXCXCXCXCXCXCXCXCXt o . * M p p D m A F CXCXCXCXCXCXCXCXCXCXCXCXCXCXCXCXCXCXCXCXCXCXj z CXCXCXCXCXCXCXCXCXCXCXCXCXCXCX",
"CXCXCXCXCXCXCXCXCXCXCXCXCXCXCXZ * . o * e p f m C F CXCXCXCXCXCXCXCXCXCXCXCXCXCXCXCXCXCXCXV j BXCXCXCXCXCXCXCXCXCXCXCXCXCXCXCXCX",
"CXCXCXCXCXCXCXCXCXCXCXCXCXCXCXCXCXM = o @ - i c m A F CXCXCXCXCXCXCXCXCXCXCXCXCXCXCXCXt.z CXCXCXCXCXCXCXCXCXCXCXCXCXCXCXCXCXCXCX",
"CXCXCXCXCXCXCXCXCXCXCXCXCXCXCXCXCXCXCXV 7 % % = u n C MXCXCXCXCXCXCXCXCXCXCXCXCXCXV p.CXCXCXCXCXCXCXCXCXCXCXCXCXCXCXCXCXCXCXCXCX",
"CXCXCXCXCXCXCXCXCXCXCXCXCXCXCXCXCXCXCXCXCXCXc t - = - y j N V y.NXCXCXNXu.r.t.CXCXCXCXCXCXCXCXCXCXCXCXCXCXCXCXCXCXCXCXCXCXCXCXCX",
"CXCXCXCXCXCXCXCXCXCXCXCXCXCXCXCXCXCXCXCXCXCXCXCXCXCXt.V b k k z v V u.CXCXCXCXCXCXCXCXCXCXCXCXCXCXCXCXCXCXCXCXCXCXCXCXCXCXCXCXCX",
"CXCXCXCXCXCXCXCXCXCXCXCXCXCXCXCXCXCXCXCXCXCXCXCXCXCXCXCXCXCXCXCXCXCXCXCXCXCXCXCXCXCXCXCXCXCXCXCXCXCXCXCXCXCXCXCXCXCXCXCXCXCXCXCX",
"CXCXCXCXCXCXCXCXCXCXCXCXCXCXCXCXCXCXCXCXCXCXCXCXCXCXCXCXCXCXCXCXCXCXCXCXCXCXCXCXCXCXCXCXCXCXCXCXCXCXCXCXCXCXCXCXCXCXCXCXCXCXCXCX"
};
