/* XPM */
static char *result[] = {
/* columns rows colors chars-per-pixel */
"64 64 245 2 ",
"   c #08090B",
".  c #11100E",
"X  c #030C19",
"o  c #070C13",
"O  c #0A131C",
"+  c #121414",
"@  c #1B1B16",
"#  c #1C1B1A",
"$  c #181515",
"%  c #120D0B",
"&  c #27130C",
"*  c #35130B",
"=  c #241C18",
"-  c #361C15",
";  c #2D0D07",
":  c #28251A",
">  c #362619",
",  c #322E0D",
"<  c #041223",
"1  c #04152B",
"2  c #0A1625",
"3  c #141B24",
"4  c #191926",
"5  c #031B3C",
"6  c #041833",
"7  c #030E21",
"8  c #361F23",
"9  c #1A2526",
"0  c #0D2537",
"q  c #19303B",
"w  c #2C2C2B",
"e  c #272425",
"r  c #372A26",
"t  c #393526",
"y  c #343333",
"u  c #393A3B",
"i  c #282F36",
"p  c #4B1A0D",
"a  c #49241A",
"s  c #552414",
"d  c #463917",
"f  c #652918",
"g  c #753815",
"h  c #422B25",
"j  c #46362B",
"k  c #56362A",
"l  c #483B35",
"z  c #553A34",
"x  c #572E23",
"c  c #663727",
"v  c #763725",
"b  c #633E32",
"n  c #2E4716",
"m  c #564919",
"M  c #705B1B",
"N  c #7A6915",
"B  c #524A29",
"V  c #4B473C",
"C  c #57403B",
"Z  c #524A2A",
"A  c #684136",
"S  c #714E31",
"D  c #756635",
"F  c #407E19",
"G  c #011F45",
"H  c #042144",
"J  c #02244C",
"K  c #0B294D",
"L  c #152C4B",
"P  c #012653",
"I  c #052A54",
"U  c #022B5C",
"Y  c #082A54",
"T  c #122955",
"R  c #163254",
"E  c #11334D",
"W  c #2A3747",
"Q  c #233953",
"!  c #012D63",
"~  c #042F67",
"^  c #013162",
"/  c #01326C",
"(  c #0E3667",
")  c #043B7B",
"_  c #053975",
"`  c #173D65",
"'  c #165457",
"]  c #15474F",
"[  c #314856",
"{  c #184576",
"}  c #2D6D71",
"|  c #1F5E74",
" . c #434343",
".. c #4D4C4B",
"X. c #454946",
"o. c #57514A",
"O. c #5D5C5C",
"+. c #575655",
"@. c #514F50",
"#. c #664B43",
"$. c #68584A",
"%. c #74554D",
"&. c #695E51",
"*. c #7B5B52",
"=. c #765650",
"-. c #6B6358",
";. c #796C5C",
":. c #72694A",
">. c #5A5C62",
",. c #516175",
"<. c #646463",
"1. c #6C6A69",
"2. c #796C62",
"3. c #7F7262",
"4. c #77716D",
"5. c #777876",
"6. c #6C7074",
"7. c #625F60",
"8. c #B93D1E",
"9. c #873A26",
"0. c #856613",
"q. c #977210",
"w. c #8B6506",
"e. c #A97B0C",
"r. c #88412B",
"t. c #96442E",
"y. c #894938",
"u. c #9B4A34",
"i. c #A64E36",
"p. c #A84F37",
"a. c #A64F38",
"s. c #A84F38",
"d. c #A75037",
"f. c #A95137",
"g. c #A65139",
"h. c #AB523A",
"j. c #B1553C",
"k. c #B5593E",
"l. c #947A32",
"z. c #A87033",
"x. c #D26826",
"c. c #8D5B4E",
"v. c #B65B42",
"b. c #BA5C42",
"n. c #B15741",
"m. c #AA5841",
"M. c #856357",
"N. c #8C7155",
"B. c #B5664D",
"V. c #807363",
"C. c #85766D",
"Z. c #9A7165",
"A. c #887D76",
"S. c #806D65",
"D. c #AB7869",
"F. c #B17F73",
"G. c #C96348",
"H. c #D3694D",
"J. c #DC6E52",
"K. c #D76F54",
"L. c #558F28",
"P. c #62A03B",
"I. c #6C895B",
"U. c #7FD647",
"Y. c #B88F16",
"T. c #B99825",
"R. c #CE8C14",
"E. c #D6AA13",
"W. c #E9AF0F",
"Q. c #CE952F",
"!. c #D6B72D",
"~. c #EDB32B",
"^. c #E0931E",
"/. c #FCD926",
"(. c #FBD728",
"). c #EFCD2C",
"_. c #DFC022",
"`. c #998652",
"'. c #A89B58",
"]. c #B7A85A",
"[. c #8A8579",
"{. c #96877D",
"}. c #948A68",
"|. c #BAAB72",
" X c #A9A17C",
".X c #C38A7E",
"XX c #EE9175",
"oX c #C8B472",
"OX c #E4B84C",
"+X c #FEE25B",
"@X c #D3C377",
"#X c #EBD977",
"$X c #F7DC58",
"%X c #91DB5F",
"&X c #043E82",
"*X c #054186",
"=X c #05438B",
"-X c #09478D",
";X c #064D9D",
":X c #074A96",
">X c #134F96",
",X c #2A5990",
"<X c #31639B",
"1X c #064FA2",
"2X c #0751A6",
"3X c #0951A5",
"4X c #0755AD",
"5X c #0956AE",
"6X c #0958AF",
"7X c #0957B1",
"8X c #0758B1",
"9X c #0958B1",
"0X c #0757B1",
"qX c #1153A1",
"wX c #336DB1",
"eX c #1E6AB4",
"rX c #757D82",
"tX c #667589",
"yX c #156BCB",
"uX c #2975CD",
"iX c #238F8C",
"pX c #308E90",
"aX c #30AEB0",
"sX c #478889",
"dX c #4E9292",
"fX c #539191",
"gX c #7A878F",
"hX c #4EA5A6",
"jX c #3982D6",
"kX c #2482EE",
"lX c #3787E3",
"zX c #438EE5",
"xX c #4291E9",
"cX c #35D0D0",
"vX c #3CE5E4",
"bX c #4CD3D4",
"nX c #73CAC9",
"mX c #45E9EA",
"MX c #56EAEB",
"NX c #5AF8F8",
"BX c #4BF1F2",
"VX c #64FEFE",
"CX c #66FAFA",
"ZX c #6DF2F3",
"AX c None",
/* pixels */
"AXAXAXAXAXAXAXAXAXAXAXAXAXAXAXAXAXAXAXAXAXAXAXAXAXAXAXAXAXAXAXAXAXAXAXAXAXAXAXAXAXAXAXAXAXAXAXAXAXAXAXAXAXAXAXAXAXAXAXAXAXAXAXAX",
"AXAXAXAXAXAXAXAXAXAXAXAXAXAXAXAXAXAXAXAXAXAXAXAXAXAXAXAXAXAXAXAXAXAXAXAXAXAXAXAXAXAXAXAXAXAXAXAXAXAXAXAXAXAXAXAXAXAXAXAXAXAXAXAX",
"AXAXAXAXAXAXAXAXAXAXAXAXAXAXAXAXAXAXAXAXAXAXAXAXAXAXAXAXAX{.AXAXAXAXAXAXAXAXAXAXAXAXAXAXAXAXAXAXAXAXAXAXAXAXAXAXAXAXAXAXAXAXAXAX",
"AXAXAXAXAXAXAXAXAXAXAXAXAXAXAXAXAXAXAX{.B.v.m.A 2.AXz n.n.v.v.r.x C 1.AXAXAXAXAXAXAXAXAXAXAXAXAXAXAXAXAXAXAXAXAXAXAXAXAXAXAXAXAX",
"AXAXAXAXAXAXAXAXAXAXAXAXAXA.M.M.M.C.5.b k.k.k.G.u.r - G.v.j.G.H.H.G.h.c S.AXA.AXAXAXAXAXAXAXAXAXAXAXAXAXAXAXAXAXAXAXAXAXAXAXAXAX",
"AXAXAXAXAXAXAXAXAXAXAXAXAXc.H.b.b.h.c c k.p.p.g.b.j.v G.h.a.p.p.j.b.G.H.v.A = c.{.AXAXAXAXAXAXAXAXAXAXAXAXAXAXAXAXAXAXAXAXAXAXAX",
"AXAXAXAXAXAXAXAXAXAXAXAXAXD.J.s.g.j.b.k.k.f.p.p.i.j.G.J.k.p.f.k.h.a.p.j.G.H.r.n.S AXAXAXAXAXAXAXAXAXAXAXAXAXAXAXAXAXAXAXAXAXAXAX",
"AXAXAXAXAXAXAXAXAXAXAXAXAXC.G.h.i.p.p.h.h.f.i.i.i.s.h.G.j.i.h.J.H.n.i.i.p.b.H.J.g.#.AXAXAXAXAXAXAXAXAXAXAXAXAXAXAXAXAXAXAXAXAXAX",
"AXAXAXAXAXAXAXAXAXAXAXAXAXS.m.s.d.d.i.s.s.i.p.p.s.i.i.p.p.p.i.j.n.j.s.p.p.p.s.k.h.x AXAXAXAXAXAXAXAXAXAXAXAXAXAXAXAXAXAXAXAXAXAX",
"AXAXAXAXAXAXAXAXAXAXAXAXAXM.g.s.j.k.f.g.s.p.p.p.p.i.i.i.p.p.p.i.s.p.i.i.s.p.i.s.s.f AXAXAXAXAXAXAXAXAXAXAXAXAXAXAXAXAXAXAXAXAXAX",
"AXAXAXAXAXAXAXAXAXAXAXAXAXA a.g.G.H.j.i.a.p.p.i.p.p.i.i.i.i.i.i.g.g.s.p.p.p.p.p.i.c 4.AXAXAXAXAXAXAXAXAXAXAXAXAXAXAXAXAXAXAXAXAX",
"AXAXAXAXAXAXAXAXAXAXAXAXAXb a.g.h.p.i.i.u.u.i.u.i.9.9.9.v v v v v 9.t.i.p.p.s.s.s.v o.AXAXAXAXAXAXAXAXAXAXAXAXAXAXAXAXAXAXAXAXAX",
"AXAXAXAXAXAXAXAXAXAXAXAXAXx p.s.u.9.f p a s s s p p p ; & & & & - * p f 9.u.p.s.a.9.j AXAXAXAXAXAXAXAXAXAXAXAXAXAXAXAXAXAXAXAXAX",
"AXAXAXAXAXAXAXAXAXAXAXAXAXh i.t.f * - l z z k k z z A M.Z.D.D.D.D.Z.%.r p f 9.u.d.r.r AXAXAXAXAXAXAXAXAXAXAXAXAXAXAXAXAXAXAXAXAX",
"AXAXAXAXAXAXAXAXAXAXAXAXAXk 9.s & k F.AXAXAXAXAXAXAXAXAXAXAXAXAXAXAXAX.Xl * f 9.u.t.> AXAXAXAXAXAXAXAXAXAXAXAXAXAXAXAXAXAXAXAXAX",
"AXAXAXAXAXAXAXAXAXAXAXAXAXl * % @ #.M.*.*.*.=.=.=.*.*.*.=.%.%.%.%.%.%.%.l % ; * c 9.> AXAXAXAXAXAXAXAXAXAXAXAXAXAXAXAXAXAXAXAXAX",
"AXAXAXAXAXAXAXAXAXAXAXAXAX-.q } } sXsXsXsXsXsXsXsXsXsXsXfXfXfXfXfXfXfXdX} O 1 1 & s 8 AXAXAXAXI.<.AXAXAXAXAXAXAXAXAXAXAXAXAXAXAX",
"AXAXAXAXAXAXAXAXAXAXAXAXAXI.pXAXAXAXAXAXAXAXAXAXAXAXAXAXAXAXAXAXAXAXAXAXnXL P U O * e AXAXAXrXAXAX7.5.AXAXAXAXAXAXAXAXAXAXAXAXAX",
"AXAXAXAXAXAXAXAXAXAXAXAXAXrXhXAXAXAXAXAXAXAXAXAXAXAXAXAXAXAXAXAXAXAXAXAXZX] P ~ 4 ; k AXAXI.AXAXAXAXAXAXAXAXAXAXAXAXAXAXAXAXAXAX",
"AXAXAXAXAXAXAXAXAXAXAXAXAXgXnXAXAXCXCXCXCXVXVXVXVXVXVXCXVXVXVXVXVXVXCXCXmX] G T c x.z.AXAXP. XAXu AXAXAXAXAXAXAXAXAXAXAXAXAXAXAX",
"AXAXAXAXAXAXAXAXAXAXAXAXAXgXnXAXAXCXVXVXCXVXCXNXCXCXVXVXVXVXVXVXVXVXVXVXvX' J T M ~.^.AX[.n X.<.7. . .1.AXAXAXAXAXAXAXAXAXAXAXAX",
"AXAXAXAXAXAXAXAXAXAXAXAXAXAXnXAXAXVXVXCXVXZXaX} } bXVXVXVXVXVXVXVXVXVXVXmX' J T c ~.^..XO.i AXAXAXAXAXO.AXAXAXAXAXAXAXAXAXAXAXAX",
"AXAXAXAXAXAXAXAXAXAXAXAXAXAXnXAXAXVXCXCXNXpX{ eX{ ] bXVXVXVXVXVXVXVXVXNXvX' K T c ~.^.v t P.AXAX1.AXAXAXAXAXAXAXAXAXAXAXAXAXAXAX",
"AXAXAXAXAXAXAXAXAXAXAXAXAXAXnXAXAXVXCXNXhX{ uXuXyXK pXCXVXVXVXVXVXVXVXBXcX] G T m W.x.g : L.%XAX>.AXAXAXAXAXAXAXAXAXAXAXAXAXAXAX",
"AXAXAXAXAXAXAXAXAXAXAXAXAXAXhXAXZXNXNXBX' >XkXkXyX/ ' MXVXVXVXVXVXVXNXBXcX] J ^ 8 g 9.z.B F U.AXAXAX8.%.AXAXAXAXAXAXAXAXAXAXAXAX",
"AXAXAXAXAXAXAXAXAXAXAXAXAXAX' hXaXaXaXpXE qXkXuX4X_ E MXNXNXVXNXVXVXNXBXcXE I ^ 6 3 , l.t : F '.H.8.s t AXAXAXAXAXAXAXAXAXAXAXAX",
"AXAXAXAXAXAXAXAXAXAXAXAXAXAXX.q X. ...u 2 3XyXyX8X_ 9 pXcXbXmXmXmXBXmXvXaX0 I J O < t `.'.Z y B s x , D I.AXAXAXAXAXAXAXAXAXAXAX",
"AXAXAXAXAXAXAXAXAXAXAXAXAXAXO.h AXAXAXC.e _ =X*X) 0 o 9 [ ' ' } iXiXiXiX' o 2 X o o , '.@XV X. .D @XoXm j AXAXAXAXAXAXAXAXAXAXAX",
"AXAXAXAXAXAXAXAXAXAXAXAXAXAX# r AXAX.XC w i u i u 9   : r z #.h l #.#.$.$.M.Z.k % + @ : $.}.$.-.|.AXAX]., +.AXAXAXAXAXAXAXAXAXAX",
"AXAXAXAXAXAXAXAXAXAXAXAXAX..w w C %.r +.AXAXAXAXAX5.+ : . $ e r w =.F.AXAXAXXXy.@ w y w @ '.#X#X+X+X+X$XN V AXAXAXAXAXAXAXAXAXAX",
"AXAXAXAXAXAXAXAXAXAXAXAXAXy V y w ..u 7.AX5.<.AXAXAX# $ =  .7.6.1...u C :.M.y.> + 9 O.+.@ m !.(././././.E.$.AXAXAXAXAXAXAXAXAXAX",
"AXAXAXAXAXAXAXAXAXAXAXAXAXy u 1.5.<.y +.AXrXAXAX5.AX# + w @.X. .@.7.<.&.+...X.X.u ..O.y o o m _././././.~.:.AXAXAXAXAXAXAXAXAXAX",
"AXAXAXAXAXAXAXAXAXAXAXAXAXX.w X. .w $ y AXAX<.AXAXAX$ # % # = & # e y u ..@.@... .u w + 1 J O N (./././.E.`.AXAXAXAXAXAXAXAXAXAX",
"AXAXAXAXAXAXAXAXAXAXAXAXAXAX..&.@.w   O O.AX6.AXAXO.+ #   h c.Z.Z.v = . + # e e e $ O K _ _ J : T./././.E.}.AXAXAXAXAXAXAXAXAXAX",
"AXAXAXAXAXAXAXAXAXAXAXAXAXAXAXAXAXAX3 H   o + # > r - > c D.XXXXJ.b.- 7 K 5 1 1 1 H _ 3X4X=X_ 1 N /././.T.{.AXAXAXAXAXAXAXAXAXAX",
"AXAXAXAXAXAXAXAXAXAXAXAXAXAXAXAXAXgXY ^ X ! Y 2 8 c u.h.b.G.b.y.b w T -X5X2X2X-X( ;X5X7X4X4X*XG , !.).!.0.AXAXAXAXAXAXAXAXAXAXAX",
"AXAXAXAXAXAXAXAXAXAXAXAXAXAXAXAXAX[ / ~ X *X5X:X_ U L i i i 0 T / -X1X6X7X7X7X3XU *X6X7X7X5X1XU + D D D : AXAXAXAXAXAXAXAXAXAXAX",
"AXAXAXAXAXAXAXAXAXAXAXAXAXAXAXAXAXR ) U X -X7X7X0X0X2X1X;X1X1X5X5X7X6X6X7X7X7X7X/ J qX7X7X7X1X/ O t D j t AXAXAXAXAXAXAXAXAXAXAX",
"AXAXAXAXAXAXAXAXAXAXAXAXAXAXAXAXrXI &XU X -X7X7X7X7X7X7X6X6X6X9X7X8X8X8X8X8X7X7X=X6 ) 5X5X7X2X) 5 : D t V AXAXAXAXAXAXAXAXAXAXAX",
"AXAXAXAXAXAXAXAXAXAXAXAXAXAXAXAX,.! ) ( X =X8X7X7X5X7X3X_ ( *X3X6X8X8X8X8X7X7X7X1XK J 2X5X7X1X_ H = D m 1.AXAXAXAXAXAXAXAXAXAXAX",
"AXAXAXAXAXAXAXAXAXAXAXAXAXAXAXAX[ ! ( ! X &X7X7X9X9X7X( X.>.W ` 5X7X8X8X8X8X0X0X4X_ 1 -X5X5X;X_ J , R.Y.AXAXAXAXAXAXAXAXAXAXAXAX",
"AXAXAXAXAXAXAXAXAXAXAXAXAXAXAXAXW 1 G G o &X7X7X7X8X:X[ AXAXAXR 3X7X8X8X8X0X6X6X4X;X6 / 5X1X&X~ G , E.e.AXAXAXAXAXAXAXAXAXAXAXAX",
"AXAXAXAXAXAXAXAXAXAXAXAXAXAXAXAX,X<XL $ o ) 7X7X8X9X=X>.AX>.AXQ ;X8X8X8X8X7X7X6X6X4XP H -X/ Y 6 7 d E.q.AXAXAXAXAXAXAXAXAXAXAXAX",
"AXAXAXAXAXAXAXAXAXAXAXAXAXAXAXAXwXzXjX{ o ) 7X7X7X7X;XW AXAX6.T 3X7X8X8X8X7X7X8X0X1XY X 5 6 0 ` ` m E.l.AXAXAXAXAXAXAXAXAXAXAXAX",
"AXAXAXAXAXAXAXAXAXAXAXAXAXAXAXAXwXzXzXwX7 _ 9X9X9X9X5X_ L W R -X8X8X0X8X8X8X7X8X6X*X! 1 L ,XuXzXwXM E.N.AXAXAXAXAXAXAXAXAXAXAXAX",
"AXAXAXAXAXAXAXAXAXAXAXAXAXAXAXAXwXzXzXwX2 _ 6X7X7X9X7X5X;X:X3X7X7X8X0X7X8X8X7X7X4X) I K wXzXxXxX,XM W.|.AXAXAXAXAXAXAXAXAXAXAXAX",
"AXAXAXAXAXAXAXAXAXAXAXAXAXAXAXAX<XuXlXuX2 _ 6X6X7X8X9X8X9X9X6X8X9X7X7X7X0X7X7X7X1X_ G ,XzXzXlXlX| 0.q.AXAXAXAXAXAXAXAXAXAXAXAXAX",
"AXAXAXAXAXAXAXAXAXAXAXAXAXAXAXAXAX<X<XqX1 ~ qX5X6X6X9X5X7X6X6X0X7X6X5X3X1X;X;X:X=X/ G L <XlXlXuXT a t AXAXAXAXAXAXAXAXAXAXAXAXAX",
"AXAXAXAXAXAXAXAXAXAXAXAXAXAXAXAXAXAXAXAX@.P &X&X&X&X&X&X*X*X*X*X&X&X&X&X) _ _ / / / ^ 5 ( -X;X` 4 > l AXAXAXAXAXAXAXAXAXAXAXAXAX",
"AXAXAXAXAXAXAXAXAXAXAXAXAXAXAXAXAXAXAXAXAXR ~ ~ / / / _ / / / / / ~ ~ / / / / / / / / J X m B m N 0.[.AXAXAXAXAXAXAXAXAXAXAXAXAX",
"AXAXAXAXAXAXAXAXAXAXAXAXAXAXAXAXAXAXAXAXAX[ ~ / / / / / / / / / / / / ~ / / / / / / / I + Y._.~.W.Q.AXAXAXAXAXAXAXAXAXAXAXAXAXAX",
"AXAXAXAXAXAXAXAXAXAXAXAXAXAXAXAXAXAXAXAXAX,.~ / / / / / / / / / / / / ~ ~ / / / / / / I o 0.E.Y.T.AXAXAXAXAXAXAXAXAXAXAXAXAXAXAX",
"AXAXAXAXAXAXAXAXAXAXAXAXAXAXAXAXAXAXAXAXAXtX! ~ ! P U U ! U ^ ^ ^ ! ! ! Y U J J J P / P 2 V ;.{.AXAXAXAXAXAXAXAXAXAXAXAXAXAXAXAX",
"AXAXAXAXAXAXAXAXAXAXAXAXAXAXAXAXAXAXAXAXAXgXU ! 5 7 3 4 3 3 3 3 3 3 3 3 4 4 4 = . 1 / U >.AXAXAXAXAXAXAXAXAXAXAXAXAXAXAXAXAXAXAX",
"AXAXAXAXAXAXAXAXAXAXAXAXAXAXAXAXAXAXAXAXAXAX( U X y &.&.&.-.$.$.$.&.$.&.&.&.-.-.t 7 ! U 6.AXAXAXAXAXAXAXAXAXAXAXAXAXAXAXAXAXAXAX",
"AXAXAXAXAXAXAXAXAXAXAXAXAXAXAXAXAXAXAXAXAXAXR J o #.S.S.V.V.3.3.3.3.3.3.V.V.V.V.V X U ! gXAXAXAXAXAXAXAXAXAXAXAXAXAXAXAXAXAXAXAX",
"AXAXAXAXAXAXAXAXAXAXAXAXAXAXAXAXAXAXAXAXAXAX5 6 $ &.V.V.3.3.3.3.3.3.V.3.V.3.3.3.o.  P U AXAXAXAXAXAXAXAXAXAXAXAXAXAXAXAXAXAXAXAX",
"AXAXAXAXAXAXAXAXAXAXAXAXAXAXAXAXAXAXAXAXAXAX=   = ;.V.V.3.3.3.3.3.3.3.;.:.&.o.S m ; : 3 AXAXAXAXAXAXAXAXAXAXAXAXAXAXAXAXAXAXAXAX",
"AXAXAXAXAXAXAXAXAXAXAXAXAXAXAXAXAXAXAXOXE.q., = l ;.V.V.3.3.3.3.3.3.2.V : m w.e.R.Y.l.AXAXAXAXAXAXAXAXAXAXAXAXAXAXAXAXAXAXAXAXAX",
"AXAXAXAXAXAXAXAXAXAXAXAXAXAXAXAXAXAXAXAXAXAXAXAX$.$.;.V.V.3.3.3.3.3.3.-.$.:.;.`.oXAXAXAXAXAXAXAXAXAXAXAXAXAXAXAXAXAXAXAXAXAXAXAX",
"AXAXAXAXAXAXAXAXAXAXAXAXAXAXAXAXAXAXAXAXAXAXAXAXAXA.;.V.3.3.;.3.V.;.V.[.AXAXAXAXAXAXAXAXAXAXAXAXAXAXAXAXAXAXAXAXAXAXAXAXAXAXAXAX",
"AXAXAXAXAXAXAXAXAXAXAXAXAXAXAXAXAXAXAXAXAXAXAXAXAXAXAXAX{.A.C.3.C.[.AXAXAXAXAXAXAXAXAXAXAXAXAXAXAXAXAXAXAXAXAXAXAXAXAXAXAXAXAXAX",
"AXAXAXAXAXAXAXAXAXAXAXAXAXAXAXAXAXAXAXAXAXAXAXAXAXAXAXAXAXAXAXAXAXAXAXAXAXAXAXAXAXAXAXAXAXAXAXAXAXAXAXAXAXAXAXAXAXAXAXAXAXAXAXAX",
"AXAXAXAXAXAXAXAXAXAXAXAXAXAXAXAXAXAXAXAXAXAXAXAXAXAXAXAXAXAXAXAXAXAXAXAXAXAXAXAXAXAXAXAXAXAXAXAXAXAXAXAXAXAXAXAXAXAXAXAXAXAXAXAX"
};
