/* XPM */
static char *result[] = {
/* columns rows colors chars-per-pixel */
"64 64 242 2 ",
"   c #08080B",
".  c #16130C",
"X  c #040B13",
"o  c #030C19",
"O  c #0A0D13",
"+  c #0A121B",
"@  c #131414",
"#  c #1B1513",
"$  c #1B1B17",
"%  c #1C1C1B",
"&  c #13151A",
"*  c #130D0B",
"=  c #26160B",
"-  c #35130B",
";  c #261C17",
":  c #361B15",
">  c #2D0D07",
",  c #28251A",
"<  c #372719",
"1  c #302C0C",
"2  c #020D21",
"3  c #031224",
"4  c #0A1422",
"5  c #03142B",
"6  c #0C1827",
"7  c #141B24",
"8  c #181A27",
"9  c #021A3C",
"0  c #031833",
"q  c #361F23",
"w  c #1A2526",
"e  c #0B2539",
"r  c #182F3A",
"t  c #242323",
"y  c #2D2C2B",
"u  c #292628",
"i  c #392B26",
"p  c #373428",
"a  c #2C383B",
"s  c #343434",
"d  c #3A3A3B",
"f  c #232637",
"g  c #4C1A0D",
"h  c #552416",
"j  c #463215",
"k  c #652918",
"l  c #753815",
"z  c #432B25",
"x  c #48362A",
"c  c #55372A",
"v  c #4A3A35",
"b  c #553B34",
"n  c #542E23",
"m  c #673829",
"M  c #763726",
"N  c #6B3F31",
"B  c #294210",
"V  c #584A1A",
"C  c #725713",
"Z  c #7C6612",
"A  c #4B4327",
"S  c #564A28",
"D  c #4C473D",
"F  c #56423B",
"G  c #585334",
"H  c #6D5C2D",
"J  c #66463C",
"K  c #714F34",
"L  c #756635",
"P  c #407E19",
"I  c #011F45",
"U  c #042144",
"Y  c #02244C",
"T  c #0F284B",
"R  c #142C4B",
"E  c #012653",
"W  c #022B5D",
"Q  c #052A54",
"!  c #122955",
"~  c #14334E",
"^  c #28384B",
"/  c #012D63",
"(  c #032F68",
")  c #023162",
"_  c #01326C",
"`  c #0E3667",
"'  c #043B7B",
"]  c #053975",
"[  c #173D65",
"{  c #13444A",
"}  c #165457",
"|  c #174A53",
" . c #2F4D55",
".. c #194678",
"X. c #224977",
"o. c #2E6F74",
"O. c #1E7574",
"+. c #444343",
"@. c #4A4A48",
"#. c #574B45",
"$. c #575349",
"%. c #545352",
"&. c #5A5B5B",
"*. c #4D5252",
"=. c #634B43",
"-. c #68584A",
";. c #74554D",
":. c #6B5D54",
">. c #635D56",
",. c #7B5B52",
"<. c #765650",
"1. c #6A635A",
"2. c #75665A",
"3. c #6C6345",
"4. c #5A5C62",
"5. c #646363",
"6. c #6C6B6A",
"7. c #6A6763",
"8. c #766D65",
"9. c #7F7362",
"0. c #7C756D",
"q. c #797876",
"w. c #697273",
"e. c #5D6565",
"r. c #863B27",
"t. c #B83B1C",
"y. c #8B6407",
"u. c #8F6C10",
"i. c #A9740C",
"p. c #96442E",
"a. c #8A4934",
"s. c #9B4A34",
"d. c #8C412B",
"f. c #A64E36",
"g. c #A84F37",
"h. c #A64F38",
"j. c #A84F38",
"k. c #A75037",
"l. c #A95136",
"z. c #A55139",
"x. c #AB523A",
"c. c #B1553C",
"v. c #B5593E",
"b. c #BC4323",
"n. c #8A712D",
"m. c #92692A",
"M. c #D26826",
"N. c #885A4C",
"B. c #B55A41",
"V. c #BA5C42",
"C. c #AC5941",
"Z. c #876154",
"A. c #9A6B5A",
"S. c #B46950",
"D. c #807363",
"F. c #9A7165",
"G. c #827D78",
"H. c #AB7869",
"J. c #B17F73",
"K. c #C96348",
"L. c #D4694E",
"P. c #DF7053",
"I. c #D76F54",
"U. c #538F28",
"Y. c #5C8544",
"T. c #7FD647",
"R. c #B38209",
"E. c #B5951A",
"W. c #BFA51D",
"Q. c #C18902",
"!. c #D28C19",
"~. c #D8AB13",
"^. c #EAAF0F",
"/. c #D6B72D",
"(. c #EDB32C",
"). c #FCD926",
"_. c #FBD728",
"`. c #F0CD2C",
"'. c #DFC022",
"]. c #958655",
"[. c #A89B58",
"{. c #B7A85A",
"}. c #8B8674",
"|. c #B58876",
" X c #A9B372",
".X c #C38A7E",
"XX c #EE9175",
"oX c #C1B773",
"OX c #91DB5F",
"+X c #FEE25B",
"@X c #D3C377",
"#X c #EBD977",
"$X c #F7DC58",
"%X c #043F82",
"&X c #054186",
"*X c #05438B",
"=X c #09478D",
"-X c #064D9D",
";X c #074A96",
":X c #134E95",
">X c #275890",
",X c #064FA2",
"<X c #0751A6",
"1X c #0951A5",
"2X c #0755AD",
"3X c #0956AE",
"4X c #0958AF",
"5X c #0957B1",
"6X c #0758B1",
"7X c #0958B1",
"8X c #0757B1",
"9X c #1153A1",
"0X c #316BB0",
"qX c #2266A8",
"wX c #677282",
"eX c #156BCB",
"rX c #2975CE",
"tX c #238F8C",
"yX c #308E90",
"uX c #30AEB0",
"iX c #478889",
"pX c #4E9494",
"aX c #539191",
"sX c #4BA8AA",
"dX c #70C0BE",
"fX c #3982D6",
"gX c #2482EE",
"hX c #3787E3",
"jX c #438EE5",
"kX c #4291EA",
"lX c #35D0D0",
"zX c #3CE5E4",
"xX c #4CD3D4",
"cX c #72CACA",
"vX c #45E9EA",
"bX c #56EAEB",
"nX c #5AF8F8",
"mX c #4BF1F2",
"MX c #64FEFE",
"NX c #66FAFA",
"BX c #6DF2F3",
"VX c None",
/* pixels */
"VXVXVXVXVXVXVXVXVXVXVXVXVXVXVXVXVXVXVXVXVXVXVXVXVXVXVXVXVXVXVXVXVXVXVXVXVXVXVXVXVXVXVXVXVXVXVXVXVXVXVXVXVXVXVXVXVXVXVXVXVXVXVXVX",
"VXVXVXVXVXVXVXVXVXVXVXVXVXVXVXVXVXVXVXVXVXVXVXVXVXVXVXVXVXVXVXVXVXVXVXVXVXVXVXVXVXVXVXVXVXVXVXVXVXVXVXVXVXVXVXVXVXVXVXVXVXVXVXVX",
"VXVXVXVXVXVXVXVXVXVXVXVXVXVXVXVXVXVXVXVXVXVXVXVXVXVXVXVXVXVXVXVXVX8.:.:.:.q.VXVXVX2.#.F >.VXVXVXVXVXVXVXVXVXVXVXVXVXVXVXVXVXVXVX",
"VXVXVXVXVXVXVXVXVXVXVXVXVXVXVXVXVXVXVXVXVXVXVXVXVX6.VXVXVX7.b n a.B.c.c.x.n VX8.m z.B.z.c VXVXVXVXVXVXVXVXVXVXVXVXVXVXVXVXVXVXVX",
"VXVXVXVXVXVXVXVXVXVXVXVXVXVXVXVXVXVXVXVXVXVXVXVXz @.VX2.N h.K.L.L.K.B.B.K.- n s.K.V.c.V.m G.:.=.J =.#.VXVXVXVXVXVXVXVXVXVXVXVXVX",
"VXVXVXVXVXVXVXVXVXVXVXVXVXVXVXVXVXVXVXVXVXVXVX=.m : N V.L.K.V.B.f.j.j.c.V.K C.B.j.g.g.v.m m j.V.V.L.r.G.VXVXVXVXVXVXVXVXVXVXVXVX",
"VXVXVXVXVXVXVXVXVXVXVXVXVXVXVXVXVXVXVXVXVXVX6.M B.a.L.K.c.f.f.j.V.g.f.c.P.K.B.f.h.j.j.B.B.B.c.l.c.L.a.VXVXVXVXVXVXVXVXVXVXVXVXVX",
"VXVXVXVXVXVXVXVXVXVXVXVXVXVXVXVXVXVXVXVXVXVXz C.P.L.B.j.f.f.x.L.L.x.j.x.K.x.f.f.g.f.j.j.C.h.h.k.j.V.=.VXVXVXVXVXVXVXVXVXVXVXVXVX",
"VXVXVXVXVXVXVXVXVXVXVXVXVXVXVXVXVXVXVXVXVXVXn c.v.x.h.k.h.j.c.V.c.g.g.g.l.g.h.j.f.h.k.j.j.h.h.f.g.s.=.VXVXVXVXVXVXVXVXVXVXVXVXVX",
"VXVXVXVXVXVXVXVXVXVXVXVXVXVXVXVXVXVXVXVXVXVXh h.j.g.j.j.g.j.j.j.g.g.g.g.f.g.g.f.l.h.f.j.h.j.V.c.g.f.J VXVXVXVXVXVXVXVXVXVXVXVXVX",
"VXVXVXVXVXVXVXVXVXVXVXVXVXVXVXVXVXVXVXVXVXG.k h.g.g.k.f.f.l.x.j.j.j.f.f.g.g.k.k.g.f.g.h.f.c.K.K.g.f.n VXVXVXVXVXVXVXVXVXVXVXVXVX",
"VXVXVXVXVXVXVXVXVXVXVXVXVXVXVXVXVXVXVXVXVX1.M k.k.k.j.g.s.p.r.M M l M M r.r.d.p.f.f.s.s.f.f.j.c.k.f.n VXVXVXVXVXVXVXVXVXVXVXVXVX",
"VXVXVXVXVXVXVXVXVXVXVXVXVXVXVXVXVXVXVXVXVXD r.g.j.j.f.r.k g > : > > = > > g g g g h h g h k r.f.g.g.h VXVXVXVXVXVXVXVXVXVXVXVXVX",
"VXVXVXVXVXVXVXVXVXVXVXVXVXVXVXVXVXVXVXVXVXz d.l.f.r.k : z ;.F.H.H.H.H.F.Z.#.b b c c b F c : - h p.s.z VXVXVXVXVXVXVXVXVXVXVXVXVX",
"VXVXVXVXVXVXVXVXVXVXVXVXVXVXVXVXVXVXVXVXVXi r.f.r.k g v .XVXVXVXVXVXVXVXVXVXVXVXVXVXVXVXVXJ.x > h r.n VXVXVXVXVXVXVXVXVXVXVXVXVX",
"VXVXVXVXVXVXVXVXVXVXVXVXVXVXVXVXVXVXVXVXVX< r.k > > * v ;.;.;.;.;.;.<.<.,.,.,.<.<.<.,.,.,.Z.-.# * - D VXVXVXVXVXVXVXVXVXVXVXVXVX",
"VXVXVXVXVXVXVXVXVXVXVXVXVXVX7.@.$.G.VXVXVX, h = 5 0 + o.pXpXaXaXaXaXaXaXiXiXiXiXiXiXiXiXiXiXaXo.o.w 1.VXVXVXVXVXVXVXVXVXVXVXVXVX",
"VXVXVXVXVXVXVXVXVXVXVXVXVX@.&.VXVX5.1.VXVX, - + W E r cXVXVXVXVXVXVXVXVXVXVXVXVXVXVXVXVXVXVXVXVXVXyXVXVXVXVXVXVXVXVXVXVXVXVXVXVX",
"VXVXVXVXVXVXVXVXVXVXVXVX+.VXVXVXVXVX@.VXVX< > 8 ! E ~ bXVXVXVXVXVXVXVXVXVXVXVXVXVXVXVXVXVXVXVXVXVXsXq.VXVXVXVXVXVXVXVXVXVXVXVXVX",
"VXVXVXVXVXVXVXVXVXVXVXVX%.VXVXd VX XU.e.VXi.M.k ! Y | vXMXMXMXMXMXMXNXNXNXNXMXMXMXMXNXNXMXNXNXVXVXcXw.VXVXVXVXVXVXVXVXVXVXVXVXVX",
"VXVXVXVXVXVXVXVXVXVXVXVXs @.+.5.e.D B $.|.!.(.d.! E } vXMXMXMXMXMXMXMXMXMXMXMXNXNXNXNXNXMXMXNXVXVXcXw.VXVXVXVXVXVXVXVXVXVXVXVXVX",
"VXVXVXVXVXVXVXVXVXVXVXVXu VXVXVXVXVXp &.|.!.(.K ! Y } zXMXMXMXMXMXMXMXMXNXNXxXo.o.uXbXMXMXMXMXVXVXcXe.VXVXVXVXVXVXVXVXVXVXVXVXVX",
"VXVXVXVXVXVXVXVXVXVXVXVX>.VXVX6.VXVXU.s d.!.(.S ! Y { zXnXMXMXMXMXMXMXMXMXxX} ..qX..0XBXMXMXMXVXVXcX*.VXVXVXVXVXVXVXVXVXVXVXVXVX",
"VXVXVXVXVXVXVXVXVXVXVXVX$.VXVX>.VXOXU., l M.^.M ! Y { zXmXMXMXMXMXMXMXMXNXyXQ eXgXeX{ sXMXMXMXVXVXcX%.VXVXVXVXVXVXVXVXVXVXVXVXVX",
"VXVXVXVXVXVXVXVXVXVXVXVX- b.VXVXVXT.P S S.l l i W Y { lXmXnXMXMXMXMXNXnXbX} ` eXgXgX-X} nXnXnXMXVXsXw.VXVXVXVXVXVXVXVXVXVXVXVXVX",
"VXVXVXVXVXVXVXVXVXVXVX8.1 h t.K.{.U.B A L < # 6 / Q r lXmXnXnXMXMXMXNXNXbX{ _ 3XrXrX1X~ yXuXuXuXsX} VXVXVXVXVXVXVXVXVXVXVXVXVXVX",
"VXVXVXVXVXVXVXVXVXVXVXA L 1 c h x y A [.].p 3 3 Y W e uXvXvXvXvXvXvXvXlXyXe ] 3XeXeX9X6 a @.+.@.r *.VXVXVXVXVXVXVXVXVXVXVXVXVXVX",
"VXVXVXVXVXVXVXVXVXVX>.1 G {.@X3.v  .$.@X[.p   X o 4 X } tXtXtXtXO.} | a w   9 ] %X=X] 8 F.VXVXVXp 1.VXVXVXVXVXVXVXVXVXVXVXVXVXVX",
"VXVXVXVXVXVXVXVXVXVXy 1 {.VXVXoX3.$.].3.% $ @   c A.A.-.=.=.=.x x J b i ,   t d a a s y F .XVXVXp % VXVXVXVXVXVXVXVXVXVXVXVXVXVX",
"VXVXVXVXVXVXVXVXVXVXp Z $X+X+X+X#X#X[.$ y d u $ N.XXVXVXVXJ.<.i u u = * t # q.VXVXVXVXVX%.i ;.b y y @.VXVXVXVXVXVXVXVXVXVXVXVXVX",
"VXVXVXVXVXVXVXVXVXVXA /.).).).)._./.A $ *.e., . < K Z.,.F d *.7.0.4.^ , $ % VXVXVX1.wXVX5.d *.y s D y VXVXVXVXVXVXVXVXVXVXVXVXVX",
"VXVXVXVXVXVXVXVXVXVXS ^.).).).).'.V o + a >.*.d D @.@.%.4.7.5.%.+.+.*.y @ % VXq.VXVXG.VX&.s 5.w.6.d u VXVXVXVXVXVXVXVXVXVXVXVXVX",
"VXVXVXVXVXVXVXVXVXVXV ~.).).).`.u.+ Y 5 & y d +.@.*.@.@.+.y t ; ; % % * % $ VXVXVX5.VXVXs $ y +.+.u d VXVXVXVXVXVXVXVXVXVXVXVXVX",
"VXVXVXVXVXVXVXVXVXVXG ~.).).).W.% E _ ] U + $ t u u % @ * ; N H.H.N.z * $ + &.VXVX6.VX4.+   $ % % 8 VXVXVXVXVXVXVXVXVXVXVXVXVXVX",
"VXVXVXVXVXVXVXVXVXVXG E.).).).Z 5 ] *X2X1X' U 4 3 5 9 T 2 : V.P.XXXXS.m < ; < < $ & O X 9 3 >.VXVXVXVXVXVXVXVXVXVXVXVXVXVXVXVXVX",
"VXVXVXVXVXVXVXVXVXVX$.Z /.`.'.B U *X2X7X3X4X,X` ;X1X1X3X=XR y c a.V.S.V.C.s.m q 6 Q W o / Y +.VXVXVXVXVXVXVXVXVXVXVXVXVXVXVXVXVX",
"VXVXVXVXVXVXVXVXVXVXVX- H Z.L @ W -X6X6X7X3X&X/ 3X7X5X5X5X1X=X_ T f f f f R ! ' ;X1X=Xo ( _ 6 VXVXVXVXVXVXVXVXVXVXVXVXVXVXVXVXVX",
"VXVXVXVXVXVXVXVXVXVXVX, A 3.p + _ <X4X4X4X1XY ` 3X3X7X7X2X5X2X4X2X,X-X,X,X2X5X5X3X7X=Xo W ' I *.VXVXVXVXVXVXVXVXVXVXVXVXVXVXVXVX",
"VXVXVXVXVXVXVXVXVXVXVX, z H , I ] <X6X3X3X' 0 *X5X5X5X5X6X6X7X3X8X8X5X3X5X5X5X5X3X7X=Xo W &XE f VXVXVXVXVXVXVXVXVXVXVXVXVXVXVXVX",
"VXVXVXVXVXVXVXVXVXVXVXp S H ; I ' 1X4X2X1XY Y <X5X5X5X5X6X6X6X7X<X%X` ' 1X7X7X5X7X7X*Xo ) ' ( 8 VXVXVXVXVXVXVXVXVXVXVXVXVXVXVXVX",
"VXVXVXVXVXVXVXVXVXVXVX$.R.W.1 Y _ ,X3X3X=X5 ' 1X6X6X6X6X6X6X6X3X[ ^ 4.@.` 5X5X5X5X5X%X2 ! _ / 6 VXVXVXVXVXVXVXVXVXVXVXVXVXVXVXVX",
"VXVXVXVXVXVXVXVXVXVXVX>.i.~.1 I _ ' ,X3X_ 0 -X7X3X5X8X6X6X6X7X1X~ VXVXVX .;X5X5X5X5X%Xo I I 0 4 VXVXVXVXVXVXVXVXVXVXVXVXVXVXVXVX",
"VXVXVXVXVXVXVXVXVXVXVX0.y.~.j X 9 E _ =XU E <X5X3X7X5X6X6X6X7X-X^ VX&.VX4.&X5X5X7X7X' X O ! >XX.VXVXVXVXVXVXVXVXVXVXVXVXVXVXVXVX",
"VXVXVXVXVXVXVXVXVXVXVXVXC ^.V [ [ e 0 9 o Q -X7X6X5X5X6X6X6X5X<X! w.VXVX^ -X5X5X7X7X' X X.fXjX0XVXVXVXVXVXVXVXVXVXVXVXVXVXVXVXVX",
"VXVXVXVXVXVXVXVXVXVXVXVXV ~.V qXjXfX>XR 5 ( *X2X6X5X6X6X6X6X6X8X;X~ ^ ^ ] 3X5X5X7X4X' 4 0XkXjX0XVXVXVXVXVXVXVXVXVXVXVXVXVXVXVXVX",
"VXVXVXVXVXVXVXVXVXVXVXVXV ^.Z >XjXkXkX0X! Q ' <X5X8X6X6X6X6X7X5X5X<X;X,X3X3X7X7X4X4X] 4 0XkXjXqXVXVXVXVXVXVXVXVXVXVXVXVXVXVXVXVX",
"VXVXVXVXVXVXVXVXVXVXVXVX-.i.y.>XhXjXkXjX>XU ] ,X5X5X5X5X5X8X6X8X5X5X7X7X5X5X5X5X3X3X] 4 rXhXrX>XVXVXVXVXVXVXVXVXVXVXVXVXVXVXVXVX",
"VXVXVXVXVXVXVXVXVXVXVXVX7.= < ~ rXhXhX>XR U _ *X;X-X-X,X1X2X2X2X5X5X5X5X5X5X5X3X3X1X( 6 :X>X=Xw.VXVXVXVXVXVXVXVXVXVXVXVXVXVXVXVX",
"VXVXVXVXVXVXVXVXVXVXVXVXVX# < w | -X:X` 0 W _ _ _ ] ] ' ' ' %X%X&X*X%X*X&X&X&X&X%X%XY O *.VXVXVXVXVXVXVXVXVXVXVXVXVXVXVXVXVXVXVX",
"VXVXVXVXVXVXVXVXVXVXVXVXVX< y.Z S A x + Y _ _ _ _ _ _ _ _ _ _ _ _ _ _ ( _ _ _ _ _ _ 0 u VXVXVXVXVXVXVXVXVXVXVXVXVXVXVXVXVXVXVXVX",
"VXVXVXVXVXVXVXVXVXVXVXVXVX#.u.^.^.`.E.. E _ _ _ _ _ _ _ _ _ _ _ _ _ _ _ _ _ ( _ _ ( 5 %.VXVXVXVXVXVXVXVXVXVXVXVXVXVXVXVXVXVXVXVX",
"VXVXVXVXVXVXVXVXVXVXVXVXVXVXj y.R.W.u.O E _ _ _ _ _ ( _ _ _ _ _ _ _ _ _ _ _ _ ( ( ( 5 6.VXVXVXVXVXVXVXVXVXVXVXVXVXVXVXVXVXVXVXVX",
"VXVXVXVXVXVXVXVXVXVXVXVXVXVX@., # = .   E _ E U I E E W / / ) ) ) W ) / W E E / ( / 2 6.VXVXVXVXVXVXVXVXVXVXVXVXVXVXVXVXVXVXVXVX",
"VXVXVXVXVXVXVXVXVXVXVXVXVXVXVX6.*.@.y O W _ 0 @ t 8 % 7 7 7 7 7 7 7 7 7 7 7 4 9 _ / 2 G.VXVXVXVXVXVXVXVXVXVXVXVXVXVXVXVXVXVXVXVX",
"VXVXVXVXVXVXVXVXVXVXVXVXVXVXVXVXVXq.%.+ W / + p :.2.:.>.>.-.-.-.-.-.:.-.:.>.x o / E & VXVXVXVXVXVXVXVXVXVXVXVXVXVXVXVXVXVXVXVXVX",
"VXVXVXVXVXVXVXVXVXVXVXVXVXVXVXVXVXVX6.+ / W O D D.D.9.9.D.D.9.9.9.D.9.D.9.D.$.O Y I % VXVXVXVXVXVXVXVXVXVXVXVXVXVXVXVXVXVXVXVXVX",
"VXVXVXVXVXVXVXVXVXVXVXVXVXVXVXVXVXVXG.4 W E O $.D.D.9.D.9.9.D.9.9.9.9.9.9.D.1.$ 0 3 t VXVXVXVXVXVXVXVXVXVXVXVXVXVXVXVXVXVXVXVXVX",
"VXVXVXVXVXVXVXVXVXVXVXVXVXVXVXVXVXVXVX+ 7 , - A K G 3.2.2.9.9.D.9.9.D.9.9.D.2.,   . < G }.VXVXVXVXVXVXVXVXVXVXVXVXVXVXVXVXVXVXVX",
"VXVXVXVXVXVXVXVXVXVXVXVXVXVXVXVXVXVXVX6.p C R.Q.i.y.j < D 2.D.9.9.9.9.9.D.D.2.x ; 1 y.R.Q.R.m.3.VXVXVXVXVXVXVXVXVXVXVXVXVXVXVXVX",
"VXVXVXVXVXVXVXVXVXVXVXVXVXVXVXVXVXVXVXVXVX9.u.m.H L 1.7.8.D.D.D.9.9.9.D.D.D.-.G #.+.S u.m.].VXVXVXVXVXVXVXVXVXVXVXVXVXVXVXVXVXVX",
"VXVXVXVXVXVXVXVXVXVXVXVXVXVXVXVXVXVXVXVXVXVXVXVXVXVXVXVXVXVX}.q.0.0.9.D.D.2.=.>.0.VXVXVXVXVXVXVXVXVXVXVXVXVXVXVXVXVXVXVXVXVXVXVX",
"VXVXVXVXVXVXVXVXVXVXVXVXVXVXVXVXVXVXVXVXVXVXVXVXVXVXVXVXVXVXVXVXVXVXVXVXVXVXVXVXVXVXVXVXVXVXVXVXVXVXVXVXVXVXVXVXVXVXVXVXVXVXVXVX",
"VXVXVXVXVXVXVXVXVXVXVXVXVXVXVXVXVXVXVXVXVXVXVXVXVXVXVXVXVXVXVXVXVXVXVXVXVXVXVXVXVXVXVXVXVXVXVXVXVXVXVXVXVXVXVXVXVXVXVXVXVXVXVXVX",
"VXVXVXVXVXVXVXVXVXVXVXVXVXVXVXVXVXVXVXVXVXVXVXVXVXVXVXVXVXVXVXVXVXVXVXVXVXVXVXVXVXVXVXVXVXVXVXVXVXVXVXVXVXVXVXVXVXVXVXVXVXVXVXVX"
};
