/* XPM */
static char *result[] = {
/* columns rows colors chars-per-pixel */
"64 64 235 2 ",
"   c #04070B",
".  c #150B08",
"X  c #19140E",
"o  c #030A12",
"O  c #0B0E14",
"+  c #020D1B",
"@  c #070B17",
"#  c #0B121B",
"$  c #091119",
"%  c #121213",
"&  c #191817",
"*  c #120F10",
"=  c #250E07",
"-  c #2A170A",
";  c #331409",
":  c #3C190A",
">  c #261D16",
",  c #341B15",
"<  c #2D221A",
"1  c #272217",
"2  c #32251A",
"3  c #392916",
"4  c #393417",
"5  c #2E270A",
"6  c #010F26",
"7  c #041325",
"8  c #02142B",
"9  c #0A1727",
"0  c #181E26",
"q  c #021632",
"w  c #011B3A",
"e  c #071B34",
"r  c #211F20",
"t  c #112136",
"y  c #232323",
"u  c #2B2B2A",
"i  c #2A2926",
"p  c #382B27",
"a  c #3D3B3B",
"s  c #373436",
"d  c #303232",
"f  c #431A0B",
"g  c #47170B",
"h  c #581C0D",
"j  c #501E12",
"k  c #611F0E",
"l  c #621F11",
"z  c #4A380E",
"x  c #4B251B",
"c  c #442619",
"v  c #572619",
"b  c #4B3615",
"n  c #533207",
"m  c #61200E",
"M  c #642211",
"N  c #6B2918",
"B  c #7C341C",
"V  c #6F3214",
"C  c #472C23",
"Z  c #582D22",
"A  c #483929",
"S  c #463833",
"D  c #5D362A",
"F  c #663223",
"G  c #733323",
"H  c #7A3A28",
"J  c #396A13",
"K  c #5B4719",
"L  c #534912",
"P  c #795706",
"I  c #6B5913",
"U  c #694A0F",
"Y  c #564927",
"T  c #494437",
"R  c #564D31",
"E  c #6E5330",
"W  c #6D623E",
"Q  c #796B3E",
"!  c #7D733E",
"~  c #7E6723",
"^  c #716014",
"/  c #011D43",
"(  c #001F4A",
")  c #01224B",
"_  c #002145",
"`  c #012553",
"'  c #022A5B",
"]  c #032958",
"[  c #183150",
"{  c #012D64",
"}  c #012F68",
"|  c #013066",
" . c #01326C",
".. c #023573",
"X. c #053B78",
"o. c #1A3F6A",
"O. c #2A384A",
"+. c #2A4A6E",
"@. c #434443",
"#. c #4D4D4D",
"$. c #4B4645",
"%. c #544D4A",
"&. c #524A47",
"*. c #535353",
"=. c #5C5855",
"-. c #59585A",
";. c #57514C",
":. c #635E5A",
">. c #785C53",
",. c #6D6342",
"<. c #676044",
"1. c #7A6D41",
"2. c #746841",
"3. c #66615D",
"4. c #7C665E",
"5. c #676462",
"6. c #7A7876",
"7. c #6E6E70",
"8. c #54635C",
"9. c #863D07",
"0. c #843C27",
"q. c #8D3E2B",
"w. c #843826",
"e. c #903E2C",
"r. c #BE3818",
"t. c #C73D1D",
"y. c #8C5008",
"u. c #936803",
"i. c #917214",
"p. c #A97908",
"a. c #87412E",
"s. c #93422F",
"d. c #884433",
"f. c #954631",
"g. c #9E4A33",
"h. c #9A4835",
"j. c #9D5236",
"k. c #965326",
"l. c #A74F37",
"z. c #A84F37",
"x. c #A64E38",
"c. c #A94F39",
"v. c #A75037",
"b. c #A95137",
"n. c #A65139",
"m. c #AB513A",
"M. c #B3553D",
"N. c #B8583E",
"B. c #87773B",
"V. c #836A23",
"C. c #975E41",
"Z. c #BC5D43",
"A. c #B55A42",
"S. c #857A4D",
"D. c #AF6751",
"F. c #817E7C",
"G. c #9C7265",
"H. c #C15F43",
"J. c #C36145",
"K. c #CB644A",
"L. c #C7644A",
"P. c #D2694D",
"I. c #D5694D",
"U. c #D96D51",
"Y. c #DA714E",
"T. c #E47455",
"R. c #DF7A63",
"E. c #4E8F29",
"W. c #4D971E",
"Q. c #72D139",
"!. c #97841B",
"~. c #B78206",
"^. c #AB921C",
"/. c #96853A",
"(. c #B19830",
"). c #B9A034",
"_. c #CC950B",
"`. c #D89B04",
"'. c #C58C02",
"]. c #DAA811",
"[. c #E6A403",
"{. c #EBA904",
"}. c #F4AD04",
"|. c #F9AE04",
" X c #F6B309",
".X c #F7B609",
"XX c #EABA18",
"oX c #CDB22C",
"OX c #D9BA2B",
"+X c #D7B82A",
"@X c #CEB230",
"#X c #E1BA22",
"$X c #F7C819",
"%X c #FAD11F",
"&X c #E7C627",
"*X c #F3CE26",
"=X c #F3D126",
"-X c #FAD524",
";X c #FDD925",
":X c #FCD92B",
">X c #F5D429",
",X c #F4D52D",
"<X c #928350",
"1X c #86817D",
"2X c #978C77",
"3X c #99896C",
"4X c #AC8D72",
"5X c #BFB169",
"6X c #BAAD69",
"7X c #A1A54F",
"8X c #93E066",
"9X c #FBDF48",
"0X c #ECD34C",
"qX c #FDE35B",
"wX c #D8C875",
"eX c #EBD97B",
"rX c #FCE469",
"tX c #FFEA7E",
"yX c #034188",
"uX c #064C9B",
"iX c #1B5699",
"pX c #2D578A",
"aX c #0853A7",
"sX c #165DB0",
"dX c #1E60B1",
"fX c #316BAE",
"gX c #306BB0",
"hX c #486484",
"jX c #797E82",
"kX c #2C77CE",
"lX c #778392",
"zX c #3B8AE5",
"xX c #418EE5",
"cX c #4390E8",
"vX c None",
/* pixels */
"vXvXvXvXvXvXvXvXvXvXvXvXvXvXvXvXvXvXvXvXvXvXvXvXvXvXvXvXvXvXvXvXvXvXvXvXvXvXvXvXvXvXvXvXvXvXvXvXvXvXvXvXvXvXvXvXvXvXvXvXvXvXvXvX",
"vXvXvXvXvXvXvXvXvXvXvXvXvXvXvXvXvXvXvXvXvXvXvXvXvXvXvXvXvXvXvXvXvXvXvXvXvXvXvXvXvXvXvXvXvXvXvXvXvXvXvXvXvXvXvXvXvXvXvXvXvXvXvXvX",
"vXvXvXvXvXvXvXvXvXvXvXvXvXvXvXvXvXvXvXvXvXvXvXvXvXvXvXvXvXvXvXC C 3.vXvXvXvXvXvXvXvXvXvXvXvXvXvXvXvXvXvXvXvXvXvXvXvXvXvXvXvXvXvX",
"vXvXvXvXvXvXvXvXvXvXvXvXvXvXvXvXvXvXvXvXvXvXvXvXvXvXvXvX7.vX*.e.P.H :.vXvX4.6.6.vXvXvXvXvXvXvXvXvXvXvXvXvXvXvXvXvXvXvXvXvXvXvXvX",
"vXvXvXvXvXvXvXvXvXvXvXvXvXvXvXvXvXvXvXvX5.5.vX$.A - C H F 0 Z I.T.U.d.%.i H a.q.F C :.vXvXs 1XvXvXvXvXvXvXvXvXvXvXvXvXvXvXvXvXvX",
"vXvXvXvXvXvXvXvXvXvXvXvXvXvXvXvXvXvXvXvX, = C h.I.L.K.T.Z., C.H.A.K.P.F Z P.H.H.K.Z.G p < d.D vXvXvXvXvXvXvXvXvXvXvXvXvXvXvXvXvX",
"vXvXvXvXvXvXvXvXvXvXvXvXvXvXvXvXvXvXvXZ C.C.H.H.K.H.H.H.U.C.H.M.x.c.H.Z.A.I.A.x.m.N.L.n.Z n.f.S vXvXvXvXvXvXvXvXvXvXvXvXvXvXvXvX",
"vXvXvXvXvXvXvXvXvXvXvXvXvXvXvXvXvXvX5.w.U.U.Z.c.A.A.A.A.P.T.N.c.x.x.x.H.T.H.x.x.z.x.c.A.K.K.m.x vXvXvXvXvXvXvXvXvXvXvXvXvXvXvXvX",
"vXvXvXvXvXvXvXvXvXvXvXvXvXvXvXvXvXvXA M.M.m.x.x.m.P.Z.n.M.Z.v.x.x.x.x.c.Z.N.l.z.N.H.z.z.N.H.M.F 5.vXvXvXvXvXvXvXvXvXvXvXvXvXvXvX",
"vXvXvXvXvXvXvXvXvXvXvXvXvXvXvXvXvX1XF z.z.c.c.l.M.N.m.l.n.v.z.c.x.x.n.c.n.v.l.l.M.K.H.b.z.n.c.G %.vXvXvXvXvXvXvXvXvXvXvXvXvXvXvX",
"vXvXvXvXvXvXvXvXvXvXvXvXvXvXvXvXvX&.H c.m.v.v.c.x.x.v.l.v.l.z.l.z.l.l.z.x.l.l.z.z.M.N.N.v.n.n.G %.vXvXvXvXvXvXvXvXvXvXvXvXvXvXvX",
"vXvXvXvXvXvXvXvXvXvXvXvXvXvXvXvXvXp f.I.K.M.b.z.x.x.l.l.l.l.l.l.x.v.l.x.z.l.v.x.z.z.z.m.v.n.n.N :.vXvXvXvXvXvXvXvXvXvXvXvXvXvXvX",
"vXvXvXvXvXvXvXvXvXvXvXvXvXvXvXvXvX3 c.H.N.n.v.l.z.l.l.l.l.l.l.v.l.v.l.l.v.z.l.v.z.z.l.l.l.l.c.G S vXvXvXvXvXvXvXvXvXvXvXvXvXvXvX",
"vXvXvXvXvXvXvXvXvXvXvXvXvXvXvXvXvXc x.A.x.l.l.l.z.l.l.l.v.l.z.l.l.z.l.l.l.x.l.z.z.z.z.z.l.l.m.H s vXvXvXvXvXvXvXvXvXvXvXvXvXvXvX",
"vXvXvXvXvXvXvXvXvXvXvXvXvXvXvXvXvXx x.x.l.l.z.z.l.l.l.l.l.v.c.c.x.v.l.x.n.l.z.l.z.z.z.l.l.l.v.0.S vXvXvXvXvXvXvXvXvXvXvXvXvXvXvX",
"vXvXvXvXvXvXvXvXvXvXvXvXvXvXvXvXvXx l.l.l.l.l.z.l.l.z.l.z.z.v.v.v.c.c.z.v.z.l.l.z.z.l.l.l.l.v.0.S vXvXvXvXvXvXvXvXvXvXvXvXvXvXvX",
"vXvXvXvXvXvXvXvXvXvXvXvXvXvXvXvXvXc g.v.v.l.l.x.v.l.l.x.v.c.x.n.z.z.z.z.x.x.x.x.v.x.l.z.z.v.v.0.p vXvXvXvXvXvXvXvXvXvXvXvXvXvXvX",
"vXvXvXvXvXvXvXvXvXvXvXvXvXvXvXvXvX3 l.z.v.l.l.v.x.z.z.z.x.x.x.h.0.H a.g.z.x.c.c.l.z.l.v.l.v.v.H p vXvXvXvXvXvXvXvXvXvXvXvXvXvXvX",
"vXvXvXvXvXvXvXvXvXvXvXvXvXvXvXvXvX, x.c.v.c.x.v.v.l.l.v.x.x.G , p i > x f.l.x.x.z.x.l.x.z.c.c.s.S vXvXvXvXvXvXvXvXvXvXvXvXvXvXvX",
"vXvXvXvXvXvXvXvXvXvXvXvXvXvXvXvX4.x l.n.l.x.l.z.x.z.l.z.n.H < jXvXvXF.@.x g.x.x.l.v.l.l.l.v.z.e.C vXvXvXvXvXvXvXvXvXvXvXvXvXvXvX",
"vXvXvXvXvXvXvXvXvXvXvXvXvXvXvXj.V j g.x.l.z.l.z.z.v.x.v.l.b ;.vXvX7.vXvXp H x.x.z.l.v.c.z.x.x.G f a.vXvXvXvXvXvXvXvXvXvXvXvXvXvX",
"vXvXvXvXvXvXvXvXvXvXvXvXvXvXvXk.U g q.x.x.n.x.l.l.z.l.c.f.1 W.vXvX$.vXvX&.v x.x.z.l.l.l.z.z.l.N : y.G.vXvXvXvXvXvXvXvXvXvXvXvXvX",
"vXvXvXvXvXvXvXvXvXvXvXvXvXvXvXk.y.- N f.x.x.l.x.z.z.v.n.f.< W.8XvX6.vXR.v Z l.z.c.l.x.x.x.x.x.G : y.H vXvXvXvXvXvXvXvXvXvXvXvXvX",
"vXvXvXvXvXvXvXvXvXvXvXvXvXvXvXg.y.; l q.x.f.s.x.v.v.n.n.g.v J Q.vXvXvXt.f H v.l.n.z.g.e.x.x.h.j f y.G.vXvXvXvXvXvXvXvXvXvXvXvXvX",
"vXvXvXvXvXvXvXvXvXvXvXvXvXvXvXG.y.f h B x.e.w.l.x.l.l.x.l.F 5 E.8XI.t.h : f.n.x.x.g.B N e.m.w.: V 9.vXvXvXvXvXvXvXvXvXvXvXvXvXvX",
"vXvXvXvXvXvXvXvXvXvXvXvXvXvXvXvX4XS g N e.e.M q.l.l.x.q.C 3 R 4 p x b Y 3 v f.n.f.B k k w.e.M ; >.4XvXvXvXvXvXvXvXvXvXvXvXvXvXvX",
"vXvXvXvXvXvXvXvXvXvXvXvXvXvXvXvXvXvX; l w.q.l N q.l.w.c W 6XwXT %.p <XeX6XY v 0.N m k m l M g S vXvXvXvXvXvXvXvXvXvXvXvXvXvXvXvX",
"vXvXvXvXvXvXvXvXvXvXvXvXvXvXvXvXvXvX> g N B l l N G c S.eXvXwX<.u T 6XvXvXwXY : k m m k k k ; :.vXvXvXvXvXvXvXvXvXvXvXvXvXvXvXvX",
"vXvXvXvXvXvXvXvXvXvXvXvXvXvXvXvXvXa * = j M l l h ; ^ 0XtXvXvX5X4X5XvXvXvXrX(.5 g m m k m f * y :.vXvXvXvXvXvXvXvXvXvXvXvXvXvXvX",
"vXvXvXvXvXvXvXvXvXvXvXvXvXvXvXvX& y u % ; h l l g 3 oX:X9XqXrXrXrXrXrXrX9X:X=XI ; h m m j = & u & S vXvXvXvXvXvXvXvXvXvXvXvXvXvX",
"vXvXvXvXvXvXvXvXvXvXvXvXvXvXvXa u #.u & . ; g : = I =X;X;X;X;X:X:X:X;X;X;X;X%Xi.. ; : g = * y @.@.& vXvXvXvXvXvXvXvXvXvXvXvXvXvX",
"vXvXvXvXvXvXvXvXvXvXvXvXvXvXvXu u 5.-.s u d s S > i.;X;X;X;X;X;X;X:X;X;X;X$X.Xp.X S a s i y a 5.$.& vXvXvXvXvXvXvXvXvXvXvXvXvXvX",
"vXvXvXvXvXvXvXvXvXvXvXvXvXvXvX@.% s #.*.*.*.*.*.1 ^.;X;X;X;X:X;X;X;X:X;X-X.X}.~.1 #.*.*.*.#.*.@.y & vXvXvXvXvXvXvXvXvXvXvXvXvXvX",
"vXvXvXvXvXvXvXvXvXvXvXvXvXvXvXu + # 1 u u u y y X ^.;X;X;X;X;X;X;X;X;X;X$X}..X~.- & y u u u y & @ # vXvXvXvXvXvXvXvXvXvXvXvXvXvX",
"vXvXvXvXvXvXvXvXvXvXvXvXvXvXvX0 { | w $ O $ $ 7 % ^.;X:X;X:X;X;X;X;X;X:X$X}.}.~.X 7 7 # $ O 7 ] | 8 1XvXvXvXvXvXvXvXvXvXvXvXvXvX",
"vXvXvXvXvXvXvXvXvXvXvXvXvXvXvXw ..aXuXq 7 ] { ' 0 ~ &X=X;X;X;X:X:X;X;X;XXX`.i.z @ ' | ' )   ] aXyX) #.vXvXvXvXvXvXvXvXvXvXvXvXvX",
"vXvXvXvXvXvXvXvXvXvXvXvXvXvX6.w ..aXuXe 8  . .} 8 Y ! /.).@X+XOXOX+XoX(.~ z 3 > $ ]  . .] o  .aXyX] s vXvXvXvXvXvXvXvXvXvXvXvXvX",
"vXvXvXvXvXvXvXvXvXvXvXvXvXvX:.w  .uXaXw 8  . .{ 9 T W W ,.1.1.1.1.1.2.,.A 1 2 1 O ]  . .]   X.aXX.] O.vXvXvXvXvXvXvXvXvXvXvXvXvX",
"vXvXvXvXvXvXvXvXvXvXvXvXvXvX=.w  .yXuXw 8 |  .| 9 T W ,.,.,.,.,.,.,.,.,.Y 2 2 > # ]  . .`    .uX..{ d vXvXvXvXvXvXvXvXvXvXvXvXvX",
"vXvXvXvXvXvXvXvXvXvXvXvXvXvX6.7 ) {  .e 7 |  . .9 E E.,.,.,.,.,.,.,.,.,.4 3 c z & `  . .` o ]  .{ ( a vXvXvXvXvXvXvXvXvXvXvXvXvX",
"vXvXvXvXvXvXvXvXvXvXvXvXvXvXvXt t 9 w + 7 |  .| e !.oX(.! 1.1.1.1.1.1.B.V.u.p.'.3 `  . .`   8 8 e 9 *.vXvXvXvXvXvXvXvXvXvXvXvXvX",
"vXvXvXvXvXvXvXvXvXvXvXvXvXvXvXpXzXfX+.0 + |  . .e !.;X;X&X&XOX+X+XOX&X&XXX}.|.`.3 `  . .)   [ pXfXiXjXvXvXvXvXvXvXvXvXvXvXvXvXvX",
"vXvXvXvXvXvXvXvXvXvXvXvXvXvXvXpXzXxXxX[ + |  . .w i.-X;X;X;X;X;X;X;X:X-X.X|. X`.4 `  . .)   fXcXcXpXvXvXvXvXvXvXvXvXvXvXvXvXvXvX",
"vXvXvXvXvXvXvXvXvXvXvXvXvXvXvXhXkXxXxX[ + |  . .w I -X;X;X;X;X;X;X;X;X-X.X}.}.[.z )  . .) @ gXcXxXpXvXvXvXvXvXvXvXvXvXvXvXvXvXvX",
"vXvXvXvXvXvXvXvXvXvXvXvXvXvXvXlXdXzXzXo.+ {  . ._ K %X;X;X;X;X;X;X;X;X%X X}.}.[.z _  . .) 7 gXzXkXhXvXvXvXvXvXvXvXvXvXvXvXvXvXvX",
"vXvXvXvXvXvXvXvXvXvXvXvXvXvXvXvX+.sXsX] + {  . ._ L =X;X;X;X;X;X;X;X-X%X X}.{.[.L )  .../ 7 iXkXiXvXvXvXvXvXvXvXvXvXvXvXvXvXvXvX",
"vXvXvXvXvXvXvXvXvXvXvXvXvXvXvXvXvX8.7.@.@ {  . .) 4 &X;X;X;X;X;X;X;X;X%X}.}.}.[.z )  . ./ O O.+.7.vXvXvXvXvXvXvXvXvXvXvXvXvXvXvX",
"vXvXvXvXvXvXvXvXvXvXvXvXvXvXvXvXvXvXvXvX0 {  . .` y ^.*X;X;X;X;X;X;X;X$X}.{.`.p.5 (  . .w &.vXvXvXvXvXvXvXvXvXvXvXvXvXvXvXvXvXvX",
"vXvXvXvXvXvXvXvXvXvXvXvXvXvXvXvXvXvXvXvXd `  . .' 0 R /.).+X&X&X=X=X,X].p.u.K 3 * `  . .q 5.vXvXvXvXvXvXvXvXvXvXvXvXvXvXvXvXvXvX",
"vXvXvXvXvXvXvXvXvXvXvXvXvXvXvXvXvXvXvXvXs ` ..} { 9 R ,.,.Q /././.<XB.K 4 2 , > O `  .} q 6.vXvXvXvXvXvXvXvXvXvXvXvXvXvXvXvXvXvX",
"vXvXvXvXvXvXvXvXvXvXvXvXvXvXvXvXvXvXvXvX#./ } } ) 9 R W W W W W W W R 3 2 2 z z @ `  .{ 7 vXvXvXvXvXvXvXvXvXvXvXvXvXvXvXvXvXvXvX",
"vXvXvXvXvXvXvXvXvXvXvXvXvXvXvXvXvXvXvXvX5.q } ` @ % V.)././.B.! ! B.Q U U p._.u.  6 | ' # vXvXvXvXvXvXvXvXvXvXvXvXvXvXvXvXvXvXvX",
"vXvXvXvXvXvXvXvXvXvXvXvXvXvXvXvXvXvXvXvX6.7 | w s 5.L _.XX#X#XOXOX#X].{.}.}.[.P X @ ] ` y vXvXvXvXvXvXvXvXvXvXvXvXvXvXvXvXvXvXvX",
"vXvXvXvXvXvXvXvXvXvXvXvXvXvXvXvXvXvXvXvX1X$ ` 8 =.vX6.b u.`.}..X.X.X|.{.'.u.U ;.vXy _ / u vXvXvXvXvXvXvXvXvXvXvXvXvXvXvXvXvXvXvX",
"vXvXvXvXvXvXvXvXvXvXvXvXvXvXvXvXvXvXG.2XS.9 _ o F.vXvXvX=.Y U P P y.y.K A 3.vXvXvX#.8 8 c 3X2XvXvXvXvXvXvXvXvXvXvXvXvXvXvXvXvXvX",
"vXvXvXvXvXvXvXvXvXvXvXvXvXvXvXvX#.S V.).(.X + & vXvXvXvXvXvXvX6.6.1XvXvXvXvXvXvXvX7.    z p.P 4 =.vXvXvXvXvXvXvXvXvXvXvXvXvXvXvX",
"vXvXvXvXvXvXvXvXvXvXvXvXvXvXvXvXvXvXvXvXvXvXvXvXvXvXvXvXvXvXvXvXvXvXvXvXvXvXvXvXvXvXvXvXvX2X2XvXvXvXvXvXvXvXvXvXvXvXvXvXvXvXvXvX",
"vXvXvXvXvXvXvXvXvXvXvXvXvXvXvXvXvXvXvXvXvXvXvXvXvXvXvXvXvXvXvXvXvXvXvXvXvXvXvXvXvXvXvXvXvXvXvXvXvXvXvXvXvXvXvXvXvXvXvXvXvXvXvXvX",
"vXvXvXvXvXvXvXvXvXvXvXvXvXvXvXvXvXvXvXvXvXvXvXvXvXvXvXvXvXvXvXvXvXvXvXvXvXvXvXvXvXvXvXvXvXvXvXvXvXvXvXvXvXvXvXvXvXvXvXvXvXvXvXvX",
"vXvXvXvXvXvXvXvXvXvXvXvXvXvXvXvXvXvXvXvXvXvXvXvXvXvXvXvXvXvXvXvXvXvXvXvXvXvXvXvXvXvXvXvXvXvXvXvXvXvXvXvXvXvXvXvXvXvXvXvXvXvXvXvX",
"vXvXvXvXvXvXvXvXvXvXvXvXvXvXvXvXvXvXvXvXvXvXvXvXvXvXvXvXvXvXvXvXvXvXvXvXvXvXvXvXvXvXvXvXvXvXvXvXvXvXvXvXvXvXvXvXvXvXvXvXvXvXvXvX",
"vXvXvXvXvXvXvXvXvXvXvXvXvXvXvXvXvXvXvXvXvXvXvXvXvXvXvXvXvXvXvXvXvXvXvXvXvXvXvXvXvXvXvXvXvXvXvXvXvXvXvXvXvXvXvXvXvXvXvXvXvXvXvXvX",
"vXvXvXvXvXvXvXvXvXvXvXvXvXvXvXvXvXvXvXvXvXvXvXvXvXvXvXvXvXvXvXvXvXvXvXvXvXvXvXvXvXvXvXvXvXvXvXvXvXvXvXvXvXvXvXvXvXvXvXvXvXvXvXvX",
"vXvXvXvXvXvXvXvXvXvXvXvXvXvXvXvXvXvXvXvXvXvXvXvXvXvXvXvXvXvXvXvXvXvXvXvXvXvXvXvXvXvXvXvXvXvXvXvXvXvXvXvXvXvXvXvXvXvXvXvXvXvXvXvX"
};
