/* XPM */
static char *result[] = {
/* columns rows colors chars-per-pixel */
"64 64 225 2 ",
"   c #0F0E12",
".  c #2D140D",
"X  c #391A0E",
"o  c #251615",
"O  c #241718",
"+  c #251B1C",
"@  c #3F210F",
"#  c #0B1A26",
"$  c #0B1E38",
"%  c #261E22",
"&  c #281D20",
"*  c #301F21",
"=  c #0D2328",
"-  c #172A2B",
";  c #0F2639",
":  c #0C233C",
">  c #192637",
",  c #14273C",
"<  c #152A3D",
"1  c #153437",
"2  c #163C3D",
"3  c #183C3E",
"4  c #292124",
"5  c #262228",
"6  c #411F0C",
"7  c #46200B",
"8  c #5F290E",
"9  c #1A413E",
"0  c #0C1F40",
"q  c #0C2642",
"w  c #0D2844",
"e  c #0D284A",
"r  c #102743",
"t  c #112943",
"y  c #192D45",
"u  c #132D4C",
"i  c #173D40",
"p  c #183947",
"a  c #14334C",
"s  c #1B344D",
"d  c #0F2D54",
"f  c #122F56",
"g  c #153353",
"h  c #1B3653",
"j  c #153A55",
"k  c #1C3A55",
"l  c #13355B",
"z  c #1A3758",
"x  c #153A59",
"c  c #1C3B5C",
"v  c #272F41",
"b  c #243D5D",
"n  c #163A63",
"m  c #1A3C63",
"M  c #163A68",
"N  c #163C6C",
"B  c #173A73",
"V  c #213E62",
"C  c #1B4344",
"Z  c #1E4946",
"A  c #1D454B",
"S  c #1E4B4C",
"D  c #1D4656",
"F  c #214546",
"G  c #214D4E",
"H  c #22504F",
"J  c #214E51",
"K  c #204F5B",
"L  c #235354",
"P  c #2A5556",
"I  c #275857",
"U  c #24555A",
"Y  c #265A5B",
"T  c #2A5C5D",
"R  c #2A615E",
"E  c #1C4264",
"W  c #1F4864",
"Q  c #1B436C",
"!  c #174072",
"~  c #1B4573",
"^  c #1E4975",
"/  c #1B447B",
"(  c #1C4A7B",
")  c #224364",
"_  c #22446A",
"`  c #23496E",
"'  c #265966",
"]  c #2A5D61",
"[  c #244C74",
"{  c #224D7B",
"}  c #314F73",
"|  c #27557A",
" . c #2B6464",
".. c #2D6768",
"X. c #2E6B6C",
"o. c #316467",
"O. c #316D6D",
"+. c #31726E",
"@. c #2D6775",
"#. c #336E73",
"$. c #30667F",
"%. c #2F7070",
"&. c #337474",
"*. c #347976",
"=. c #34767A",
"-. c #357C7C",
";. c #3A797B",
":. c #437378",
">. c #37807E",
",. c #39807D",
"<. c #1E4D82",
"1. c #1F4F8A",
"2. c #1F5185",
"3. c #214E82",
"4. c #244C8A",
"5. c #235283",
"6. c #295584",
"7. c #2B5985",
"8. c #22548C",
"9. c #24598E",
"0. c #2B5A8C",
"q. c #235692",
"w. c #245A94",
"e. c #2A5D93",
"r. c #255D9C",
"t. c #285E9C",
"y. c #357D81",
"u. c #377888",
"i. c #2A6098",
"p. c #2B629C",
"a. c #346996",
"s. c #275EA1",
"d. c #2761A3",
"f. c #2964A4",
"g. c #2C6AA4",
"h. c #2A65AC",
"j. c #2C69AD",
"k. c #316AA4",
"l. c #346BA4",
"z. c #316CAB",
"x. c #3471AC",
"c. c #2A66B2",
"v. c #2C6BB3",
"b. c #2E6EBA",
"n. c #316EB2",
"m. c #2F71B1",
"M. c #2F71BD",
"N. c #3272B4",
"B. c #3173BD",
"V. c #387CBB",
"C. c #2F72C1",
"Z. c #3175C3",
"A. c #3479C5",
"S. c #387BC5",
"D. c #3176CA",
"F. c #347BCC",
"G. c #357DD3",
"H. c #377ED7",
"J. c #378182",
"K. c #398484",
"L. c #3C8986",
"P. c #3A8689",
"I. c #3C8B8C",
"U. c #3F908E",
"Y. c #3B8590",
"T. c #3E8E92",
"R. c #3F9292",
"E. c #418A8B",
"W. c #40938E",
"Q. c #418A91",
"!. c #419494",
"~. c #439A96",
"^. c #429599",
"/. c #4B9598",
"(. c #449B9C",
"). c #519698",
"_. c #47A19E",
"`. c #459EA1",
"'. c #499CA0",
"]. c #46A1A3",
"[. c #49A4A5",
"{. c #49A6A7",
"}. c #49A6A9",
"|. c #4CABAC",
" X c #52AAAC",
".X c #4EB1AE",
"XX c #51B7AF",
"oX c #4DAEB1",
"OX c #4EB1B3",
"+X c #4FB3B8",
"@X c #51B4B5",
"#X c #51B6BA",
"$X c #55BAB8",
"%X c #53BBBC",
"&X c #55C1BE",
"*X c #3881CE",
"=X c #3781D6",
"-X c #3782DB",
";X c #3986D8",
":X c #3885DD",
">X c #3885E1",
",X c #3A87E6",
"<X c #3B8AE5",
"1X c #54BEC2",
"2X c #5CBEC0",
"3X c #56C2C3",
"4X c #58C5C5",
"5X c #5ACAC6",
"6X c #57C3C9",
"7X c #59C6C9",
"8X c #5BCCCC",
"9X c #5ED2CE",
"0X c #5CCED2",
"qX c #5ED2D3",
"wX c #5FD4D9",
"eX c #62CBCB",
"rX c #60D5D5",
"tX c #61D9D6",
"yX c #60D6DA",
"uX c #62DBDC",
"iX c #65E1DF",
"pX c #64DDE2",
"aX c #66E2E4",
"sX c #68E6E8",
"dX c #68E6EB",
/* pixels */
"7 6 6 6 @ 6 6 6 6 6 6 6 6 6 X 6 @ @ X @ @ @ @ @ @ 7 @ @ 7 @ 7 7 6 6 6 7 X 7 7 @ @ @ @ @ @ @ @ @ 7 @ @ @ 6 6 6 7 @ 7 6 X 7 7 7 8 ",
"    ; t w : r r r r r r r r r r q q ; w w < w : ; w t ; w : w w r q r r r r r w : w ; w w < w ; < w w ; r r r r w : q t ; #   . ",
"  # u Q ( ( ( ( ( ( ( ( ( ( ( ( ( ( ( ( ( ( ( ( ( ( ( ( ( ( ( ( ( ( ( ( ( ( ( ( ( ( ( ( ( ( ( ( ( ( ( ^ ( ( ( ( ( ^ ( ^ l $   . ",
"% r q u Q ^ ( ( ( ~ ( ( ( ( ( ^ ( ( ( ( ( ( ( ( ( ( ( ( ( ( ( ( ( ^ ( ^ ^ ( ( ^ ( ( ( ( ( ( ( ( ( ( ( ^ ( <.( ( ( ( ^ l q , $ . ",
"> c d : u Q ( ~ N l n ~ ( ( ( ( ( ( ( ( ( ( ( / ( ( ( ( ( ( ( ( ( ( ( ( ( ( ( <.( ( ( ( ( ( ( ( ( ( ( / Q N ! ^ ~ ^ n : : c y O ",
"r ` m u : f Q ~ l : q m ^ ( ( ( ( ( / ( ( ( ( ( ( ( ( ( / ( ( ( ( ( ( ( ( ( / ( ( ( ( ( ( ( ( ( ( ( ( ^ d : d Q ~ l q q c ^ s o ",
", ~ ^ m e $ u E x e e E ^ ( ( ( ( ( ( ( / ( ( ( ( ( ( ( ( ( ( ( ( ( ( ( ( ( ( ( ( ( ( ( ( ( ( 2.( <.( Q u $ g Q n $ q m 3.( s o ",
", _ ( ( Q u 0 u E ! B ( / ( ( ( ( ( ( ( ( <.( ( ( ( ( ( ( ( <.( <.( 2.( 2.<.<.2.( 2.( 2.( 2.( ( ( ( ( ^ ! N ! j q e m ( <.3.s o ",
"> ~ ^ ( ! n u $ a ! ( ( ( ( ^ ( ( ( ( ( ( ( ( ( ( ( ( ( ( ( ( ( ( ( ( <.( ( ( ( ( ( ( ( ( ( ( ( ( <.<.<.( ( n : q n / ~ <.5.s o ",
", ` ^ N d u h , # = : : q q : q : : : w : : q : : q q q e q q q w w w q q q e q e q w e w : e e w q q w w : : w z z l M ( ( s O ",
", [ ^ n q : s < : p i i 2 9 C 2 = # 1 9 C 9 2 2 i 9 2 9 C 9 i C C i i i 2 2 2 i 9 9 9 2 = # 1 2 i i 3 9 3 - $ c Q a q f ^ { k O ",
", ` ( Q l g K < A =.=.&.%.X.*.*.U 2 Z X.*.-.-.-.-.-.-.-.-.-.-.-.=.-.=.-.-.-.-.-.=.>.%.L 2 Z %.=.-.&...+.&.P , ^ { n f M ( 5.k O ",
"< [ ( ( ~ ~ ` t A -.>.X.L S X.-.%.L 9 S  .-.-.>.>.y.-.>.-.>.y.-.>.-.>.>.J.-.-.-.-.&.L 2 A X.=.-.&.Y A L O.P < ( 2.2.( { 3.5.h O ",
"< { <.5.2.2.^ t D =.*. .2 2  .-.*.%.L 2 S ..-.=.*.-.y.-.-.-.-.-.-.-.-.y.y.-.-.>.%.L 2 Z ..-.-.-.X.S 1 A ..P r ( 8.8.1.1.8.5.h O ",
"< { 2.2.2.{ ^ e A =.-.X.J K X.-.J.-.&.Y C C  .>.-.-.=.>.J.-.>.>.>.-.-.-.y.y.-.%.L 9 S %.>.>.-.-.-...I  .&.P < { 8.8.8.q.q.8.b O ",
"t { 8.2.2.2.[ e A =.J.-.%.%.-.-.y.-.-.&.Y i C ..=.-.-.-.-.-.-.-.-.-.>.-.=.-.X.S 2 S %.-.-.*.*.J.y.-.*.-.-.I w { 8.8.8.q.q.8.k O ",
"< { 8.4.1.5.[ a A y.y.-.y.-.-.y.-.J.-.-.-.Y C i  .*.=.-.>.-.-.-.y.-.>.>.*.X.S 9 H X.-.-.y.-.-.>.-.-.-.-.*.P y ( w.8.1.w.w.q.c O ",
"< { 8.8.1.8.{ u A =.y.-.y.y.-.-.-.-.-.-.-.*. .i 9  .=.>.-.-.>.-.-.-.-.*.%.A C L +.-.-.-.-.-.-.-.-.-.-.-.*.P r { w.w.q.w.q.q.c + ",
"y 6.8.8.8.8.| u 1 Y &.*.-.-.y.-.-.-.-.-.-.-.=...C 3 Y &.-.y.-.-.-.y.-...Z 2 Y %.>.-.-.-.-.y.y.>.>.-.-.-. .1 ; 2.w.w.w.w.w.9.c + ",
"y { 8.8.8.8.5.u = < L O.*.-.y.-.-.>.-.-.>.-.-.=...Z 3 I &.y.-.y.>.-. .C 2 Y %.>.-.-.J.-.J.J.y.J.J.y.*. .9 = $ { w.w.w.w.w.0.c + ",
"y 5.q.q.8.9.6.u p G i G O.-.y.J.>.-.>.>.-.y.J.>.-...S 9 L -.J.J.-. .C 2 R >.>.J.J.J.J.J.J.J.K.J.J.-.R 3 9 F < 2.r.w.w.w.r.w.b O ",
"y 6.q.q.w.8.6.u A &.U 3 S +.,.-.J.J.J.J.J.J.K.J.J.y.%.S 2 L -.>. .C C  .>.P.J.J.P.P.P.K.K.P.P.P.J. .9 C o.P a 5.r.r.r.r.r.w.E O ",
"y 5.q.w.w.8.| u D J.-.] C S X.,.J.P.K.J.J.P.K.K.P.P.K.&.L 2 H Y C S X.J.L.P.P.L.L.I.P.P.P.I.K.>...9 Z +.E.] y 5.r.r.s.r.t.e.V + ",
"a 5.w.r.r.q.6.h D K.P.>.R 3 Z &.K.P.I.I.P.P.P.P.P.I.I.P.-.L 1 1 A %.P.P.P.L.P.I.I.I.I.I.I.I.J...Z Z X.L.E.] s 3.r.r.r.s.t.t.) + ",
"y 6.w.r.r.q.6.a D P.T.P.K...C S %.L.I.I.I.P.I.I.T.T.I.I.I.J. .L =.P.T.Y.T.T.U.T.T.I.T.U.T.P.X.A Z &.I.Q.E. .p 8.r.s.d.d.r.r.E + ",
"s 0.r.r.r.r.6.a K I.I.I.R.T.X.C S %.I.I.T.Y.T.I.U.T.T.R.R.R.P.K.T.T.R.R.T.T.T.R.T.R.R.R.I.X.S G &.I.!.W.I...a 8.s.r.d.d.d.p.) + ",
"s 9.r.r.r.r.0.s D I.T.R.R.R.I.&.S A %.I.R.T.R.R.R.R.R.R.R.`.R.R.R.R.(.^.R.R.R.R.!.R.!.R.+.A L =.W.!.!.!.!.o.p w.d.d.d.d.d.d.) + ",
"s 9.r.r.p.w.0.g ' T.R.R.R.R.R.R.=.S Z %.I.R.R.^.R.R.R.R.R.R.R.`.R.R.R.R.R._.R.R.^.^.T.*.S S *.R.^.^.^.^.!.O.p 9.h.d.d.d.f.d.E + ",
"s 0.t.s.p.r.0.g ' T.R.R.(.R.R.R.R.,.L A X.R.R.^.(.R.R.R.`.R.R.R.(.R.(.R.(.R.(.R.^.!.&.F L J.`.R.^.^.^.(.^.#.g 9.f.f.d.h.f.f._ + ",
"s e.p.d.d.s.0.g ' T.(.R.`.R._.~.~.^.J.I A %.U.^.`.].].R.(.]._.R.(.(._.(._._.].].!.-.H J -.R.`.~.`.`.(.]./.#.h 9.h.f.f.f.h.d._ + ",
"s e.d.d.d.p.w.g ' R.`.`.`.(.~.R.(.`.^.I.T A X.R.`.`.(.(.]._.R.]._._.`.(.`.`.].~.=.S I J.(._._.{.[.].].].(.#.p 9.j.f.h.h.h.g.` + ",
"s e.d.d.d.p.0.j ' R.`.`.].`.].].].`.(.(.I.T C X.R.`.].].].].{.]._.].].].].`.K.R Z L J.(.[.].].].}.[.[.[.(.&.j i.j.h.h.h.h.k.` + ",
"h e.f.f.f.f.e.k ' (.].].].].`.].}.`._.].~...3  .R._.].{.[.[.[.[.].{.{.{.{.].X.= 1 *.~.[.[.|.{.{.{.}.}.}.).;.j i.h.h.h.c.j.j.^ + ",
"s t.h.f.g.f.i.j ' ].[.}.}.[.[.[.}.}.[.(.=.J I P.{.{.{.{.}.}.}.}.{.{.}.}.|.].J.J C ..~.[.|.|.|.|.}.|.|.}.[.;.h i.j.j.v.h.v.g.^ + ",
"h p.h.h.h.f.i.c ' }.}.}.}.{.[.|.}.{.].-.J  .T.].}.|.}.|.}.|.|.|.|.|.|.|.|.}.{.R.X.J X.(.|.oX|.|.|.|.|.|.[.*.j p.v.j.v.j.v.j.` + ",
"h p.h.h.h.h.p.z ' }.|.}.|.|.|.|.}.].-.J Y R.|.}.|..XoXoX|.oX|.oXoXoX|..XoXoXOXXX`.#.J O.~.oX|.OXOXoXOX|. X;.j p.v.v.v.v.v.x.` + ",
"b t.h.j.h.j.p.z | }.oXoX|.oXoXoX].y.L ] U.|.oX.X.XOXoXoXOXOXOXOXOX.X|.OXoXOXOX.XOX[.*.H X.`.OXOXOXOX@XOX.X;.x p.m.v.v.v.v.v.[ + ",
"s p.v.j.j.j.p.c @.|.oXoXOXOXoX}.y.J ] !..XOX.XXX.XOX+XOXOXOXOXOXOX+X+X+X+X+XOXOXOXOX_.&.L =.].OX#XOX#XOX@XJ.x p.b.v.b.b.b.v.[ & ",
"k p.v.v.v.j.p.m | oX+XOX@XOX{.J.U o.!.oX+X+X+XXX+X+X#X+X#X#X#X#X+X#X%XXXXX+X%X%X%X#XOX[.=.L &.[.#X#X%X#X@X;.b p.b.v.b.b.b.N.[ & ",
"b k.v.v.m.j.p.c @.OX#X+X@X XL.L ..~.@X$X+XOX%X%X%X+X%X%X%X%X$X%X&X#X+X%X&X&X%X+X%X%X%X%X}.=.I =.}.%X%X%X@XE.c p.M.M.M.b.B.N.[ & ",
"h k.v.v.v.v.p.b #.@X%X%XoXL.I  .^.@X%X&X$X%X1X%X%X%X%X1X%XOX(.~.OX1X%X%X%X%X1X&X&X%X&X%X%XoX-.L =.|.1X1X@XE.D f.M.M.M.M.M.B.[ % ",
"k k.b.v.v.v.k.m | @X%XOXK.U X.[.%X%X3X%X%X%X%X3X&X%X1X1X@X!.] U P.XX1X1X3X1X&X3X3X3X3X3X3X3X|.y.Y =.|.$X%XQ.E g.M.M.M.M.C.M.[ % ",
"k k.b.b.b.b.k.c $.%X@XL.P ..`.1X3X3X3X1X1X3X3X&X3X3X1X%X!.U T O.R >.oX6X6X3X&X4X6X6X4X3X3X7X3XOX;.I ;. X%XQ.m g.C.C.C.B.M.B.| + ",
"b g.b.b.M.N.l.c $.@XI.U O.[.1X3X3X3X3X4X3X3X3X4X4X6X%X!. . .(. X-.L >.OX4X7X5X3X7X7X7X4X7X5X7X6X#X;.] :. XE.D g.Z.C.Z.B.Z.B.| % ",
"b j.M.M.M.M.k.c ..P.] #.}.3X6X3X&X4X7X7X7X7X7X7X4X1X!.] X.{.&X5X.X=.Y L.$X7X8X8X7X8X7X5X5X7X7X0X8X%XK.U ;.:.b g.Z.Z.Z.Z.Z.Z.| 4 ",
"c z.Z.M.M.N.z.m h U #.|.4X7X8X7X9X8X8X8X5X7X7X8X1X^...X.{.7X9X9X5X#X>.Y L.$X8XqX8X0XqX8X0X0XqX0X8X8X1XK.P F g g.Z.D.Z.Z.Z.A.| % ",
"b z.Z.C.M.N.z.m a -.|.7X5X7X8X0X5XqX8X8X8X8XqX4X(. .%.|.7X8X9X9X8X8X#X-.T L.%X0XqX0X0XqXqXqXqXqXqX0X0X%XL.3 u g.F.D.A.D.A.Z.| & ",
"c n.Z.C.B.B.x.) @.1XqX0X0X0X0X0XqXqXqX8X9X9X8X(.X.X.{.5X9XqX9X9XqXqX9X%X,.T E.3XqXqXqXqXqXwXwXqXwXrXqXrX%X;.j j.F.Z.A.F.F.Z.| % ",
"K z.Z.Z.B.M.z.V u.0X9X9XqXqXqXqXrXrXqXqXwX7X]. .@.|.8XrXwXwXwXwXrXwXqXrX$XJ. .I.2XrXyXrXtXwXwXwXyXrXtXyX9X/.) m.F.F.F.G.D.F.6.4 ",
"b n.Z.D.Z.C.x.) a.8XrX8X$X&X9XqXrXtXrXwX0X[.X.O..XrXrXrXwXwXtXwXwXuXuXtXrX3XK.] I.8XyXuXyXyXuXuXrX8X5XqXeX/.) x.G.F.D.D.F.F.5.% ",
"V N.D.D.F.D.z._ u.8X8XoXy.y.$XrXyXuXyX0X'...%.@XrXwXuXuXuXuXpXwXuXpXuXyXuXuX3XK...R.5XyXuXiXiXyX8X~.y.].eX).W m.F.F.G.G.F.S.6.% ",
"V b.F.F.D.S.N._ u.0X8X`...#.|.tXuXyXrX[.#.#.oXqXuXuXpXuXuXiXuXuXuXuXiXpXpXuXwX4XI. .!.8XpXuXiXuX7Xy.' Y.3X).W m.G.F.G.G.G.F.6.5 ",
"V N.S.B.v.z.l.) u.uXuX4X}..X9XuXpXqX[...=.#XwXwXpXaXaXpXpXpXpXpXpXpXaXpXiXaXaXpX3XL.' ^.9XuXaXuXyX$X].$XeX).W m.G.B.b.F.H.F.7.4 ",
") N.b.w.B 3.a.) u.uXsXsXaXpXsXdXpX%X=.-.#XsXdXaXsXdXsXsXdXdXsXdXsXdXdXsXsXdXdXdXsX0X^.O.~.wXdXsXsXaXiXsXaX X` N.N.3.B s.F.*X7.4 ",
") N.N.8.B B a.K ` I.U.U.U.!.U.U.I. .Z X.U.R.R.U.W.W.U.R.U.U.U.R.U.R.R.W.U.!.R.R.R.R.;.F C &.W.W.!.~.W.!.E.o.E z.h.n e 1.Z.*X7.4 ",
") V.S.v.s.h.l.b $ a A j j x j j x a e x l D x x j j j j j j j D D j j j j j j j j x c a u g j x j j j x j g d 3.k.8./ h.F.=X7.4 ",
"V V.H.F.G.Z.e.M N s.b.b.C.M.b.C.C.C.M.C.M.C.M.M.C.C.C.C.C.C.C.C.C.C.C.C.C.C.C.C.C.C.Z.C.C.Z.C.C.M.Z.C.C.B.v.1.n 3.v.Z.F.-XH.0.4 ",
"_ S.H.F.A.s.B B t.v.C.G.-X;X;X:X-X=X;X-X-X;X:X:X-X;X-X-X:X;X-X-X:X-X:X;X:X:X:X>X:X:X:X-X:X>X>X>X>X>X:X=XM.c.h.| M q.V.G.-X-X0.* ",
"_ S.=XG.t.M / g.e.! ( b.G.G.=X=X=X=X=X=X=X=X=X=X=X=X-X=X-X=X-X=X=X-X-X-X-X-X;X=X-X-X-X;X;X-X-X-X=X=X=XB.4.B e.n.8.B 4.S.;X;X7.* ",
") V.V.t.B / j.V.t.m / b.G.-X-X-X-X-X-X-X-X-X-X-X-X:X:X:X:X:X>X-X-X-X-X>X-X-X>X-X-X>X:X>X>X:X>X:X:X-X:XC.1.N w.A.Z.8.B 4.S.;Xe.4 ",
"_ V.e.V ( b.F.G.Z.c.b.G.H.-X-X-X-X-X-X:X:X-X-X-X:X:X:X:X:X-X:X-X-X:X:X:X:X-X:X:X:X>X:X>X<X>X>X:X:X:X>X-XZ.c.D.-X-XS.e.B q.V.0.4 ",
"b 0.B { k.=X-X-X-XH.H.=X-X:X:X-X-X-X-X:X:X:X:X:X-X:X:X:X>X-X:X>X>X>X>X>X>X>X>X>X>X>X:X>X>X>X>X>X>X<X>X;X:X>XH.>X,X;XV.4.B 0.} * ",
"% V 4.C.;X>X<X>X>X>X>X,X<X<X<X>X<X<X<X<X<X<X<X<X<X<X<X<X<X<X<X<X<X<X<X<X<X<X<X<X,X<X<X<X<X<X<X<X<X<X<X<X,X<X<X,X,X<X<XF.s.V v * ",
"  , [ s.h.h.h.h.h.h.h.h.h.h.h.h.h.h.h.h.h.h.h.h.h.h.h.h.h.c.h.h.h.h.h.h.c.h.h.h.h.h.c.h.h.c.c.h.c.c.h.v.c.h.v.h.h.v.v.c.q.z   X "
};
