/* XPM */
static char *result[] = {
/* columns rows colors chars-per-pixel */
"64 64 92 1 ",
"  c #254C9C",
". c #25509F",
"X c #2A519D",
"o c #3C5C9B",
"O c #2452A2",
"+ c #2855A4",
"@ c #2357AA",
"# c #2358AB",
"$ c #335CA2",
"% c #225DB3",
"& c #3660A4",
"* c #3A64A6",
"= c #3A6BAD",
"- c #2260B6",
"; c #2263BA",
": c #2C6ABA",
"> c #356CB3",
", c #336EB8",
"< c #41619C",
"1 c #49679C",
"2 c #4E6A9C",
"3 c #516C9C",
"4 c #5E759C",
"5 c #61779C",
"6 c #486AA1",
"7 c #4672AB",
"8 c #507DAF",
"9 c #477DBA",
"0 c #607CA2",
"q c #1E6AC6",
"w c #1D75D5",
"e c #1F7EDE",
"r c #2167C0",
"t c #226AC3",
"y c #216EC9",
"u c #2171CC",
"i c #2076D3",
"p c #2178D5",
"a c #2F7ED0",
"s c #227CD9",
"d c #1F7FE0",
"f c #4F81B4",
"g c #5582B1",
"h c #5886B3",
"j c #5C8AB4",
"k c #608FB6",
"l c #6797B9",
"z c #6B9BBB",
"x c #75A6BF",
"c c #2482DE",
"v c #2B87DD",
"b c #2E89DE",
"n c #328CDE",
"m c #5F9AC5",
"M c #4292D6",
"N c #4F97D0",
"B c #4198DE",
"V c #4C9FDD",
"C c #4EA1DD",
"Z c #54A6DD",
"A c #5DACDD",
"S c #68A8CE",
"D c #7BADC2",
"F c #7FB1C4",
"G c #66B3DD",
"H c #6EB9DD",
"J c #72BCDD",
"K c #7CC4DD",
"L c #83B6C6",
"P c #86BAC7",
"I c #89BBC6",
"U c #85BAC9",
"Y c #89BDC9",
"T c #8DC1CA",
"R c #94C9CD",
"E c #99CECF",
"W c #86C6D7",
"Q c #86CADD",
"! c #8ACEDD",
"~ c #8ED1DD",
"^ c #9DD3D1",
"/ c #93D5DC",
"( c #9DDCDC",
") c #A4DAD3",
"_ c #A2DEDA",
"` c #ABE2D7",
"' c #A3E1DC",
"] c #ABE7DC",
"[ c #ACE8DC",
"{ c #B2ECDB",
"} c #B9F2DD",
"| c None",
/* pixels */
"||||||||||||||||||||||||||||||||||||||||||||||||||||||||||||||||",
"||||||||||||||||||||||||||||||||||||||||||||||||||||||||||||||||",
"||||||||||||||||||||||||||||||||||||||||||||||||||||||||||||||||",
"||||||||||||||||||||||||||||||||||||||||||||||||||||||||||||||||",
"||||||||||||||||||||||||||||||||||||||||||||||||||||||||||||||||",
"||||||||||||||||||||||||||||||||||||||||||||||||||||||||||||||||",
"||||||||||||||||||||||||||||||||||||||||||||||||||||||||||||||||",
"||||||||||||||||||||||||||||||||||||||||||||||||||||||||||||||||",
"||||||||||||||||||||||||||||||||||||||||||||||||||||||||||||||||",
"||||||||||||||||||||||||||||   .    ||||||||||||||||||||||||||||",
"|||||||||||||||||||||||                  |||||||||||||||||||||||",
"|||||||||||||||||||| <12333oXXXXXXXX        ||||||||||||||||||||",
"||||||||||||||||||j %+X<333244445544oooooo$%r|||||||||||||||||||",
"||||||||||||||||||)UQN:+OOOOoooooooo600009ade|||||||||||||||||||",
"||||||||||||||||||}EWKZwswsw%%%%%%%-ssscssdee|||||||||||||||||||",
"|||||||||||||||||||=wceeeeecedddscddeecscddde|||||||||||||||||||",
"||||||||||||||||||| %scdeeeeeeeeeeeeeeeeddsee|||||||||||||||||||",
"||||||||||||||||||| %dedeeeeeeeeeeeeeeeeedcbQ|||||||||||||||||||",
"||||||||||||||||||| #wdeeeeeeeceeeeeeedeeen~}|||||||||||||||||||",
"|||||||||||||||||||| qdeeeeeeeeeeeeeeecvCK/{||||||||||||||||||||",
"|||||||||||||||||||| ;sdeeeeeeeeeeeebZJ[(QQC||||||||||||||||||||",
"|||||||||||||||||||| OwdeeeeeeeecvVQ/]!Zncee||||||||||||||||||||",
"||||||||||||||||||||@.uceeeeeenZJ[(QGvceeece||||||||||||||||||||",
"||||||||||||||||||||q %deevvVQ~[!Andeeeeeeee||||||||||||||||||||",
"||||||||||||||||||||| @MZA([(~Gbveeeeeeeeee|||||||||||||||||||||",
"||||||||||||||||||||^LP^['AZneeeeeeeeeeedde|||||||||||||||||||||",
"||||||||||||||||||||}}Tgvveeeeeeeeeeeeeescd|||||||||||||||||||||",
"||||||||||||||||||||Fg. rdeeceeeeeeeeeeeeee|||||||||||||||||||||",
"|||||||||||||||||||||   %eeeeeeeeeeeedddeee|||||||||||||||||||||",
"|||||||||||||||||||||   OudeeeeeeeeesceeebQ|||||||||||||||||||||",
"|||||||||||||||||||||    ;edeeeeeeeeeeeen~}|||||||||||||||||||||",
"|||||||||||||||||||||    OwceceeeeeeecvG/_A|||||||||||||||||||||",
"||||||||||||||||||||||X   udeeeeeeenA~[/Gv||||||||||||||||||||||",
"||||||||||||||||||||||O   %eeeeevnK([JZnee||||||||||||||||||||||",
"||||||||||||||||||||||r    qcdbA''!Vveeeee||||||||||||||||||||||",
"||||||||||||||||||||||@    #cG/'ACcdeeeeed||||||||||||||||||||||",
"||||||||||||||||||||||   Xgj_/Gveeeeeeeecd||||||||||||||||||||||",
"||||||||||||||||||||||*lYY`)mbddeeeeeeeese||||||||||||||||||||||",
"||||||||||||||||||||||{[TD*$#wcseeddeeeee|||||||||||||||||||||||",
"||||||||||||||||||||||Dg.    qdeeecseeeee|||||||||||||||||||||||",
"|||||||||||||||||||||||      -eeeeeeeeeeeZ||||||||||||||||||||||",
"|||||||||||||||||||||||      OwdeeeeeeebK(||||||||||||||||||||||",
"|||||||||||||||||||||||       -ceeeedcC~}|||||||||||||||||||||||",
"|||||||||||||||||||||||       OudecnK~'(G|||||||||||||||||||||||",
"|||||||||||||||||||||||        qbZH'~Knve|||||||||||||||||||||||",
"|||||||||||||||||||||||     XX8W~]!Cceeee|||||||||||||||||||||||",
"|||||||||||||||||||||||hhhhhx`^ISbceeeee||||||||||||||||||||||||",
"|||||||||||||||||||||||}{```Tj7 %cdeecee||||||||||||||||||||||||",
"||||||||||||||||||||||||z$$$+   %deeddse||||||||||||||||||||||||",
"||||||||||||||||||||||||       .ueeeedce||||||||||||||||||||||||",
"||||||||||||||||||||||||       Owceeeeee||||||||||||||||||||||||",
"|||||||||||||||||||||||||      +wdeeeee|||||||||||||||||||||||||",
"|||||||||||||||||||||||||      tcddedde|||||||||||||||||||||||||",
"|||||||||||||||||||||||||.     ycdeeddcJ||||||||||||||||||||||||",
"|||||||||||||||||||||||||      yddeeCA'{||||||||||||||||||||||||",
"|||||||||||||||||||||||||  X. #webCQ{(H|||||||||||||||||||||||||",
"|||||||||||||||||||||||||     >ZH[(QGve|||||||||||||||||||||||||",
"|||||||||||||||||||||||||RLYFDY[~Zneece|||||||||||||||||||||||||",
"||||||||||||||||||||||||FELYl$:bveeeeee|||||||||||||||||||||||||",
"||||||||||||||||||||||| &&    %deeeeseees|||||||||||||||||||||||",
"|||||||||||||||||||||||      .tcceeecdeee|||||||||||||||||||||||",
"||||||||||||||||||||||||     Opseeeeddee||||||||||||||||||||||||",
"||||||||||||||||||||||||     Oweeeeeeeee||||||||||||||||||||||||",
"||||||||||||||||||||||  .    .tdeeeeeeeeee||||||||||||||||||||||"
};
