/* XPM */
static char *_879166430b54108b8bcd6c309faf65fCELo0GhDrzRyEYoL[] = {
/* columns rows colors chars-per-pixel */
"64 64 25 1 ",
"  c None",
". c #254C9A",
"X c #254C9B",
"o c #254D9B",
"O c #254D9C",
"+ c #254E9D",
"@ c #254E9E",
"# c #254F9F",
"$ c #2452A3",
"% c #235CB0",
"& c #235CB1",
"* c #2264BB",
"= c #2265BC",
"- c #1F7DDC",
"; c #1F7DDD",
": c #1F7EDE",
"> c #1F7EDF",
", c #1F7FDF",
"< c #2268C1",
"1 c #216AC4",
"2 c #216FC9",
"3 c #216FCA",
"4 c #2171CC",
"5 c #2078D6",
"6 c #1F7FE0",
/* pixels */
"                                                                ",
"                                                                ",
"                                                                ",
"                                                                ",
"                                                                ",
"                                                                ",
"                                                                ",
"                                                                ",
"                                                                ",
"                                                                ",
"                                                                ",
"                                                                ",
"                                                                ",
"                                                                ",
"                                                                ",
"                                                                ",
"                                                                ",
"                                                                ",
"                                                                ",
"                                                                ",
"                                                                ",
"                                                                ",
"                                                                ",
"                                                                ",
"                                                                ",
"                                                                ",
"                                                                ",
"                                                                ",
"                                                                ",
"                                                                ",
"                                                                ",
"                                                                ",
"                                                                ",
"                                                                ",
"                                                                ",
"                                                                ",
"                                                                ",
"                                                                ",
"                                                                ",
"                                                                ",
"                                                                ",
"                                                                ",
"                                                                ",
"                                                                ",
"                                                                ",
"                                                                ",
"                                                                ",
"                                                                ",
"                                                                ",
"                                                                ",
"                                                                ",
"                                                                ",
"                                                                ",
"                                                                ",
"                          O         oo                          ",
"                    OOOOOO            =5::::                    ",
"                   OOOOOOO3::      :::6::::::                   ",
"                   OOOOOOX&::::::::::::::::::                   ",
"                   OOOOOOOO36::::::::::::::::                   ",
"                   OOOOOOOo16::::::::::::::::                   ",
"                      OOOOO$4:::::::::::::                      ",
"                        OOOO&:::::::::::                        ",
"                         OOOO=:::::::::                         ",
"                           OOO<6:::::                           "
};
