/* XPM */
static char *c1786045ad2543c6bccc37baac038130LYL2IuOjvm5EP4sw[] = {
/* columns rows colors chars-per-pixel */
"64 64 250 2 ",
"   c None",
".  c #21489A",
"X  c #21499A",
"o  c #22499A",
"O  c #22499B",
"+  c #234B9B",
"@  c #254B99",
"#  c #254B9A",
"$  c #244B9B",
"%  c #254C9A",
"&  c #244C9B",
"*  c #254C9B",
"=  c #254D9B",
"-  c #234D9D",
";  c #244C9C",
":  c #254C9C",
">  c #254D9C",
",  c #254E9D",
"<  c #264E9D",
"1  c #264F9D",
"2  c #254E9E",
"3  c #27509D",
"4  c #28509D",
"5  c #2A529D",
"6  c #29519E",
"7  c #28529E",
"8  c #29539E",
"9  c #29539F",
"0  c #2D569F",
"q  c #1E5AB2",
"w  c #234FA0",
"e  c #234FA1",
"r  c #2351A2",
"t  c #2351A3",
"y  c #2551A1",
"u  c #2451A2",
"i  c #2452A2",
"p  c #2452A3",
"a  c #2554A4",
"s  c #2454A5",
"d  c #2454A6",
"f  c #2455A7",
"g  c #2B57A0",
"h  c #2A56A1",
"j  c #2E5BA2",
"k  c #2D5EA7",
"l  c #2356A9",
"z  c #2356AA",
"x  c #2358AB",
"c  c #2458AB",
"v  c #2358AC",
"b  c #235AAE",
"n  c #235BAF",
"m  c #315AA1",
"M  c #325BA1",
"N  c #335DA2",
"B  c #315FA3",
"V  c #235CB0",
"C  c #235CB1",
"Z  c #235DB2",
"A  c #235EB3",
"S  c #225FB5",
"D  c #3361A4",
"F  c #3362A5",
"G  c #3364A7",
"H  c #3B65A6",
"J  c #3A6CA8",
"K  c #3B6EA9",
"L  c #2361B6",
"P  c #2361B7",
"I  c #2161B8",
"U  c #2262B8",
"Y  c #2061BA",
"T  c #2263BA",
"R  c #2264BA",
"E  c #2164BD",
"W  c #2265BC",
"Q  c #2267BF",
"!  c #3B74B0",
"~  c #4672AA",
"^  c #4672AB",
"/  c #4175AC",
"(  c #4176AD",
")  c #4874AB",
"_  c #4078AF",
"`  c #4379AE",
"'  c #507DAF",
"]  c #537FAE",
"[  c #477FB0",
"{  c #1D6CC9",
"}  c #1E72CF",
"|  c #1F78D7",
" . c #1F79D8",
".. c #1F7AD9",
"X. c #1F7BDA",
"o. c #1F7CDB",
"O. c #1B7BDE",
"+. c #1F7DDC",
"@. c #1E7DDD",
"#. c #1F7DDD",
"$. c #1C7CDE",
"%. c #1D7CDE",
"&. c #1D7DDE",
"*. c #1D7DDF",
"=. c #1E7DDE",
"-. c #1E7EDE",
";. c #1F7EDE",
":. c #1E7EDF",
">. c #1F7EDF",
",. c #1E7FDF",
"<. c #1F7FDF",
"1. c #2268C1",
"2. c #216AC3",
"3. c #216AC4",
"4. c #216BC4",
"5. c #216DC7",
"6. c #216DC8",
"7. c #216EC8",
"8. c #216FCA",
"9. c #2073CF",
"0. c #2073D0",
"q. c #2175D1",
"w. c #2076D3",
"e. c #2077D4",
"r. c #2077D5",
"t. c #2078D6",
"y. c #2078D7",
"u. c #2079D8",
"i. c #207AD8",
"p. c #207AD9",
"a. c #207EDD",
"s. c #217FDE",
"d. c #1E7EE0",
"f. c #1F7FE0",
"g. c #4780B1",
"h. c #4A84B3",
"j. c #4A85B3",
"k. c #4B85B3",
"l. c #4B86B3",
"z. c #4E8AB5",
"x. c #4E8BB5",
"c. c #4F8BB5",
"v. c #4080B9",
"b. c #4080BA",
"n. c #5380B0",
"m. c #5583B1",
"M. c #5684B2",
"N. c #5785B2",
"B. c #5987B3",
"V. c #608FB7",
"C. c #6898B9",
"Z. c #699BBD",
"A. c #74A6BF",
"S. c #3883C7",
"D. c #2C83D7",
"F. c #2180DE",
"G. c #2280DE",
"H. c #2381DE",
"J. c #2482DE",
"K. c #2583DE",
"L. c #2784DE",
"P. c #2B82D8",
"I. c #2B87DE",
"U. c #2D88DE",
"Y. c #2D89DE",
"T. c #2E89DE",
"R. c #308ADD",
"E. c #318ADD",
"W. c #308BDE",
"Q. c #318BDE",
"!. c #318CDE",
"~. c #358FDE",
"^. c #368FDE",
"/. c #5F98C2",
"(. c #4292D5",
"). c #4198DE",
"_. c #4B9FDD",
"`. c #4C9FDD",
"'. c #4EA1DD",
"]. c #4FA2DD",
"[. c #4CA0DE",
"{. c #55A5DB",
"}. c #52A4DD",
"|. c #52A5DD",
" X c #53A5DD",
".X c #55A6DD",
"XX c #55A7DD",
"oX c #55A7DE",
"OX c #5CACDD",
"+X c #5DACDD",
"@X c #68A9CE",
"#X c #77A8C0",
"$X c #7FB1C4",
"%X c #66B3DD",
"&X c #67B4DD",
"*X c #6DB8DD",
"=X c #6FBADD",
"-X c #72BCDD",
";X c #7BC3DD",
":X c #7CC4DD",
">X c #7DC4DD",
",X c #89BBC6",
"<X c #87BCC9",
"1X c #88BCC8",
"2X c #89BCC8",
"3X c #8ABEC9",
"4X c #8BBFC9",
"5X c #86C0CE",
"6X c #8DC2CA",
"7X c #93C7CC",
"8X c #88C5D4",
"9X c #84CADD",
"0X c #85CADD",
"qX c #86CBDD",
"wX c #87CCDD",
"eX c #89CDDD",
"rX c #89CEDD",
"tX c #8CCFDD",
"yX c #8CD0DD",
"uX c #9DD4D1",
"iX c #9ED4D1",
"pX c #9DD6D4",
"aX c #92D3DB",
"sX c #92D4DC",
"dX c #93D5DC",
"fX c #94D6DC",
"gX c #94D6DD",
"hX c #9DDCDC",
"jX c #A2D8D2",
"kX c #A7DED5",
"lX c #A2DDD9",
"zX c #A9E1D6",
"xX c #ABE3D7",
"cX c #ACE3D7",
"vX c #A1E0DC",
"bX c #A2E0DC",
"nX c #A4E2DC",
"mX c #A6E3DC",
"MX c #A7E4DC",
"NX c #AEE6D9",
"BX c #AAE6DC",
"VX c #AAE7DC",
"CX c #ABE7DC",
"ZX c #ABE7DD",
"AX c #ACE7DC",
"SX c #ADE8DC",
"DX c #B3EBDB",
"FX c #B2ECDC",
"GX c #B4EDDC",
"HX c #B8F2DD",
/* pixels */
"                                                                                                                                ",
"                                                                                                                                ",
"                                                                                                                                ",
"                                                                                                                                ",
"                                                                                                                                ",
"                                                                                                                                ",
"                                                                                                                                ",
"                                                                                                                                ",
"                                                              *                                                                 ",
"                                                        g 9 9 3 @ : > >                                                         ",
"                                              c.x.x.x.x.j.j.j.K D D j + > > > > >                                               ",
"                                        @ > h G D D D D D D D ` k.k.g./ / / / B 5 > > @                                         ",
"                                      c Z s S I b @ + : : : + 3 9 5 B ! [ b./ g.k.K s Z 1.                                      ",
"                                      2.d.w.6.C 1.2.s p > @ * * * * b S s { l k ! S.0.<.a.                                      ",
"                                      f p.a.o.y. .<. .r.P Z Z Z Z I 6.I r. .p.|  .<.<.<.a.<.<.<.                                ",
"                                      * 2.d.o.<.<.<.<.<.>.>.>.d.F.d.F.<.<.<.<.<.<.<.<.o.K.<.<.o.<.                              ",
"                                      @ Z <.<.<.o.d.<.<.<.o.d.<.<.d.<.o.o.<.<.<.o.<.<._.9X!.<. .<.                              ",
"                                      * p 9.<.<.<.<.<.o.a.d.o.<.<.o.<.<.<.<.O.d.L.^.;XmXSX[.O.<.<.                              ",
"                                      > @ 5.<.<.<.o.<.<.<.d.a.d.o.<.<.<.o.>.}.OXvXmXeX;X^.K.<.<.                                ",
"                                        > b  .<.<.o.<.d.<.o.<.o.o.K.Y.^.>XeXmXvX+X[.F.o.<.a.<.<.                                ",
"                                        > p y.a.d.d.<.o.d.o.d.). XtXBXmXeX>X^.L.<.o.<.<.<.<.                                    ",
"                                        > p  .<.o.L.U.I.`.9X9XhXBX-X}.}.>.o.<.o.<.<.o.<.                                        ",
"                                        + r } (..XtXBXBXhX9X0X[.L.a.d.O.<.<.d.o.o.<.<.<.                                        ",
"                                        M Z.8XpXZX-X}..X).d.o.o.>.d.o.<.o.<.<.<.<.<.d.o.                                        ",
"                                        zX7X5X[.I.a.O.O.o.o.d.<.a.>.o.<.<.<.o.<.o.<.<.                                          ",
"                                        DXn.q <.<.<.<.<.<.<.d.<.d.a.<.<.o.<.o.<.<.<.o.                                          ",
"                                          5 c y.<.<.o.<.o.d.<.<.a.<.<.o.a.d.d.a.<.o.<.                                          ",
"                                          * * 5.<.o.<.<.<.<.o.d.<.<.<.<.<.o.<.<.<.<.<.                                          ",
"                                          > * R o.<.<.<.o.d.<.o.d.o.o.<.<.o.d.o.<.<.o.                                          ",
"                                          > * p w.<.o.<.<.a.d.d.<.<.<.<.o.d.>.L.[.9XsX                                          ",
"                                          > > * S <.<.<.<.a.<.o.<.o.a.d.Q..X-XZXvXqXsX                                          ",
"                                          > > * C a.<.o.o.d.o.d.a.I.`.9XsXZXtX.X^.o.<.                                          ",
"                                            > > > E o.<.o.d.Q.oX-XZXhX9X&XU.K.O.<.<.                                            ",
"                                            > + + e P.I.[.9XsXSXtX.X).o.d.<.<.<. .<.                                            ",
"                                            + ^ B.B.lXBXhX9X%XL.L.o.d.d.<.<.<.o.<.<.                                            ",
"                                            3XuXzXkX/..X).d.o.o.a.d.o.d.o.o.<.<.<.<.                                            ",
"                                    > > > #X<X] B M + { <.<.<.<.a.d.<.a.d.<.o.d.<.<.                                            ",
"                                  > > > > > @ + : : : 3.d.<.o.<.<.o.<.d.a.<.<.a.<.<.                                            ",
"                                  > > > >     > > > > s  .d.<.o.<.o.<.o.o.<.<.o.<.                                              ",
"                                  > > > >     > > > > I o.o.<.<.a.d.<.a.d.<.a.d.K.                                              ",
"                                    > > >     > > > > 6.d.<.o.<.<.d.a.<.d.<.o.d.`.FX                                            ",
"                                    > > > >   > > > > 6.<.<.<.<.<.o.d.o.o.L.L.&XdXZX                                            ",
"                                        > > > > > > > T <.<.<.<.d.d.o.)..XtXZXdX-X                                              ",
"                                              > > > > e y.<. .<.I.~.;XhXBX-X.XY.O.                                              ",
"                                              > > > > r  .<.Y.OXlXmXeX_.I.F.O.o.<.                                              ",
"                                              > > : + e P.&XdXlX+X[.F. .<.a.<.<.<.                                              ",
"                                                + 5 ] V.lXsX%XI.d.O.<.<.<.<.o.o.                                                ",
"                                                3X3XkXjX/.Q.o.<.<.<.<.<.<.<.<.<.                                                ",
"                                              HXzX$XH M > E <.<.d.o.o.<.<.o.o.<.    <.o.<.                                      ",
"                                                ) @ > + * p w.<.a.<.<.<.<.<.<.<.<.o.<.<.<.<.                                    ",
"                                                + > > > > * L <.<.<.o.d.o.<.a.<.    <.<.<.<.                                    ",
"                                                  > > > > * Z d.d.o.<.<.d.o.F.      <.<. .<.                                    ",
"                                                  > > > > : v r.>.d.<.o.<.a.*XGX  <.<.<.<.                                      ",
"                                                  > > > > > > 6.d.o.>.~.>XeXnXnX  <.<.o.                                        ",
"                                                  : > + > > > Y Q..X-XmXeX>X^.F.<.<.<.                                          ",
"                                                  + + . > M ' <XaXZXyX[.a.<.<.                                                  ",
"                                                  C.m.m.#XxXiX,X@XY.K.<.<.<.o.                                                  ",
"                                                  NXzXcX6XB.^ + p 0.d.a.o.<.d.                                                  ",
"                                                  m.M B 9 + @ > @ I a.d.<.<.<.                                                  ",
"                                                  : > + > > > > > p p.a.<.<.<.                                                  ",
"                                                  > > > > > > > * p p.a.o.o.<.                                                  ",
"                                                > > > > > > > > * p r.d.<.<.<.<.                                                ",
"                                                > > > > > > > > > > b r.<.<.<.o.                                                ",
"                                            > > > > > > > > > > > > : C  .o.<.<.<.<.                                            "
};
