/* XPM */
static char *_7306d2179654126b5ab20dc5453b608ovNhkebADLeDC9QN[] = {
/* columns rows colors chars-per-pixel */
"64 64 239 2 ",
"   c None",
".  c #20489A",
"X  c #21489A",
"o  c #21499A",
"O  c #22499B",
"+  c #224A9B",
"@  c #234B9B",
"#  c #254B99",
"$  c #244B9A",
"%  c #254B9A",
"&  c #254C9A",
"*  c #244C9B",
"=  c #254C9B",
"-  c #254D9B",
";  c #234C9C",
":  c #244C9C",
">  c #254C9C",
",  c #254D9C",
"<  c #254E9D",
"1  c #274F9D",
"2  c #254E9E",
"3  c #254F9E",
"4  c #254F9F",
"5  c #284F9B",
"6  c #284F9C",
"7  c #284F9D",
"8  c #2B519C",
"9  c #28519E",
"0  c #29519E",
"q  c #2B539E",
"w  c #2E539C",
"e  c #30559C",
"r  c #31559C",
"t  c #385A9B",
"y  c #3C5D9B",
"u  c #385A9C",
"i  c #3C5D9C",
"p  c #3D5E9C",
"a  c #3E5F9C",
"s  c #3F5F9C",
"d  c #1E52A9",
"f  c #2550A0",
"g  c #2551A1",
"h  c #2451A2",
"j  c #2452A2",
"k  c #2452A3",
"l  c #2453A4",
"z  c #2454A6",
"x  c #2854A2",
"c  c #2E57A0",
"v  c #2C59A5",
"b  c #2457AA",
"n  c #2458AA",
"m  c #215AAF",
"M  c #235AAF",
"N  c #2B5EAB",
"B  c #325BA0",
"V  c #325CA2",
"C  c #335CA2",
"Z  c #335DA2",
"A  c #235CB0",
"S  c #235DB1",
"D  c #235DB2",
"F  c #225DB3",
"G  c #235EB2",
"H  c #235EB3",
"J  c #215EB4",
"K  c #225EB4",
"L  c #235FB5",
"P  c #215FB6",
"I  c #3660A3",
"U  c #3A65A5",
"Y  c #3B65A5",
"T  c #3B65A6",
"R  c #3B69AB",
"E  c #2360B6",
"W  c #2361B6",
"Q  c #2B67B7",
"!  c #2262B8",
"~  c #2263BA",
"^  c #2264BA",
"/  c #2264BC",
"(  c #2267BF",
")  c #42629C",
"_  c #45649C",
"`  c #48669C",
"'  c #4A679C",
"]  c #506B9C",
"[  c #516C9C",
"{  c #536E9C",
"}  c #5D749C",
"|  c #647A9C",
" . c #446FA9",
".. c #1E78D7",
"X. c #1C77D8",
"o. c #1F7AD9",
"O. c #1E7BDB",
"+. c #1F7BDB",
"@. c #1979DE",
"#. c #1A7ADE",
"$. c #1B7BDE",
"%. c #1B7CDF",
"&. c #1F7DDC",
"*. c #1E7DDD",
"=. c #1F7DDD",
"-. c #1C7CDE",
";. c #1D7CDE",
":. c #1D7DDE",
">. c #1E7DDE",
",. c #1E7EDE",
"<. c #1F7EDE",
"1. c #1E7EDF",
"2. c #1F7EDF",
"3. c #1F7FDF",
"4. c #2267C0",
"5. c #2268C0",
"6. c #2268C1",
"7. c #2269C1",
"8. c #216AC3",
"9. c #216AC4",
"0. c #216BC5",
"q. c #216DC7",
"w. c #216DC8",
"e. c #2170CB",
"r. c #2D78C9",
"t. c #2F79C9",
"y. c #2074D0",
"u. c #2076D3",
"i. c #2077D4",
"p. c #2078D6",
"a. c #2079D8",
"s. c #207AD8",
"d. c #1F7FE0",
"f. c #4F83B7",
"g. c #5280B0",
"h. c #5784B2",
"j. c #5B89B4",
"k. c #5D8CB5",
"l. c #608FB6",
"z. c #6999BA",
"x. c #6A9ABA",
"c. c #74A6BF",
"v. c #2280DE",
"b. c #2381DE",
"n. c #2381DF",
"m. c #2482DE",
"M. c #2784DE",
"N. c #2785DF",
"B. c #2D84D8",
"V. c #2B87DE",
"C. c #2C88DE",
"Z. c #2D88DE",
"A. c #2D89DE",
"S. c #2E89DE",
"D. c #308BDE",
"F. c #318BDE",
"G. c #308CDF",
"H. c #348EDE",
"J. c #358FDE",
"K. c #3790DE",
"L. c #3F96DE",
"P. c #558FC1",
"I. c #4198DE",
"U. c #4B9FDD",
"Y. c #4C9FDD",
"T. c #509ED7",
"R. c #4FA2DD",
"E. c #4CA0DF",
"W. c #52A4DD",
"Q. c #53A5DD",
"!. c #52A5DE",
"~. c #55A6DD",
"^. c #55A7DD",
"/. c #57A8DD",
"(. c #5CACDD",
"). c #5DACDD",
"_. c #5FAEDD",
"`. c #76A7C0",
"'. c #7AACC1",
"]. c #7FB1C4",
"[. c #7FB2C4",
"{. c #64B1DD",
"}. c #67B4DD",
"|. c #7DBED5",
" X c #72BCDD",
".X c #73BDDD",
"XX c #7AC2DD",
"oX c #7DC4DD",
"OX c #84B7C6",
"+X c #86BAC7",
"@X c #87BAC7",
"#X c #89BCC8",
"$X c #8ABEC9",
"%X c #8BBFC9",
"&X c #8CC0C9",
"*X c #8DC1CA",
"=X c #8EC3CB",
"-X c #8FC3CB",
";X c #93C8CD",
":X c #85CADD",
">X c #87CCDD",
",X c #8CCDD9",
"<X c #89CDDD",
"1X c #89CEDE",
"2X c #8CCFDD",
"3X c #8DD0DD",
"4X c #9FD5D2",
"5X c #90D2DD",
"6X c #90D3DD",
"7X c #92D4DC",
"8X c #92D4DD",
"9X c #9DDCDC",
"0X c #9EDDDC",
"qX c #A0D6D1",
"wX c #A7DDD5",
"eX c #A7DED5",
"rX c #A7DFD5",
"tX c #A9E0D6",
"yX c #A9E1D6",
"uX c #ABE3D7",
"iX c #ACE3D7",
"pX c #A1E0DC",
"aX c #A2E0DC",
"sX c #A6E3DC",
"dX c #ABE5DA",
"fX c #ACE6DA",
"gX c #AAE6DC",
"hX c #ABE6DC",
"jX c #ABE7DC",
"kX c #ACE7DC",
"lX c #ACE8DD",
"zX c #AFEADC",
"xX c #B5EDDB",
"cX c #B5EEDC",
"vX c #B6EFDC",
"bX c #B8F0DC",
"nX c #B8F1DD",
"mX c #B9F3DD",
"MX c #BAF2DC",
/* pixels */
"                                                                                                                                ",
"                                                                                                                                ",
"                                                                                                                                ",
"                                                                                                                                ",
"                                                                                                                                ",
"                                                                                                                                ",
"                                                                                                                                ",
"                                                                                                                                ",
"                                                              >                                                                 ",
"                                                        > 1 > 8 w r r w                                                         ",
"                                              0.g > ; & > 1 > a ' _ [ } ) a ) a _                                               ",
"                                        & > K H & > < 1 > & 1 > > & N R y i i [ | ] 5 %                                         ",
"                                      1 M b 7.1 1 > > 1 > > > > > & K K O < < > u t l H 4.                                      ",
"                                      g ....q.g j j j j > & & & & g / j g j l g g ~ i.s.s.  d.n.                                ",
"                                      j p.v.:.p.p.p.....W H K K H / e.E ..s.s.s.o.:.:.:.d.d.d.s.s.:.                            ",
"                                      j ..v.:.v.v.:.:.v.2.2.:.d.s.v.d.d.:.s.v.:.-.:.Z.K.oX/.%.:.v.d.                            ",
"                                      & E n.d.d.d.:.:.n.d.d.d.d.:.:.v.s.:.:.:.v.E.(.pX>X6X    d.n.d.                            ",
"                                      % K s.:.d.d.d.s.v.:.:.v.s.:.%.d.:.V.K.oX>XgXpX(.A.d.    n.d.d.                            ",
"                                      & n ..d.:.s.v.:.:.:.:.:.:.:.I.~.(.pXsX>XoXJ.V.d.d.d.  :.s.:.                              ",
"                                        > w.v.:.:.:.:.$.v.A.A.}.2X0XlXpX(.E.v.d.:.:.v.s.:.:.d.d.                                ",
"                                        & ~ :.:.:.I.~.!. XgXgX7X:XU.V.V.:.:.s.d.s.d.:.:.n.                                      ",
"                                        O v B.}.:X9XgXjX2X!.~.D.$.:.:.:.:.:.n.d.n.d.s.:.                                        ",
"                                        j.*XlX7X:XU.V.A.M.$.$.:.:.:.s.n.:.:.v.s.:.:.v.n.                                        ",
"                                      vXmX'.P.G.$.d.d.n.s.:.:.d.s.:.d.d.d.d.n.:.:.d.d.d.                                        ",
"                                        4X .d ..v.:.:.v.:.:.s.d.v.n.:.:.:.v.n.d.d.d.:.                                          ",
"                                          > & 0.v.:.:.:.:.:.v.n.d.d.d.d.:.s.d.d.v.s.s.                                          ",
"                                          > < z s.:.v.:.d.d.s.:.d.:.:.n.n.s.:.:.:.:.:.                                          ",
"                                          ; < 1 7.:.v.:.d.n.v.:.:.:.s.v.d.:.:.$.v.V.U.9X                                        ",
"                                          > > & H v.n.d.d.d.d.:.d.s.:.:.d.%.A.~. XgXzXmX                                        ",
"                                          > & 1 g ..v.s.:.:.n.s.d.-.v.V.U.:X7XgX2XE.{.                                          ",
"                                          > > > % ~ :.:.:.:.:.:.G.!. XgX9X2X}.A.N.d.$.                                          ",
"                                          > 1 & & g X.$.v.V.E.:X8XkX2X~.I.:.:.:.d.n.s.                                          ",
"                                            < & > g T.!. XjX9X>X}.Z.N.$.$.:.s.v.d.d.                                            ",
"                                            V z.%X%XrXfX3X~.L.%.:.:.d.d.:.:.d.n.n.n.                                            ",
"                                          cXuX;X+X[.U t.N.%.d.d.s.2.2.n.s.:.d.d.2.s.                                            ",
"                                    > >     k.I O O & M +.:.n.s.2.2.s.v.v.:.:.:.2.2.                                            ",
"                                > > 1 < > ; O ; > > 1 g p.v.:.:.d.d.s.:.n.:.:.:.s.2.                                            ",
"                                1 & & ;     ; & > > ; 1 7.:.:.v.:.n.v.:.d.d.v.:.-.$.                                            ",
"                                1 > >         & 1 & & > n ..:.v.:.:.d.:.s.:.:.:.D.XX                                            ",
"                                ; > 1         ; < ; 1 > > w.v.:.s.:.d.d.n.:.:.m._.mX                                            ",
"                                  > > 1       1 > 1 < > 1 ^ :.:.v.d.%.:.:.I.~.3X9X                                              ",
"                                    & 1 > > > & > > ; & & j ..v.d.d.V.}.>X9XgX.XI.                                              ",
"                                          > 1 < > > < < > & E v.W.(.pX7X:XE.N.n.:.                                              ",
"                                              ; > & ; < O q f.1XsXpX(.A.%.:.%.d.:.                                              ",
"                                              > > < O 8 g.*XqXXXJ.V.d.d.d.:.n.n.s.                                              ",
"                                              V V U [.%XtXc. .m -.:.v.s.:.:.s.:.n.                                              ",
"                                              yXyXrX%X[.Y 5 ; 1 e.v.d.:.s.d.:.v.                                                ",
"                                              mX*Xg.8 ; ; & > & H s.d.:.n.d.:.:.      d.d.                                      ",
"                                                c ; > > > 1 < ; K d.n.v.v.s.s.:.  :.d.d.d.d.                                    ",
"                                                > > 1 > & ; ; 1 e.d.d.s.n.:.d.-.:.  :.n.d.n.v.                                  ",
"                                                > & ; & 1 < > j o.:.:.:.d.d.D.!.      v.:.:.s.                                  ",
"                                                  ; < 1 > > > z o.:.:.:.V.S.8XmX      s.:.:.                                    ",
"                                                  1 > 1 > > & 7.d.%.D.(.aXsX2X      d.d.:.                                      ",
"                                                  > & & ; ; 5 r.E.:X7XpX(.E.v.  s.n.:.d.                                        ",
"                                                  ; ; O I h.c.gX9X>X}.Z.%.%.n.v.s.:.                                            ",
"                                                  +X+X+X;XuX,X^.I.:.:.:.:.d.d.                                                  ",
"                                                  vX&X#Xz.B Q d.-.s.v.:.s.d.d.                                                  ",
"                                                  l.1 ; > O G :.2.2.:.:.n.n.:.                                                  ",
"                                                  O > 1 > & G d.2.n.d.:.d.n.:.                                                  ",
"                                                  & > > > & G :.s.n.d.%.d.v.s.                                                  ",
"                                                > < ; & & 1 7.v.s.:.:.:.:.:.s.                                                  ",
"                                                > 1 1 > & l o.:.n.v.:.:.:.:.n.v.                                                ",
"                                                ; < < ; > l o.:.n.d.d.d.:.:.d.d.                                                ",
"                                                & 1 > & > > 7.d.%.d.n.v.s.:.:.d.                                                "
};
