/* XPM */
static char *a5e0ce97c1c542f09a48b36400c564ddBYJ0hqJaczw0zQoz[] = {
/* columns rows colors chars-per-pixel */
"64 64 221 2 ",
"   c None",
".  c #21489A",
"X  c #21499A",
"o  c #22499A",
"O  c #23499A",
"+  c #22499B",
"@  c #234A9A",
"#  c #224A9B",
"$  c #234B9B",
"%  c #254B99",
"&  c #244B9B",
"*  c #254C9A",
"=  c #244C9B",
"-  c #254C9B",
";  c #254D9B",
":  c #244C9C",
">  c #254C9C",
",  c #254D9C",
"<  c #254E9D",
"1  c #274F9D",
"2  c #254E9E",
"3  c #254F9E",
"4  c #25509F",
"5  c #28509D",
"6  c #29519E",
"7  c #2B539E",
"8  c #2D569F",
"9  c #224FA2",
"0  c #2550A0",
"q  c #2551A1",
"w  c #2451A2",
"e  c #2452A2",
"r  c #2452A3",
"t  c #2453A3",
"y  c #2252A5",
"u  c #2453A4",
"i  c #2454A5",
"p  c #2454A6",
"a  c #2D56A1",
"s  c #2458AB",
"d  c #315AA1",
"f  c #335CA2",
"g  c #345EA3",
"h  c #235CB0",
"j  c #235DB2",
"k  c #235EB3",
"l  c #235FB4",
"z  c #3A65A5",
"x  c #3B65A6",
"c  c #2360B6",
"v  c #2361B6",
"b  c #2361B7",
"n  c #2262B8",
"m  c #2162BA",
"M  c #2263BA",
"N  c #2265BD",
"B  c #356AB2",
"V  c #306FBC",
"C  c #4470AA",
"Z  c #4671AA",
"A  c #4672AA",
"S  c #507DAF",
"D  c #1E6AC7",
"F  c #1D71D0",
"G  c #1E78D8",
"H  c #1F79D8",
"J  c #1E79D9",
"K  c #1F79D9",
"L  c #1F7AD9",
"P  c #1B7BDE",
"I  c #1B7BDF",
"U  c #1F7DDC",
"Y  c #1F7DDD",
"T  c #1C7CDE",
"R  c #1D7CDE",
"E  c #1D7DDE",
"W  c #1C7DDF",
"Q  c #1E7DDE",
"!  c #1E7EDE",
"~  c #1F7EDE",
"^  c #1F7EDF",
"/  c #1F7FDF",
"(  c #2167C0",
")  c #2168C1",
"_  c #2269C1",
"`  c #216AC4",
"'  c #206CC7",
"]  c #216DC7",
"[  c #216FC9",
"{  c #216FCA",
"}  c #206FCB",
"|  c #2F75C4",
" . c #2170CB",
".. c #2073CF",
"X. c #377FC9",
"o. c #2077D4",
"O. c #2078D6",
"+. c #2079D8",
"@. c #207AD8",
"#. c #217FDE",
"$. c #1D7EE0",
"%. c #1F7FE0",
"&. c #5380B0",
"*. c #5381B0",
"=. c #5784B1",
"-. c #5684B2",
";. c #5785B2",
":. c #5886B2",
">. c #5987B3",
",. c #608FB6",
"<. c #6A99BA",
"1. c #74A6BF",
"2. c #2380DD",
"3. c #2180DE",
"4. c #2280DE",
"5. c #2381DE",
"6. c #2382DF",
"7. c #2783DD",
"8. c #2582DE",
"9. c #2784DE",
"0. c #2884DE",
"q. c #2885DF",
"w. c #2986DE",
"e. c #2B87DE",
"r. c #2C88DE",
"t. c #2D88DE",
"y. c #2D89DE",
"u. c #3281D0",
"i. c #3187D8",
"p. c #318BDE",
"a. c #348EDE",
"s. c #358FDE",
"d. c #368FDE",
"f. c #3B93DE",
"g. c #3F96DE",
"h. c #5096CE",
"j. c #4198DE",
"k. c #4B9FDD",
"l. c #4C9FDD",
"z. c #4CA0DD",
"x. c #4EA1DD",
"c. c #4FA2DD",
"v. c #4EA2DF",
"b. c #53A5DD",
"n. c #53A5DE",
"m. c #55A6DD",
"M. c #5CACDD",
"N. c #76A7C0",
"B. c #77A9C0",
"V. c #7FB1C4",
"C. c #7FB2C4",
"Z. c #67B2DB",
"A. c #67B4DD",
"S. c #66B4DE",
"D. c #68B5DD",
"F. c #69B5DD",
"G. c #6AB6DD",
"H. c #6FBADD",
"J. c #72BCDD",
"K. c #73BDDD",
"L. c #76BFDD",
"P. c #7CC4DD",
"I. c #7DC4DD",
"U. c #7DC5DE",
"Y. c #87BAC7",
"T. c #87BCCA",
"R. c #89BCC8",
"E. c #89BDC9",
"W. c #8ABEC9",
"Q. c #8BBFC9",
"!. c #8DC1CA",
"~. c #8DC2CA",
"^. c #8FC2CA",
"/. c #93C8CC",
"(. c #84CADD",
"). c #85CADD",
"_. c #86CBDD",
"`. c #87CCDD",
"'. c #88CCDD",
"]. c #88CDDD",
"[. c #89CDDD",
"{. c #89CEDD",
"}. c #8CCFDD",
"|. c #8CD0DD",
" X c #9ED4D1",
".X c #92D2DA",
"XX c #91D3DC",
"oX c #92D4DC",
"OX c #92D4DD",
"+X c #9DDCDC",
"@X c #9FDEDC",
"#X c #A0D6D2",
"$X c #A2D9D3",
"%X c #A4DBD4",
"&X c #A7DED5",
"*X c #A1DFDC",
"=X c #A9E1D6",
"-X c #AAE1D7",
";X c #ABE2D7",
":X c #ABE3D7",
">X c #ACE3D7",
",X c #A7E2DB",
"<X c #A1E0DC",
"1X c #A6E3DC",
"2X c #A7E4DC",
"3X c #ACE4D8",
"4X c #ACE5D9",
"5X c #ACE6DB",
"6X c #A9E6DC",
"7X c #AAE6DC",
"8X c #ABE7DC",
"9X c #ACE7DC",
"0X c #AEE9DC",
"qX c #B0E9DA",
"wX c #B1EBDC",
"eX c #B4EDDC",
"rX c #B4EEDC",
"tX c #B5EEDC",
"yX c #B6EFDC",
"uX c #B7F0DC",
"iX c #B7F1DD",
/* pixels */
"                                                                                                                                ",
"                                                                                                                                ",
"                                                                                                                                ",
"                                                                                                                                ",
"                                                                                                                                ",
"                                                                                                                                ",
"                                                              ,                                                                 ",
"                                                              ,                                                                 ",
"                                                                                                                                ",
"                                                        , , , - , 4 e ,                                                         ",
"                                            .., , , , , , , 4 - , i N - , , , , 4                                               ",
"                                        - i _ , , , , , , , - - , , n s - , , - - - - -                                         ",
"                                      , - e j - , - - , - - 4 - , - j v - - - - - - t j _                                       ",
"                                      , - e v e t t t e - = - - - , v e e e e e e M F 7.7.e.4.^ ^ ^                             ",
"                                      , - e  .U O.G O.O.v j j j c j v v o.G G G G 4.v.`.H.`.  ^   ^ ^                           ",
"                                      - - - s ^ 3.^ ^ 4.^ ^ ^ ^ #.^ ^ ^ ^ ^ e.a.I.}.2XG.f.      ^ ^ ^                           ",
"                                      , , , ,  .3.^ ^ ^ U 3.^ ^ ^ U ^ 4.z.M.<X2X_.P.s.3.^         ^                             ",
"                                      , , , - ` ^ ^ U ^ E P E 7.y.S._._.2X<XM.z.4.^ U ^ ^     ^ ^ ^                             ",
"                                      , , , , i G ^ ^ E y.m.b.|.6XoX(.P.s.r.E E #.^ U ^ ^ ^ ^ ^ ^                               ",
"                                        , X X a | A.(.(.oX6X6XK.b.a.E E U ^ ^ E ^ U ^ ^ U ^                                     ",
"                                        , A >.!.5XoX(._.S.r.r.3.P ^ ^ U 3.E ^ 3.^ ^ ^ U                                         ",
"                                        W. X:X1.-.u.E ^ ^ U ^ ^ ^ U ^ ^ U ^ ^ U U 3.^ ^                                         ",
"                                        W.S d 5 X m U E U ^ ^ U U ^ U ^ E ^ ^ E ^ ^ U 3.                                        ",
"                                        X : , , = e J 3.U ^ ^ 3.3.^ U ^ 3.U ^ 3.U U ^ ^                                         ",
"                                          , , , , 4  .^ ^ ^ U U ^ ^ ^ U ^ 3.E ^ ^ ^ U                                           ",
"                                          , , , , - s ^ 3.U ^ ^ ^ U ^ U ^ U U ^ ^ P 4.                                          ",
"                                          , , , , , 4 { ^ ^ ^ ^ ^ E ^ ^ ^ E E E p.n.J.wX                                        ",
"                                          , , , , , - ` ^ ^ U ^ U 3.E E 3.r.z.(.XX8X0XuX                                        ",
"                                          , , , , , , i @.%.^ ^ ^ E a.m.K.5X+X_.Z.r.a.                                          ",
"                                          , , , , , , , ( $.4.e.k.(.XX6X{.m.g.^ ^ ^ ^                                           ",
"                                          , , > : : = X B n.J.8X+X(.S.r.7.E ^ U ^ U ^                                           ",
"                                          : X 8 f z C.Y./.5X}.b.j.U E E ^ U ^ ^ ^ ^ ^                                           ",
"                                          >.-.!.5X&XW.W.<.V 7.P ^ ^ U 3.^ ^ ^ U ^ ^                                             ",
"                                          rX5XN.=.*.5 - & e J ^ ^ U ^ ^ ^ U E 3.U ^                                             ",
"                                            f 5 X X , , - e { ^ ^ ^ U U ^ ^ ^ ^ ^ ^                                             ",
"                                , , , ,     , , , - - - - & l 4.U ^ ^ ^ U E 3.U ^ ^                                             ",
"                              , ,   ,       , , , , , , , - s O.^ ^ 3.U 3.^ U 3.^ ^                                             ",
"                              , , ,         , , , , , , , , - ] 3.^ E ^ E ^ E E 4.A.                                            ",
"                                ,             , , , , , , , - ] 3.E ^ ^ U ^ E f.J.wX                                            ",
"                                , , ,         , , , , , , , - { 3.E E 7.r.S._.<X}.P.                                            ",
"                                  , , , ,     , , , , , , , > ` $.4.v.|.6XoX_.z.4.                                              ",
"                                        , , , , , , , , , : , X.P.`.2XJ.b.y.E ^ 3.                                              ",
"                                              , , , - - X C 1.,X`.P.s.4.P E ^ E ^                                               ",
"                                              X X X d z Y. X!.h.4.E E 3.3.U ^ 3.^                                               ",
"                                              >.-.,.$X&X!.S 7 D 3.3.U 3.^ ^ ^ U ^                                               ",
"                                              eX5X$X,.*.4 = - ] %.%.^ ^ ^ U ^ E ^                                               ",
"                                              &Xz d = = - - t ..^ ^ ^ U ^ E ^ 3.                                                ",
"                                                : : : - - - j 3.^ ^ ^ ^ U 3.^ U     ^ ^   ^                                     ",
"                                                , , , , - - j ^ 3.U U ^ ^ ^ ^ ^         ^   ^                                   ",
"                                                , , , , - - c ^ ^ ^ ^ ^ P P e.G.XX      ^ ^ ^                                   ",
"                                                , , , , , - j ^ ^ U U 4.z.M.*XeX            ^                                   ",
"                                                  , , , , 4 { P 4.r.z.{.2X<XM.L.        ^ ^                                     ",
"                                                  , - - = e i.n.K.5X+XP.s.r.E       ^ ^ ^                                       ",
"                                                  f d d S T.XX5X{.m.g.^ U ^ ^   ^ ^ ^                                           ",
"                                                qX:X:X5X XT.Z.e.7.P ^ ^ U ^ ^ ^                                                 ",
"                                                uXB.-.-.A y J ^ ^ ^ ^ U ^ ^ ^                                                   ",
"                                                  5 @ @ = D 3.^ U 3.E ^ ^ E ^                                                   ",
"                                                  - = 4 = D 3.^ ^ ^ 3.U U 3.^                                                   ",
"                                                  , - - = D $.E U U 3.^ ^ ^ ^                                                   ",
"                                                  , - 4 - [ 3.3.^ ^ E ^ ^ ^ ^                                                   ",
"                                                , , , , = D 3.E ^ 3.^ U U ^ U ^                                                 ",
"                                                , , , - p G 3.3.^ U ^ ^ 3.^ U ^                                                 ",
"                                                - 4 , - c 3.^ E U ^ 3.^ U ^ 3.^                                                 ",
"                                                - - - - j ^ ^ 3.U ^ U ^ ^ ^ ^                                                   "
};
