/* XPM */
static char *result[] = {
/* columns rows colors chars-per-pixel */
"64 64 215 2 ",
"   c #214899",
".  c #21499A",
"X  c #22499B",
"o  c #234A9A",
"O  c #224A9B",
"+  c #234B9B",
"@  c #254B99",
"#  c #254B9A",
"$  c #254C9A",
"%  c #244C9B",
"&  c #254C9B",
"*  c #254D9B",
"=  c #244C9C",
"-  c #254D9C",
";  c #254F9E",
":  c #254F9F",
">  c #284F9C",
",  c #28519E",
"<  c #29519E",
"1  c #1F5EB6",
"2  c #214FA2",
"3  c #2550A0",
"4  c #2551A1",
"5  c #2451A2",
"6  c #2452A2",
"7  c #2452A3",
"8  c #2352A4",
"9  c #2455A7",
"0  c #2357AA",
"q  c #2456A8",
"w  c #2456A9",
"e  c #2457A9",
"r  c #2458AB",
"t  c #2159AF",
"y  c #235BAF",
"u  c #3059A1",
"i  c #315AA1",
"p  c #335CA2",
"a  c #225BB0",
"s  c #235DB1",
"d  c #225CB2",
"f  c #225DB3",
"g  c #225EB3",
"h  c #235EB3",
"j  c #265FB2",
"k  c #3660A3",
"l  c #3661A5",
"z  c #3B65A6",
"x  c #3261A8",
"c  c #2260B6",
"v  c #2360B6",
"b  c #2361B6",
"n  c #2361B7",
"m  c #2263BA",
"M  c #2968BA",
"N  c #4672AB",
"B  c #4F7CAE",
"V  c #507DAF",
"C  c #1E76D4",
"Z  c #1F78D6",
"A  c #1E78D8",
"S  c #1F79D8",
"D  c #1F7BDA",
"F  c #1B79DC",
"G  c #1B7BDE",
"H  c #1B7CDF",
"J  c #1F7DDD",
"K  c #1C7CDE",
"L  c #1D7CDE",
"P  c #1D7DDE",
"I  c #1C7DDF",
"U  c #1D7DDF",
"Y  c #1E7DDE",
"T  c #1E7EDE",
"R  c #1F7EDE",
"E  c #1E7EDF",
"W  c #1F7EDF",
"Q  c #1F7FDF",
"!  c #2168C1",
"~  c #206CC7",
"^  c #216DC7",
"/  c #216FC9",
"(  c #2171CC",
")  c #2F78C8",
"_  c #2879CF",
"`  c #2074D0",
"'  c #2077D4",
"]  c #2077D5",
"[  c #2078D6",
"{  c #2079D7",
"}  c #2079D8",
"|  c #207AD8",
" . c #237CD8",
".. c #1F7FE0",
"X. c #5380B0",
"o. c #5684B2",
"O. c #5886B2",
"+. c #5986B2",
"@. c #5886B3",
"#. c #5987B3",
"$. c #5D8BB5",
"%. c #5F8EB6",
"&. c #608FB6",
"*. c #6A99BA",
"=. c #6A9ABA",
"-. c #3180CF",
";. c #2180DE",
":. c #2280DE",
">. c #2381DE",
",. c #2784DE",
"<. c #2784DF",
"1. c #2785DF",
"2. c #2880D8",
"3. c #2885DE",
"4. c #2A86DE",
"5. c #2B87DE",
"6. c #2B88DE",
"7. c #2D88DE",
"8. c #2D89DE",
"9. c #2D8ADF",
"0. c #3088DA",
"q. c #308BDE",
"w. c #318BDE",
"e. c #328CDE",
"r. c #358FDE",
"t. c #368FDE",
"y. c #4F97CF",
"u. c #4198DE",
"i. c #4B9FDD",
"p. c #4C9FDD",
"a. c #549BD1",
"s. c #539ED5",
"d. c #509DD7",
"f. c #4EA1DD",
"g. c #4FA2DD",
"h. c #55A1D7",
"j. c #52A5DD",
"k. c #53A5DD",
"l. c #55A6DD",
"z. c #55A6DE",
"x. c #55A7DE",
"c. c #5CACDD",
"v. c #5DACDD",
"b. c #5DADDE",
"n. c #68A4C9",
"m. c #74A7C1",
"M. c #74A8C2",
"N. c #79ABC1",
"B. c #7FB1C4",
"V. c #65B2DD",
"C. c #66B3DD",
"Z. c #67B4DD",
"A. c #70BBDD",
"S. c #72BCDD",
"D. c #72BDDE",
"F. c #7CC4DD",
"G. c #7DC4DD",
"H. c #7CC4DE",
"J. c #85B8C6",
"K. c #86BAC7",
"L. c #87BAC7",
"P. c #89BCC8",
"I. c #8ABEC9",
"U. c #8CC0C9",
"Y. c #8CC1CA",
"T. c #8DC4CE",
"R. c #93C8CC",
"E. c #93C8CD",
"W. c #81C8DE",
"Q. c #84C9DD",
"!. c #85CADD",
"~. c #87CBDC",
"^. c #86CBDD",
"/. c #87CCDD",
"(. c #89CDDD",
"). c #89CEDD",
"_. c #8CCFDC",
"`. c #8CCFDD",
"'. c #8CD0DD",
"]. c #8DD1DD",
"[. c #8ED1DD",
"{. c #9ED4D1",
"}. c #94D4DB",
"|. c #92D4DC",
" X c #94D5DC",
".X c #94D7DE",
"XX c #98D9DC",
"oX c #9DDCDC",
"OX c #A2D9D3",
"+X c #A7DED5",
"@X c #A9E1D6",
"#X c #ABE3D7",
"$X c #ACE3D7",
"%X c #ACE4D7",
"&X c #A1E0DC",
"*X c #A2E0DC",
"=X c #A2E0DD",
"-X c #A6E3DC",
";X c #A6E3DD",
":X c #A7E4DC",
">X c #ACE6DA",
",X c #A8E4DC",
"<X c #AAE6DC",
"1X c #ABE7DC",
"2X c #ABE7DD",
"3X c #ACE7DC",
"4X c #ABE8DD",
"5X c #B0E8D9",
"6X c #B4EDDB",
"7X c #B2ECDC",
"8X c #B7F0DC",
"9X c #B7F0DD",
"0X c #B9F1DC",
"qX c #B8F1DD",
"wX c None",
/* pixels */
"wXwXwXwXwXwXwXwXwXwXwXwXwXwXwXwXwXwXwXwXwXwXwXwXwXwXwXwXwXwXwXwXwXwXwXwXwXwXwXwXwXwXwXwXwXwXwXwXwXwXwXwXwXwXwXwXwXwXwXwXwXwXwXwX",
"wXwXwXwXwXwXwXwXwXwXwXwXwXwXwXwXwXwXwXwXwXwXwXwXwXwXwXwXwXwXwXwXwXwXwXwXwXwXwXwXwXwXwXwXwXwXwXwXwXwXwXwXwXwXwXwXwXwXwXwXwXwXwXwX",
"wXwXwXwXwXwXwXwXwXwXwXwXwXwXwXwXwXwXwXwXwXwXwXwXwXwXwXwXwXwXwXwXwXwXwXwXwXwXwXwXwXwXwXwXwXwXwXwXwXwXwXwXwXwXwXwXwXwXwXwXwXwXwXwX",
"wXwXwXwXwXwXwXwXwXwXwXwXwXwXwXwXwXwXwXwXwXwXwXwXwXwXwXwXwXwXwXwXwXwXwXwXwXwXwXwXwXwXwXwXwXwXwXwXwXwXwXwXwXwXwXwXwXwXwXwXwXwXwXwX",
"wXwXwXwXwXwXwXwXwXwXwXwXwXwXwXwXwXwXwXwXwXwXwXwXwXwXwXwXwXwXwXwXwXwXwXwXwXwXwXwXwXwXwXwXwXwXwXwXwXwXwXwXwXwXwXwXwXwXwXwXwXwXwXwX",
"wXwXwXwXwXwXwXwXwXwXwXwXwXwXwXwXwXwXwXwXwXwXwXwXwXwXwXwXwXwXwXwX- wXwXwXwXwXwXwXwXwXwXwXwXwXwXwXwXwXwXwXwXwXwXwXwXwXwXwXwXwXwXwX",
"wXwXwXwXwXwXwXwXwXwXwXwXwXwXwXwXwXwXwXwXwXwXwXwXwXwXwXwXwXwXwXwX- wXwXwXwXwXwXwXwXwXwXwXwXwXwXwXwXwXwXwXwXwXwXwXwXwXwXwXwXwXwXwX",
"wXwXwXwXwXwXwXwXwXwXwXwXwXwXwXwXwXwXwXwXwXwXwXwXwXwXwXwXwXwXwXwXwXwXwXwXwXwXwXwXwXwXwXwXwXwXwXwXwXwXwXwXwXwXwXwXwXwXwXwXwXwXwXwX",
"wXwXwXwXwXwXwXwXwXwXwXwXwXwXwXwXwXwXwXwXwXwXwXwXwXwXwXwXwXwXwXwXwXwXwXwXwXwXwXwXwXwXwXwXwXwXwXwXwXwXwXwXwXwXwXwXwXwXwXwXwXwXwXwX",
"wXwXwXwXwXwXwXwXwXwXwXwXwXwXwXwXwXwXwXwXR wXwXwXwXwXwXwX- - - - - & & # wXwXwXwXwXwXwXwXwXwXwXwXwXwXwXwXwXwXwXwXwXwXwXwXwXwXwXwX",
"wXwXwXwXwXwXwXwXwXwXwXwXwXwXwXwXwXwXwXwXwX/ wX- - - - - - - - - - q 9 s ; - - - - wXwXwXwXwXwXwXwXwXwXwXwXwXwXwXwXwXwXwXwXwXwXwX",
"wXwXwXwXwXwXwXwXwXwXwXwXwXwXwXwXwXwXwXwX* : e - - - - - - - - - - w 9 v h - - - - - * @ wXwXR wXwXR wXwXwXwXwXwXwXwXwXwXwXwXwXwX",
"wXwXwXwXwXwXwXwXwXwXwXwXwXwXwXwXwXwXwX- - - & - - - - - - - - - - & & * 3 - - - - & 8 d ! wXwXR wXwXR wXwXwXwXwXwXwXwXwXwXwXwXwX",
"wXwXwXwXwXwXwXwXwXwXwXwXwXwXwXwXwXwXwX- - - - 4 7 6 6 4 & $ $ $ $ $ $ & 4 5 2 2 2 M y.H.z.wXwXwXwXwXwXR wXwXwXwXwXwXwXwXwXwXwXwX",
"wXwXwXwXwXwXwXwXwXwXwXwXwXwXwXwXwXwXwX- - - - b { } | ' b h h h h g f c C  .d.h.h.~.W.f.4.wXwXwXR R R wXwXwXwXwXwXwXwXwXwXwXwXwX",
"wXwXwXwXwXwXwXwXwXwXwXwXwXwXwXwXwXwXwX- - - - 4 ] Q R R W W W U H <.8.r.G.(.;X=Xb.g.>.Y Y wXwXwXwXwXR wXwXwXwXwXwXwXwXwXwXwXwXwX",
"wXwXwXwXwXwXwXwXwXwXwXwXwXwXwXwXwXwXwX- - - - & n E Y Y Y Y P u.l.`.1X-X(.G.r.5.P K R R R wXwXwXR R R wXwXwXwXwXwXwXwXwXwXwXwXwX",
"wXwXwXwXwXwXwXwXwXwXwXwXwXwXwXwXwXwXwX- - - - o 2 _ 9.5.p.^.!.oX1XS.j.g.>.P Y Y R R R R R wXR wXR R wXwXwXwXwXwXwXwXwXwXwXwXwXwX",
"wXwXwXwXwXwXwXwXwXwXwXwXwXwXwXwXwXwXwX= = = + N +.T.4X<XoX!.^.p.5.:.G K R R R R R R R R R R R wXR wXwXwXwXwXwXwXwXwXwXwXwXwXwXwX",
"wXwXwXwXwXwXwXwXwXwXwXwXwXwXwXwXwXwXwXwXp =.P.{.#XM.s.x.u.P Y Y Y R R R R R R R R R R R wXwXwXwXwXwXwXwXwXwXwXwXwXwXwXwXwXwXwXwX",
"wXwXwXwXwXwXwXwXwXwXwXwXwXwXwXwXwXwXwX9X%XE.L.V i > 1 H L R R R R R R R R R R R R R R R wXwXwXwXwXwXwXwXwXwXwXwXwXwXwXwXwXwXwXwX",
"wXwXwXwXwXwXwXwXwXwXwXwXwXwXwXwXwXwXwXwX$.k O = = & 7 ` Q R R R R R R R R R R R R R R R wXwXwXwXwXwXwXwXwXwXwXwXwXwXwXwXwXwXwXwX",
"wXwXwXwXwXwXwXwXwXwXwXwXwXwXwXwXwXwXwXwX. % - - - - & m J R R R R R R R R R R R R R R R wXwXwXwXwXwXwXwXwXwXwXwXwXwXwXwXwXwXwXwX",
"wXwXwXwXwXwXwXwXwXwXwXwXwXwXwXwXwXwXwXwX- - - - - - - 4 ' R R R R R R R R R R R R R Y G wXwXwXwXwXwXwXwXwXwXwXwXwXwXwXwXwXwXwXwX",
"wXwXwXwXwXwXwXwXwXwXwXwXwXwXwXwXwXwXwXwXwX- - - - - - & n Q R R R R R R R R R Y Y K q.A.wXwXwXwXwXwXwXwXwXwXwXwXwXwXwXwXwXwXwXwX",
"wXwXwXwXwXwXwXwXwXwXwXwXwXwXwXwXwXwXwXwXwX- - - - - - * 7 ( Q R R R R R Y G :.5.p.!.XX0XwXwXwXwXwXwXwXwXwXwXwXwXwXwXwXwXwXwXwXwX",
"wXwXwXwXwXwXwXwXwXwXwXwXwXwXwXwXwXwXwXwXwX- - - - - - - & 6 ( W R Y Y K w.k.S.1XoX!.Q.wXwXwXwXwXwXwXwXwXwXwXwXwXwXwXwXwXwXwXwXwX",
"wXwXwXwXwXwXwXwXwXwXwXwXwXwXwXwXwXwXwXwXwX- - - - - - - - $ a F :.5.p.!.|.3X`.l.u.P Y wXwXwXwXwXwXwXwXwXwXwXwXwXwXwXwXwXwXwXwXwX",
"wXwXwXwXwXwXwXwXwXwXwXwXwXwXwXwXwXwXwXwXwX- - - - - = = = O l a.D.1XoX/.Z.7.,.G L R R wXwXwXwXwXwXwXwXwXwXwXwXwXwXwXwXwXwXwXwXwX",
"wXwXwXwXwXwXwXwXwXwXwXwXwXwXwXwXwXwXwXwXwX- - + . + i i V L.R.>X`.l.u.P Y Y R R R R R wXwXwXwXwXwXwXwXwXwXwXwXwXwXwXwXwXwXwXwXwX",
"wXwXwXwXwXwXwXwXwXwXwXwXwXwXwXwXwXwXwXwXwX% + N #.&.OX#X{.P.*.) 1.G L R R R R R R R R wXwXwXwXwXwXwXwXwXwXwXwXwXwXwXwXwXwXwXwXwX",
"wXwXwXwXwXwXwXwXwXwXwXwXwXwXwXwXwXwXwXwXwXJ.K.{.#XOX&.#.N o 0 Z E R R R R R R R R R R wXwXwXwXwXwXwXwXwXwXwXwXwXwXwXwXwXwXwXwXwX",
"wXwXwXwXwXwXwXwXwXwXwXwXwXwXwXwXwXwXwXwXwXwXU.V i i + . + $ h Q R R R R R R R R R R wXwXwXwXwXwXwXwXwXwXwXwXwXwXwXwXwXwXwXwXwXwX",
"wXwXwXwXwXwXwXwXwXwXwXwXwXwXwXwX- - wXwXwXwX+ = = = - - - & b W R R R R R R R R R R wXwXwXwXwXwXwXwXwXwXwXwXwXwXwXwXwXwXwXwXwXwX",
"wXwXwXwXwXwXwXwXwXwXwXwXwXwXwX- wXwX- wXwXwX- - - - - - - 4 ' R R R R R R R R R R T wXwXwXwXwXwXwXwXwXwXwXwXwXwXwXwXwXwXwXwXwXwX",
"wXwXwXwXwXwXwXwXwXwXwXwXwXwXwXwXwXwX- wXwXwX- - - - - - - 6 | R R R R R R R R R Y 3.wXwXwXwXwXwXwXwXwXwXwXwXwXwXwXwXwXwXwXwXwXwX",
"wXwXwXwXwXwXwXwXwXwXwXwXwXwXwX- wX- wXwXwXwX- - - - - - - 6 } R R R R R R R Y L q.].8XwXwXwXwXwXwXwXwXwXwXwXwXwXwXwXwXwXwXwXwXwX",
"wXwXwXwXwXwXwXwXwXwXwXwXwXwXwX- - wXwXwXwXwX- - - - - - - 6 } R R R R L G ,.7.C. X7XwXwXwXwXwXwXwXwXwXwXwXwXwXwXwXwXwXwXwXwXwXwX",
"wXwXwXwXwXwXwXwXwXwXwXwXwXwXwXwX- - wXwXwXwXwX- - - - - - 6 } R Y Y P u.l.`.3X XV.wXwXwXwXwXwXwXwXwXwXwXwXwXwXwXwXwXwXwXwXwXwXwX",
"wXwXwXwXwXwXwXwXwXwXwXwXwXwXwXwX- - wX- - wXwX- - - - - - 4 A P 5.r.F.oX1XS.k.w.L wXwXwXwXwXwXwXwXwXwXwXwXwXwXwXwXwXwXwXwXwXwXwX",
"wXwXwXwXwXwXwXwXwXwXwXwXwXwXwXwXwXwXwXwX- wXwX- - - - - % t 0.v.&X-X).i.5.:.G Y R wXwXwXwXwXwXwXwXwXwXwXwXwXwXwXwXwXwXwXwXwXwXwX",
"wXwXwXwXwXwXwXwXwXwXwXwXwXwXwXwXwXwXwXwXwXwXwX- - - O + u n..X*Xc.g.>.Y Y R R R R wXwXwXwXwXwXwXwXwXwXwXwXwXwXwXwXwXwXwXwXwXwXwX",
"wXwXwXwXwXwXwXwXwXwXwXwXwXwXwXwXwXwXwXwXwXwXwX+ + < X.&.OX}.C.5.P K R R R R R R R wXwXwXwXwXwXwXwXwXwXwXwXwXwXwXwXwXwXwXwXwXwXwX",
"wXwXwXwXwXwXwXwXwXwXwXwXwXwXwXwXwXwXwXwXwXwXwXL.K.I.+XOX&.-.I Y R R R R R R R R R wXwXwXwXwXwXwXwXwXwXwXwXwXwXwXwXwXwXwXwXwXwXwX",
"wXwXwXwXwXwXwXwXwXwXwXwXwXwXwXwXwXwXwXwXwXwXwX6XY.B.z i + ~ ..R R R R R R R R R R wXwXwXwXwXwXwXwXwXwXwXwXwXwXwXwXwXwXwXwXwXwXwX",
"wXwXwXwXwXwXwXwXwXwXwXwXwXwXwXwXwXwXwXwXwXwXwX%., + = = & ^ ..R R R R R R R R R R wXwXR wXwXR wXwXwXwXwXwXwXwXwXwXwXwXwXwXwXwXwX",
"wXwXwXwXwXwXwXwXwXwXwXwXwXwXwXwXwXwXwXwXwXwXwXwX- - - - & ^ ..R R R R R R R R T wXwXwXwXR wXwXR wXwXwXwXwXwXwXwXwXwXwXwXwXwXwXwX",
"wXwXwXwXwXwXwXwXwXwXwXwXwXwXwXwXwXwXwXwXwXwXwXwX- - - & r [ W R R R R R R R G e.wXwXwXwXwXwXwXwXR wXwXwXwXwXwXwXwXwXwXwXwXwXwXwX",
"wXwXwXwXwXwXwXwXwXwXwXwXwXwXwXwXwXwXwXwXwXwXwXwX- - - $ h Q R R R R R Y P >.f.[.8XwXwXwXwXR wXR wXwXwXwXwXwXwXwXwXwXwXwXwXwXwXwX",
"wXwXwXwXwXwXwXwXwXwXwXwXwXwXwXwXwXwXwXwXwXwXwXwX- - - $ h W R R Y G ;.t.G.(.-X,XwXwXwXwXwXwXR R wXwXwXwXwXwXwXwXwXwXwXwXwXwXwXwX",
"wXwXwXwXwXwXwXwXwXwXwXwXwXwXwXwXwXwXwXwXwXwXwXwX- - - $ h E Y K w.k.S.:X(.G.r.q.wXwXwXwXwXR R R wXwXwXwXwXwXwXwXwXwXwXwXwXwXwXwX",
"wXwXwXwXwXwXwXwXwXwXwXwXwXwXwXwXwXwXwXwXwXwXwXwXwXX X   j 6.p.!.|.3X'.f.>.P Y wXwXwXwXR wXR R wXwXwXwXwXwXwXwXwXwXwXwXwXwXwXwXwX",
"wXwXwXwXwXwXwXwXwXwXwXwXwXwXwXwXwXwXwXwXwXwXwXwXN.O.@.o.m.2XoX/.Z.7.,.K R R R wXwXwXR R wXR wXwXwXwXwXwXwXwXwXwXwXwXwXwXwXwXwXwX",
"wXwXwXwXwXwXwXwXwXwXwXwXwXwXwXwXwXwXwXwXwXwXwXwXqX5X@X$X_.l.u.P Y Y R R R R R wXwXwXwXwXwXwXwXwXwXwXwXwXwXwXwXwXwXwXwXwXwXwXwXwX",
"wXwXwXwXwXwXwXwXwXwXwXwXwXwXwXwXwXwXwXwXwXwXwXwX{.B i x 2.G L R R R R R R R R wXwXwXwXwXwXwXwXwXwXwXwXwXwXwXwXwXwXwXwXwXwXwXwXwX",
"wXwXwXwXwXwXwXwXwXwXwXwXwXwXwXwXwXwXwXwXwXwXwXwXwX% % 5 S R R R R R R R R R R wXwXwXwXwXwXwXwXwXwXwXwXwXwXwXwXwXwXwXwXwXwXwXwXwX",
"wXwXwXwXwXwXwXwXwXwXwXwXwXwXwXwXwXwXwXwXwXwXwXwXwX- - 6 } R R R R R R R R R R wXwXwXwXwXwXwXwXwXwXwXwXwXwXwXwXwXwXwXwXwXwXwXwXwX",
"wXwXwXwXwXwXwXwXwXwXwXwXwXwXwXwXwXwXwXwXwXwXwXwXwX- - 6 } R R R R R R R R R R wXwXwXwXwXwXwXwXwXwXwXwXwXwXwXwXwXwXwXwXwXwXwXwXwX",
"wXwXwXwXwXwXwXwXwXwXwXwXwXwXwXwXwXwXwXwXwXwXwX- - - - 6 } R R R R R R R R R R R R wXwXwXwXwXwXwXwXwXwXwXwXwXwXwXwXwXwXwXwXwXwXwX",
"wXwXwXwXwXwXwXwXwXwXwXwXwXwXwXwXwXwXwXwXwXwXwXwX- - - 4 } R R R R R R R R R R R wXwXwXwXwXwXwXwXwXwXwXwXwXwXwXwXwXwXwXwXwXwXwXwX",
"wXwXwXwXwXwXwXwXwXwXwXwXwXwXwXwXwXwXwXwXwXwXwXwX- - - y D R R R R R R R R R R R wXwXwXwXwXwXwXwXwXwXwXwXwXwXwXwXwXwXwXwXwXwXwXwX",
"wXwXwXwXwXwXwXwXwXwXwXwXwXwXwXwXwXwXwXwXwXwXwXwX- - * ^ ..R R R R R R R R R R R wXwXwXwXwXwXwXwXwXwXwXwXwXwXwXwXwXwXwXwXwXwXwXwX",
"wXwXwXwXwXwXwXwXwXwXwXwXwXwXwXwXwXwXwXwXwXwXwXwXwX- * ^ ..R R R R R R R R R R wXwXwXwXwXwXwXwXwXwXwXwXwXwXwXwXwXwXwXwXwXwXwXwXwX",
"wXwXwXwXwXwXwXwXwXwXwXwXwXwXwXwXwXwXwXwXwXwXwXwXwX- * ^ ..R R R R R R R R R R wXwXwXwXwXwXwXwXwXwXwXwXwXwXwXwXwXwXwXwXwXwXwXwXwX"
};
