/* XPM */
static char *result[] = {
/* columns rows colors chars-per-pixel */
"64 64 222 2 ",
"   c #1F4799",
".  c #214899",
"X  c #21499A",
"o  c #22499A",
"O  c #22499B",
"+  c #234A9A",
"@  c #224A9B",
"#  c #234B9B",
"$  c #254B99",
"%  c #244B9A",
"&  c #254B9A",
"*  c #244B9B",
"=  c #254C9A",
"-  c #244C9B",
";  c #254C9B",
":  c #254D9B",
">  c #214A9C",
",  c #244C9C",
"<  c #254C9C",
"1  c #254D9C",
"2  c #254E9D",
"3  c #254E9E",
"4  c #254F9E",
"5  c #254F9F",
"6  c #28509D",
"7  c #29519D",
"8  c #29519E",
"9  c #2D559F",
"0  c #2D569F",
"q  c #214FA1",
"w  c #214FA2",
"e  c #2350A2",
"r  c #2550A0",
"t  c #2551A1",
"y  c #2451A2",
"u  c #2452A2",
"i  c #2452A3",
"p  c #2453A3",
"a  c #2453A4",
"s  c #2854A2",
"d  c #2456A9",
"f  c #2457A9",
"g  c #315AA1",
"h  c #335BA0",
"j  c #325BA2",
"k  c #325CA2",
"l  c #335CA2",
"z  c #335DA2",
"x  c #345EA3",
"c  c #235CB0",
"v  c #235CB1",
"b  c #215DB3",
"n  c #235DB2",
"m  c #225DB3",
"M  c #225EB3",
"N  c #235EB3",
"B  c #265FB2",
"V  c #3660A3",
"C  c #3761A4",
"Z  c #3963A5",
"A  c #3A65A5",
"S  c #2361B6",
"D  c #2764B6",
"F  c #2B67B7",
"G  c #2263BA",
"H  c #2265BC",
"J  c #2469BF",
"K  c #4672AB",
"L  c #507DAF",
"P  c #1D6AC7",
"I  c #1E6BC7",
"U  c #1C77D8",
"Y  c #1F79D8",
"T  c #1B7BDE",
"R  c #1C7BDE",
"E  c #1B7CDF",
"W  c #1F7DDD",
"Q  c #1C7CDE",
"!  c #1D7CDE",
"~  c #1D7DDE",
"^  c #1E7DDE",
"/  c #1E7EDE",
"(  c #1F7EDE",
")  c #1E7EDF",
"_  c #1F7EDF",
"`  c #1F7FDF",
"'  c #2268C1",
"]  c #206CC7",
"[  c #216DC7",
"{  c #216EC8",
"}  c #2073CF",
"|  c #2074D0",
" . c #2077D4",
".. c #2079D8",
"X. c #207AD8",
"o. c #257DD8",
"O. c #207FDE",
"+. c #1B7DE0",
"@. c #1E7EE0",
"#. c #1F7FE0",
"$. c #5380B0",
"%. c #5381B0",
"&. c #5684B1",
"*. c #5684B2",
"=. c #5784B2",
"-. c #5785B2",
";. c #5886B2",
":. c #5987B3",
">. c #608FB6",
",. c #6696B9",
"<. c #6A9ABA",
"1. c #74A6BF",
"2. c #2180DE",
"3. c #2280DE",
"4. c #2381DE",
"5. c #2482DE",
"6. c #2582DE",
"7. c #2583DE",
"8. c #2784DE",
"9. c #2A87DE",
"0. c #2B87DE",
"q. c #2B88DE",
"w. c #2C88DE",
"e. c #2D88DE",
"r. c #2D8ADF",
"t. c #2F8ADE",
"y. c #308BDE",
"u. c #318BDE",
"i. c #318CDE",
"p. c #308CDF",
"a. c #368DDC",
"s. c #358FDE",
"d. c #3C94DE",
"f. c #3F96DE",
"g. c #559ACE",
"h. c #4F9DD7",
"j. c #4198DE",
"k. c #449ADE",
"l. c #4A9EDD",
"z. c #4B9FDD",
"x. c #4C9FDD",
"c. c #519CD4",
"v. c #519ED7",
"b. c #4CA0DD",
"n. c #4EA1DD",
"m. c #4FA2DD",
"M. c #50A2DD",
"N. c #50A3DE",
"B. c #53A5DD",
"V. c #54A6DD",
"C. c #55A6DD",
"Z. c #55A7DE",
"A. c #58A9DE",
"S. c #5CACDD",
"D. c #5DACDD",
"F. c #74A7C0",
"G. c #74A7C1",
"H. c #7CAEC3",
"J. c #7FB1C4",
"K. c #7FB2C4",
"L. c #7EB6C9",
"P. c #67B4DD",
"I. c #66B4DE",
"U. c #71BBDE",
"Y. c #72BCDD",
"T. c #73BDDD",
"R. c #79C2DD",
"E. c #7CC4DD",
"W. c #86B9C7",
"Q. c #87BAC7",
"!. c #89BCC8",
"~. c #8ABEC9",
"^. c #8BBEC9",
"/. c #8BBFC9",
"(. c #8DC1CA",
"). c #8DC2CA",
"_. c #93C8CD",
"`. c #99CFCF",
"'. c #85C4D5",
"]. c #88C6D5",
"[. c #83C9DD",
"{. c #85CADD",
"}. c #87CCDD",
"|. c #8CCDD9",
" X c #88CDDD",
".X c #89CEDD",
"XX c #8CCFDD",
"oX c #8DD0DD",
"OX c #9ED4D1",
"+X c #9ED5D2",
"@X c #92D4DC",
"#X c #92D4DD",
"$X c #9DDCDC",
"%X c #9EDDDC",
"&X c #9FDDDC",
"*X c #9FDEDC",
"=X c #A6DDD5",
"-X c #A7DED5",
";X c #AAE1D7",
":X c #AAE2D7",
">X c #ABE2D7",
",X c #ACE3D7",
"<X c #A7E2DA",
"1X c #A1E0DC",
"2X c #A2E0DC",
"3X c #A6E3DC",
"4X c #ACE4D8",
"5X c #AEE6D8",
"6X c #A8E5DC",
"7X c #A9E5DC",
"8X c #AAE6DC",
"9X c #ABE7DC",
"0X c #AAE7DD",
"qX c #ABE7DD",
"wX c #ACE7DC",
"eX c #AFEADC",
"rX c #B5EEDC",
"tX c #B8F1DC",
"yX c #B9F1DC",
"uX c #B8F2DD",
"iX c #BAF2DC",
"pX c None",
/* pixels */
"pXpXpXpXpXpXpXpXpXpXpXpXpXpXpXpXpXpXpXpXpXpXpXpXpXpXpXpXpXpXpXpXpXpXpXpXpXpXpXpXpXpXpXpXpXpXpXpXpXpXpXpXpXpXpXpXpXpXpXpXpXpXpXpX",
"pXpXpXpXpXpXpXpXpXpXpXpXpXpXpXpXpXpXpXpXpXpXpXpXpXpXpXpXpXpXpXpXpXpXpXpXpXpXpXpXpXpXpXpXpXpXpXpXpXpXpXpXpXpXpXpXpXpXpXpXpXpXpXpX",
"pXpXpXpXpXpXpXpXpXpXpXpXpXpXpXpXpXpXpXpXpXpXpXpXpXpXpXpXpXpXpXpXpXpXpXpXpXpXpXpXpXpXpXpXpXpXpXpXpXpXpXpXpXpXpXpXpXpXpXpXpXpXpXpX",
"pXpXpXpXpXpXpXpXpXpXpXpXpXpXpXpXpXpXpXpXpXpXpXpXpXpXpXpXpXpXpXpXpXpXpXpXpXpXpXpXpXpXpXpXpXpXpXpXpXpXpXpXpXpXpXpXpXpXpXpXpXpXpXpX",
"pXpXpXpXpXpXpXpXpXpXpXpXpXpXpXpXpXpXpXpXpXpXpXpXpXpXpXpXpXpXpXpXpXpXpXpXpXpXpXpXpXpXpXpXpXpXpXpXpXpXpXpXpXpXpXpXpXpXpXpXpXpXpXpX",
"pXpXpXpXpXpXpXpXpXpXpXpXpXpXpXpXpXpXpXpXpXpXpXpXpXpXpXpXpXpXpXpXpXpXpXpXpXpXpXpXpXpXpXpXpXpXpXpXpXpXpXpXpXpXpXpXpXpXpXpXpXpXpXpX",
"pXpXpXpXpXpXpXpXpXpXpXpXpXpXpXpXpXpXpXpXpXpXpXpXpXpXpXpXpXpXpXpXpXpXpXpXpXpXpXpXpXpXpXpXpXpXpXpXpXpXpXpXpXpXpXpXpXpXpXpXpXpXpXpX",
"pXpXpXpXpXpXpXpXpXpXpXpXpXpXpXpXpXpXpXpXpXpXpXpXpXpXpXpXpXpXpXpXpXpXpXpXpXpXpXpXpXpXpXpXpXpXpXpXpXpXpXpXpXpXpXpXpXpXpXpXpXpXpXpX",
"pXpXpXpXpXpXpXpXpXpXpXpXpXpXpXpXpXpXpXpXpXpXpXpXpXpXpXpXpXpXpXpXpXpXpXpXpXpXpXpXpXpXpXpXpXpXpXpXpXpXpXpXpXpXpXpXpXpXpXpXpXpXpXpX",
"pXpXpXpXpXpXpXpXpXpXpXpXpXpXpXpXpXpXpXpXpXpXpXpXpXpXpXpX1 1 1 1 r 5 c  .pXpXpXpXpXpXpXpXpXpXpXpXpXpXpXpXpXpXpXpXpXpXpXpXpXpXpXpX",
"pXpXpXpXpXpXpXpXpXpXpXpXpXpXpXpXpXpXpXpXpXpXpX1 1 1 1 1 1 1 1 ; f d 3 i 2 1 1 1 1 pXpXpXpXpXpX( pXpXpXpXpXpXpXpXpXpXpXpXpXpXpXpX",
"pXpXpXpXpXpXpXpXpXpXpXpXpXpXpXpXpXpXpXpX1 1 1 1 1 1 1 1 1 1 1 1 1 1 1 1 1 1 1 1 1 1 : $ pXpXpXpXpXpXpXpXpXpXpXpXpXpXpXpXpXpXpXpX",
"pXpXpXpXpXpXpXpXpXpXpXpXpXpXpXpXpXpXpX1 1 1 1 1 1 1 1 1 1 1 1 1 1 1 1 1 1 1 1 1 1 ; p n ' pXpXpXpXpXpXpXpXpXpXpXpXpXpXpXpXpXpXpX",
"pXpXpXpXpXpXpXpXpXpXpXpXpXpXpXpXpXpXpX1 1 1 1 1 1 1 1 1 ; = = = = = = ; q w y u y G | ` ( pXpXpXpXpXpXpXpXpXpXpXpXpXpXpXpXpXpXpX",
"pXpXpXpXpXpXpXpXpXpXpXpXpXpXpXpXpXpXpX1 1 1 1 1 1 1 1 4 v M m m b m m D c.v.o.Y ..W ` ( ( pXpXpXpXpX( ( pXpXpXpXpXpXpXpXpXpXpXpX",
"pXpXpXpXpXpXpXpXpXpXpXpXpXpXpXpXpXpXpX1 1 1 1 1 1 # o > J r.w.I.}.R.T.U.A.N.5.( ( ( ( ( ( pXpXpXpXpXpX( pXpXpXpXpXpXpXpXpXpXpXpX",
"pXpXpXpXpXpXpXpXpXpXpXpXpXpXpXpXpXpXpX1 1 < , , # K :.&.F.0X8X@X{.n.t.t.~ Q ( ( ( ( ( ( ( pXpXpXpXpXpXpXpXpXpXpXpXpXpXpXpXpXpXpX",
"pXpXpXpXpXpXpXpXpXpXpXpXpXpXpXpXpXpXpXO X 0 k <.!.OX>X,X(.g.Z.u.Q ^ ^ ^ ( ( ( ( ( ( ( ( ( pX( pXpX( pXpXpXpXpXpXpXpXpXpXpXpXpXpX",
"pXpXpXpXpXpXpXpXpXpXpXpXpXpXpXpXpXpXpX;.-.).4X_.Q.L g z 9 P +.^ ( ( ( ( ( ( ( ( ( ( ( ( ( pX( pXpXpXpXpXpXpXpXpXpXpXpXpXpXpXpXpX",
"pXpXpXpXpXpXpXpXpXpXpXpXpXpXpXpXpXpXpXrX4X1.=.V @ , , , ; [ #.( ( ( ( ( ( ( ( ( ( ( ( ( pXpXpXpXpXpXpXpXpXpXpXpXpXpXpXpXpXpXpXpX",
"pXpXpXpXpXpXpXpXpXpXpXpXpXpXpXpXpXpXpXpXx 6 X - 1 1 1 1 : [ #.( ( ( ( ( ( ( ( ( ( ( ( ( pXpXpXpXpXpXpXpXpXpXpXpXpXpXpXpXpXpXpXpX",
"pXpXpXpXpXpXpXpXpXpXpXpXpXpXpXpXpXpXpXpX, 1 1 1 1 1 1 1 ; [ #.( ( ( ( ( ( ( ( ( ( ( ( Q pXpXpXpXpXpXpXpXpXpXpXpXpXpXpXpXpXpXpXpX",
"pXpXpXpXpXpXpXpXpXpXpXpXpXpXpXpXpXpXpXpX1 1 1 1 1 1 1 : a } ` ( ( ( ( ( ( ( ( ( ( ^ ^ k.pXpXpXpXpXpXpXpXpXpXpXpXpXpXpXpXpXpXpXpX",
"pXpXpXpXpXpXpXpXpXpXpXpXpXpXpXpXpXpXpXpX1 1 1 1 1 1 1 = N ` ( ( ( ( ( ( ( ( ^ T 3.0.l.3XtXpXpXpXpXpXpXpXpXpXpXpXpXpXpXpXpXpXpXpX",
"pXpXpXpXpXpXpXpXpXpXpXpXpXpXpXpXpXpXpXpXpX1 1 1 1 1 1 = N _ ( ( ( ( ( ^ ^ Q u.B.Y.8XeXyXpXpXpXpXpXpXpXpXpXpXpXpXpXpXpXpXpXpXpXpX",
"pXpXpXpXpXpXpXpXpXpXpXpXpXpXpXpXpXpXpXpXpX1 1 1 1 1 1 = N _ ( ( ^ T 3.0.x.{.@XwXXXB.V.pXpXpXpXpXpXpXpXpXpXpXpXpXpXpXpXpXpXpXpXpX",
"pXpXpXpXpXpXpXpXpXpXpXpXpXpXpXpXpXpXpXpXpX1 1 1 1 1 1 = N ) ^ Q u.B.Y.9X$X}.P.e.8.T R pXpXpXpXpXpXpXpXpXpXpXpXpXpXpXpXpXpXpXpXpX",
"pXpXpXpXpXpXpXpXpXpXpXpXpXpXpXpXpXpXpXpXpX1 1 1 1 1 @ . B q.x.{.@XwXXXC.j.~ ^ ^ ( ( ( pXpXpXpXpXpXpXpXpXpXpXpXpXpXpXpXpXpXpXpXpX",
"pXpXpXpXpXpXpXpXpXpXpXpXpXpXpXpXpXpXpXpXpX, , , # 8 %.*.G.qX$X}.P.e.8.T ! ( ( ( ( ( ( pXpXpXpXpXpXpXpXpXpXpXpXpXpXpXpXpXpXpXpXpX",
"pXpXpXpXpXpXpXpXpXpXpXpXpXpXpXpXpXpXpXpXpXZ j <.!.~.-X,X|.C.j.~ ^ ^ ( ( ( ( ( ( ( ( ( pXpXpXpXpXpXpXpXpXpXpXpXpXpXpXpXpXpXpXpXpX",
"pXpXpXpXpXpXpXpXpXpXpXpXpXpXpXpXpXpXpXpXpX5X;X_.Q.K.A h F E ! ( ( ( ( ( ( ( ( ( ( ( ( pXpXpXpXpXpXpXpXpXpXpXpXpXpXpXpXpXpXpXpXpX",
"pXpXpXpXpXpXpXpXpXpXpXpXpXpXpXpXpXpXpXpXpX,.;.V @ - , % m _ ( ( ( ( ( ( ( ( ( ( ( ( ( pXpXpXpXpXpXpXpXpXpXpXpXpXpXpXpXpXpXpXpXpX",
"pXpXpXpXpXpXpXpXpXpXpXpXpXpXpXpXpXpXpXpXpXpXo - 1 1 1 = N _ ( ( ( ( ( ( ( ( ( ( ( ( pXpXpXpXpXpXpXpXpXpXpXpXpXpXpXpXpXpXpXpXpXpX",
"pXpXpXpXpXpXpXpXpXpXpXpXpXpXpXpXpXpXpXpXpXpX1 1 1 1 1 ; S _ ( ( ( ( ( ( ( ( ( ( ( Q pXpXpXpXpXpXpXpXpXpXpXpXpXpXpXpXpXpXpXpXpXpX",
"pXpXpXpXpXpXpXpXpXpXpXpXpXpXpXpXpXpXpXpXpXpX1 1 1 1 1 t  .( ( ( ( ( ( ( ( ( ( ( ^ k.pXpXpXpXpXpXpXpXpXpXpXpXpXpXpXpXpXpXpXpXpXpX",
"pXpXpXpXpXpXpXpXpXpXpXpXpXpXpXpXpX1 pXpXpXpX1 1 1 1 1 u X.( ( ( ( ( ( ( ( ! T 6.x.7XyXpXpXpXpXpXpXpXpXpXpXpXpXpXpXpXpXpXpXpXpXpX",
"pXpXpXpXpXpXpXpXpXpXpXpXpXpXpX1 1 pXpXpXpXpX1 1 1 1 1 u ..( ( ( ( ( ^ ^ ~ j.C.oX&X[.pXpXpXpXpXpXpXpXpXpXpXpXpXpXpXpXpXpXpXpXpXpX",
"pXpXpXpXpXpXpXpXpXpXpXpXpXpXpX1 pXpXpXpXpXpX1 1 1 1 1 u ..( ( ( Q ~ 0.P.}.$X9XT.f.R pXpXpXpXpXpXpXpXpXpXpXpXpXpXpXpXpXpXpXpXpXpX",
"pXpXpXpXpXpXpXpXpXpXpXpXpXpXpXpXpXpXpXpXpXpXpX1 1 1 1 u ../ ^ 4.m.S.2X@X{.x.0.3.Q pXpXpXpXpXpXpXpXpXpXpXpXpXpXpXpXpXpXpXpXpXpXpX",
"pXpXpXpXpXpXpXpXpXpXpXpXpXpXpXpX1 1 pXpXpXpXpX1 1 1 1 y U 7.b..X3X1XD.y.Q ^ ^ ( ( pXpXpXpXpXpXpXpXpXpXpXpXpXpXpXpXpXpXpXpXpXpXpX",
"pXpXpXpXpXpXpXpXpXpXpXpXpXpXpXpXpXpXpX1 1 pXpX< , , # s h.oX*XE.s.0.~ ^ ( ( ( ( ( pXpXpXpXpXpXpXpXpXpXpXpXpXpXpXpXpXpXpXpXpXpXpX",
"pXpXpXpXpXpXpXpXpXpXpXpXpXpXpXpXpXpXpXpXpXpXpX0 l A J./.<XT.f.~ ^ ^ ( ( ( ( ( ( ( pXpXpXpXpXpXpXpXpXpXpXpXpXpXpXpXpXpXpXpXpXpXpX",
"pXpXpXpXpXpXpXpXpXpXpXpXpXpXpXpXpXpXpXpXpXpXpX=X:X-X^.L.a.2.Q ( ( ( ( ( ( ( ( ( ( pXpXpXpXpXpXpXpXpXpXpXpXpXpXpXpXpXpXpXpXpXpXpX",
"pXpXpXpXpXpXpXpXpXpXpXpXpXpXpXpXpXpXpXpXpXpXpX=X>.$.7 e Y ( ( ( ( ( ( ( ( ( ( ( ( pXpXpXpXpXpXpXpXpXpXpXpXpXpXpXpXpXpXpXpXpXpXpX",
"pXpXpXpXpXpXpXpXpXpXpXpXpXpXpXpXpXpXpXpXpXpXpXC # @ < y ..( ( ( ( ( ( ( ( ( ( ( / pXpXpX( pXpXpXpXpXpXpXpXpXpXpXpXpXpXpXpXpXpXpX",
"pXpXpXpXpXpXpXpXpXpXpXpXpXpXpXpXpXpXpXpXpXpXpX, 1 1 : G W ( ( ( ( ( ( ( ( ( ( ( 9.pXpXpXpXpXpXpXpXpXpXpXpXpXpXpXpXpXpXpXpXpXpXpX",
"pXpXpXpXpXpXpXpXpXpXpXpXpXpXpXpXpXpXpXpXpXpXpXpX1 1 : { #.( ( ( ( ( ( ( ^ ^ ! z.%XpXpXpXpXpXpXpXpXpXpXpXpXpXpXpXpXpXpXpXpXpXpXpX",
"pXpXpXpXpXpXpXpXpXpXpXpXpXpXpXpXpXpXpXpXpXpXpXpX1 1 : [ #.( ( ( ( ( ^ ~ 0.s.E.6XiXpXpXpXpX( pXpXpXpXpXpXpXpXpXpXpXpXpXpXpXpXpXpX",
"pXpXpXpXpXpXpXpXpXpXpXpXpXpXpXpXpXpXpXpXpXpXpXpX1 1 : [ #.( ( ^ ^ Q y.D.1X3X X[.pXpXpXpXpXpX( ( ( pXpXpXpXpXpXpXpXpXpXpXpXpXpXpX",
"pXpXpXpXpXpXpXpXpXpXpXpXpXpXpXpXpXpXpXpXpXpXpXpX1 1 : [ @.T 3.0.x.{.@X2XS.m.4.~ pXpXpXpXpXpXpXpX( pXpXpXpXpXpXpXpXpXpXpXpXpXpXpX",
"pXpXpXpXpXpXpXpXpXpXpXpXpXpXpXpXpXpXpXpXpXpXpXpX# - * I p.B.Y.9X$X}.P.0.~ Q ( ( pXpXpXpXpXpXpX( pXpXpXpXpXpXpXpXpXpXpXpXpXpXpXpX",
"pXpXpXpXpXpXpXpXpXpXpXpXpXpXpXpXpXpXpXpXpXpXpXpX+XW.Q.'.#XwXXXC.j.~ ^ ^ ( ( ( pXpXpXpX( pXpX( pXpXpXpXpXpXpXpXpXpXpXpXpXpXpXpXpX",
"pXpXpXpXpXpXpXpXpXpXpXpXpXpXpXpXpXpXpXpXpXpXpXpXuX`.W.].I.e.8.T ! ( ( ( ( ( ( pXpXpX( ( pXpXpXpXpXpXpXpXpXpXpXpXpXpXpXpXpXpXpXpX",
"pXpXpXpXpXpXpXpXpXpXpXpXpXpXpXpXpXpXpXpXpXpXpXpXH.V + ] @.^ ( ( ( ( ( ( ( ( ( pXpXpXpXpXpXpXpXpXpXpXpXpXpXpXpXpXpXpXpXpXpXpXpXpX",
"pXpXpXpXpXpXpXpXpXpXpXpXpXpXpXpXpXpXpXpXpXpXpXpX  - : [ #.( ( ( ( ( ( ( ( ( ( ( pXpXpXpXpXpXpXpXpXpXpXpXpXpXpXpXpXpXpXpXpXpXpXpX",
"pXpXpXpXpXpXpXpXpXpXpXpXpXpXpXpXpXpXpXpXpXpXpXpX1 1 ; [ #.( ( ( ( ( ( ( ^ Q ( ( pXpXpXpXpXpXpXpXpXpXpXpXpXpXpXpXpXpXpXpXpXpXpXpX",
"pXpXpXpXpXpXpXpXpXpXpXpXpXpXpXpXpXpXpXpXpXpXpXpX1 : a } ` ( ( ( ( ( ( ~ i.M.5.( pXpXpXpXpXpXpXpXpXpXpXpXpXpXpXpXpXpXpXpXpXpXpXpX",
"pXpXpXpXpXpXpXpXpXpXpXpXpXpXpXpXpXpXpXpXpXpXpX1 1 = N ` ( ( ( ( ( ~ d.T.}.$Xw.^ ( pXpXpXpXpXpXpXpXpXpXpXpXpXpXpXpXpXpXpXpXpXpXpX",
"pXpXpXpXpXpXpXpXpXpXpXpXpXpXpXpXpXpXpXpXpXpXpXpX1 = N _ ( ( ( ( ( ( 7.u.t.w.O.( pXpXpXpXpXpXpXpXpXpXpXpXpXpXpXpXpXpXpXpXpXpXpXpX",
"pXpXpXpXpXpXpXpXpXpXpXpXpXpXpXpXpXpXpXpXpXpXpXpX1 = N _ ( ( ( ( ( ( ( ^ ^ ^ ( ( pXpXpXpXpXpXpXpXpXpXpXpXpXpXpXpXpXpXpXpXpXpXpXpX",
"pXpXpXpXpXpXpXpXpXpXpXpXpXpXpXpXpXpXpXpXpXpXpXpXpX= N _ ( ( ( ( ( ( ( ( ( ( ( pXpXpXpXpXpXpXpXpXpXpXpXpXpXpXpXpXpXpXpXpXpXpXpXpX",
"pXpXpXpXpXpXpXpXpXpXpXpXpXpXpXpXpXpXpXpXpXpXpXpXpX& N _ ( ( ( ( ( ( ( ( ( ( ( pXpXpXpXpXpXpXpXpXpXpXpXpXpXpXpXpXpXpXpXpXpXpXpXpX",
"pXpXpXpXpXpXpXpXpXpXpXpXpXpXpXpXpXpXpXpXpXpXpXpXpXpXH ( ( ( ( ( ( ( ( ( ( ( pXpXpXpXpXpXpXpXpXpXpXpXpXpXpXpXpXpXpXpXpXpXpXpXpXpX",
"pXpXpXpXpXpXpXpXpXpXpXpXpXpXpXpXpXpXpXpXpX1 pXpXpXpXpX( ( ( ( ( ( ( ( ( ( pXpXpXpXpX( pXpXpXpXpXpXpXpXpXpXpXpXpXpXpXpXpXpXpXpXpX"
};
