/* XPM */
static char *result[] = {
/* columns rows colors chars-per-pixel */
"64 64 224 2 ",
"   c #224899",
".  c #21489A",
"X  c #21499A",
"o  c #22499A",
"O  c #22499B",
"+  c #234A9A",
"@  c #234B9B",
"#  c #254B99",
"$  c #254B9A",
"%  c #244B9B",
"&  c #254C9A",
"*  c #244C9B",
"=  c #254C9B",
"-  c #254D9B",
";  c #244C9C",
":  c #254C9C",
">  c #244D9C",
",  c #254D9C",
"<  c #254E9D",
"1  c #254E9E",
"2  c #254F9E",
"3  c #28509D",
"4  c #2D559E",
"5  c #2D569F",
"6  c #35579B",
"7  c #395A9B",
"8  c #214EA1",
"9  c #2250A2",
"0  c #2450A1",
"q  c #2451A1",
"w  c #2551A1",
"e  c #2451A2",
"r  c #2452A2",
"t  c #2357AA",
"y  c #2457AA",
"u  c #2458AB",
"i  c #235BAF",
"p  c #315AA1",
"a  c #325CA2",
"s  c #335CA2",
"d  c #345EA3",
"f  c #225CB1",
"g  c #235CB1",
"h  c #235DB2",
"j  c #235EB3",
"k  c #215FB6",
"l  c #3963A5",
"z  c #3A64A5",
"x  c #3B65A5",
"c  c #3A67A8",
"v  c #2361B6",
"b  c #2662B5",
"n  c #2263BA",
"m  c #306CB7",
"M  c #3F77BA",
"N  c #516B9A",
"B  c #506B9B",
"V  c #4A6BA1",
"C  c #496BA2",
"Z  c #4571AA",
"A  c #4671AA",
"S  c #4672AB",
"D  c #507DAF",
"F  c #537FAF",
"G  c #4579B6",
"H  c #4E7DB3",
"J  c #4F7DB3",
"K  c #4B7DB6",
"L  c #1F6BC7",
"P  c #1D76D6",
"I  c #1E78D8",
"U  c #1E79D8",
"Y  c #1F79D8",
"T  c #1F7BDA",
"R  c #1B7BDE",
"E  c #1F7DDC",
"W  c #1F7DDD",
"Q  c #1C7CDE",
"!  c #1D7CDE",
"~  c #1D7DDE",
"^  c #1C7CDF",
"/  c #1C7DDF",
"(  c #1D7DDF",
")  c #1E7DDE",
"_  c #1E7EDE",
"`  c #1F7EDE",
"'  c #1E7EDF",
"]  c #1F7EDF",
"[  c #1F7FDF",
"{  c #2268C0",
"}  c #2268C1",
"|  c #206CC7",
" . c #216DC7",
".. c #216EC8",
"X. c #216FC9",
"o. c #2077D4",
"O. c #2078D5",
"+. c #2278D4",
"@. c #2078D6",
"#. c #2F7ED0",
"$. c #2B7FD4",
"%. c #2079D8",
"&. c #207AD8",
"*. c #237EDA",
"=. c #267ED8",
"-. c #277FD8",
";. c #217EDD",
":. c #207FDE",
">. c #217FDE",
",. c #1E7EE0",
"<. c #1F7FE0",
"1. c #5784B1",
"2. c #5684B2",
"3. c #5784B2",
"4. c #5785B2",
"5. c #5285B6",
"6. c #5886B3",
"7. c #5987B3",
"8. c #608FB6",
"9. c #6494B8",
"0. c #74A6BF",
"q. c #3280CF",
"w. c #2180DE",
"e. c #2280DE",
"r. c #2381DE",
"t. c #2481DE",
"y. c #2582DE",
"u. c #2583DE",
"i. c #2784DE",
"p. c #2A87DE",
"a. c #2B87DE",
"s. c #2C88DE",
"d. c #2D88DE",
"f. c #2D89DE",
"g. c #2F8ADE",
"h. c #3D8FD7",
"j. c #308BDE",
"k. c #318BDE",
"l. c #318CDE",
"z. c #358FDE",
"x. c #368FDE",
"c. c #3C94DE",
"v. c #3F96DE",
"b. c #4198DE",
"n. c #4B9FDD",
"m. c #4C9FDD",
"M. c #4CA0DD",
"N. c #4EA1DD",
"B. c #4FA2DD",
"V. c #53A5DD",
"C. c #55A6DD",
"Z. c #5CACDD",
"A. c #7EB7CB",
"S. c #67B4DD",
"D. c #66B4DE",
"F. c #68B4DD",
"G. c #68B5DD",
"H. c #6AB6DD",
"J. c #6FBADD",
"K. c #71BCDD",
"L. c #72BCDD",
"P. c #73BDDD",
"I. c #74BEDD",
"U. c #7DC0D7",
"Y. c #79C1DD",
"T. c #7CC4DD",
"R. c #7DC4DD",
"E. c #7FC6DD",
"W. c #86B9C7",
"Q. c #87BAC7",
"!. c #8ABDC8",
"~. c #8DC2CA",
"^. c #93C8CD",
"/. c #94C9CD",
"(. c #94CACD",
"). c #86C5D5",
"_. c #87C6D5",
"`. c #8AC4D0",
"'. c #84CADD",
"]. c #85CADD",
"[. c #85CBDD",
"{. c #86CBDD",
"}. c #87CCDD",
"|. c #89CDDC",
" X c #89CDDD",
".X c #89CEDD",
"XX c #8CCFDD",
"oX c #8CD0DD",
"OX c #8DD0DD",
"+X c #9ED4D1",
"@X c #92D4DC",
"#X c #92D4DD",
"$X c #9CDBDC",
"%X c #9DDCDC",
"&X c #9FDEDC",
"*X c #9FDEDD",
"=X c #A2D9D3",
"-X c #A6DDD5",
";X c #A7DDD5",
":X c #A1DFDC",
">X c #A7E0D7",
",X c #AAE1D7",
"<X c #AAE2D7",
"1X c #ABE2D7",
"2X c #ABE3D7",
"3X c #A1E0DC",
"4X c #A6E3DC",
"5X c #A7E4DC",
"6X c #ACE4D8",
"7X c #ADE5D8",
"8X c #AEE6D9",
"9X c #ACE5DA",
"0X c #A9E6DC",
"qX c #AAE6DC",
"wX c #ABE7DC",
"eX c #ACE7DC",
"rX c #B4EDDB",
"tX c #B4EDDC",
"yX c #B4EEDC",
"uX c #B5EEDC",
"iX c #B7F0DC",
"pX c #B9F3DE",
"aX c #BAF3DE",
"sX c None",
/* pixels */
"sXsXsXsXsXsXsXsXsXsXsXsXsXsXsXsXsXsXsXsXsXsXsXsXsXsXsXsXsXsXsXsXsXsXsXsXsXsXsXsXsXsXsXsXsXsXsXsXsXsXsXsXsXsXsXsXsXsXsXsXsXsXsXsX",
"sXsXsXsXsXsXsXsXsXsXsXsXsXsXsXsXsXsXsXsXsXsXsXsXsXsXsXsXsXsXsXsXsXsXsXsXsXsXsXsXsXsXsXsXsXsXsXsXsXsXsXsXsXsXsXsXsXsXsXsXsXsXsXsX",
"sXsXsXsXsXsXsXsXsXsXsXsXsXsXsXsXsXsXsXsXsXsXsXsXsXsXsXsXsXsXsXsXsXsXsXsXsXsXsXsXsXsXsXsXsXsXsXsXsXsXsXsXsXsXsXsXsXsXsXsXsXsXsXsX",
"sXsXsXsXsXsXsXsXsXsXsXsXsXsXsXsXsXsXsXsXsXsXsXsXsXsXsXsXsXsXsXsXsXsXsXsXsXsXsXsXsXsXsXsXsXsXsXsXsXsXsXsXsXsXsXsXsXsXsXsXsXsXsXsX",
"sXsXsXsXsXsXsXsXsXsXsXsXsXsXsXsXsXsXsXsXsXsXsXsXsXsXsXsXsXsXsXsXsXsXsXsXsXsXsXsXsXsXsXsXsXsXsXsXsXsXsXsXsXsXsXsXsXsXsXsXsXsXsXsX",
"sXsXsXsXsXsXsXsXsXsXsXsXsXsXsXsXsXsXsXsXsXsXsXsXsXsXsXsXsXsXsXsXsXsXsXsXsXsXsXsXsXsXsXsXsXsXsXsXsXsXsXsXsXsXsXsXsXsXsXsXsXsXsXsX",
"sXsXsXsXsXsXsXsXsXsXsXsXsXsXsXsXsXsXsXsXsXsXsXsXsXsXsXsXsXsXsXsXsXsXsXsXsXsXsXsXsXsXsXsXsXsXsXsXsXsXsXsXsXsXsXsXsXsXsXsXsXsXsXsX",
"sXsXsXsXsXsXsXsXsXsXsXsXsXsXsXsXsXsXsXsXsXsXsXsXsXsXsXsXsXsXsXsXsXsXsXsXsXsXsXsXsXsXsXsXsXsXsXsXsXsXsXsXsXsXsXsXsXsXsXsXsXsXsXsX",
"sXsXsXsXsXsXsXsXsXsXsXsXsXsXsXsXsXsXsXsXsXsXsXsXsXsXsXsXsXsXsXsXsXsXsXsXsXsXsXsXsXsXsXsXsXsXsXsXsXsXsXsXsXsXsXsXsXsXsXsXsXsXsXsX",
"sXsXsXsXsXsXsXsXsXsXsXsXsXsXsXsXsXsXsXsXsXsXsXsXsXsXsXsX, , , , , , , , sXsXsXsXsXsXsXsXsXsXsXsXsXsXsXsXsXsXsXsXsXsXsXsXsXsXsXsX",
"sXsXsXsXsXsXsXsXsXsXsXsXsXsXsXsXsXsXsXsXsXsXsX, , , , , , , , , , , , , , , , , , sXsXsXsXsXsXsXsXsXsXsXsXsXsXsXsXsXsXsXsXsXsXsX",
"sXsXsXsXsXsXsXsXsXsXsXsXsXsXsXsXsXsXsXsX, , , , , , , , , , , , , , , , , , , , , ; * # sXsXsXsXsXsXsXsXsXsXsXsXsXsXsXsXsXsXsXsX",
"sXsXsXsXsXsXsXsXsXsXsXsXsXsXsXsXsXsXsX, , , , , , , , , , > > > > > > > , , , , : 6 d h } sXsXsXsXsXsXsXsXsXsXsXsXsXsXsXsXsXsXsX",
"sXsXsXsXsXsXsXsXsXsXsXsXsXsXsXsXsXsXsX, , , , , 2 r r q 7 N N N N N N B V C C C C M #.] ` sXsXsXsXsXsXsXsXsXsXsXsXsXsXsXsXsXsXsX",
"sXsXsXsXsXsXsXsXsXsXsXsXsXsXsXsXsXsXsX, , , , $ f U I +.G H H J J J J K $.-.-.-.-.;.' ` ` sXsXsXsXsXsXsXsXsXsXsXsXsXsXsXsXsXsXsX",
"sXsXsXsXsXsXsXsXsXsXsXsXsXsXsXsXsXsXsX, , @ X 4 m D.}.[.E.P.I.c./ ' ' ' ` ` ` ` ` ` ` ` ` sXsXsXsXsXsXsXsXsXsXsXsXsXsXsXsXsXsXsX",
"sXsXsXsXsXsXsXsXsXsXsXsXsXsXsXsXsXsXsX@ @ S 7.~.9X#X'.}.F.j.k.u.` ` ` ` ` ` ` ` ` ` ` ` ` sXsXsXsXsXsXsXsXsXsXsXsXsXsXsXsXsXsXsX",
"sXsXsXsXsXsXsXsXsXsXsXsXsXsXsXsXsXsXsX/.W.+X2X0.1.q./ ) ) ) ) ` ` ` ` ` ` ` ` ` ` ` ` ` ` sXsXsXsXsXsXsXsXsXsXsXsXsXsXsXsXsXsXsX",
"sXsXsXsXsXsXsXsXsXsXsXsXsXsXsXsXsXsXsX^.Q.D p 3 . | <.` ` ` ` ` ` ` ` ` ` ` ` ` ` ` ` ` ` sXsXsXsXsXsXsXsXsXsXsXsXsXsXsXsXsXsXsX",
"sXsXsXsXsXsXsXsXsXsXsXsXsXsXsXsXsXsXsXsX% ; ; , - ..<.` ` ` ` ` ` ` ` ` ` ` ` ` ` ` ` ` sXsXsXsXsXsXsXsXsXsXsXsXsXsXsXsXsXsXsXsX",
"sXsXsXsXsXsXsXsXsXsXsXsXsXsXsXsXsXsXsXsX, , , , - n W ` ` ` ` ` ` ` ` ` ` ` ` ` ` ` ` ) sXsXsXsXsXsXsXsXsXsXsXsXsXsXsXsXsXsXsXsX",
"sXsXsXsXsXsXsXsXsXsXsXsXsXsXsXsXsXsXsXsX, , , , , e %.` ` ` ` ` ` ` ` ` ` ` ` ` ) R >.G.sXsXsXsXsXsXsXsXsXsXsXsXsXsXsXsXsXsXsXsX",
"sXsXsXsXsXsXsXsXsXsXsXsXsXsXsXsXsXsXsXsX, , , , , r %.` ` ` ` ` ` ` ` ` ` ) ) Q k.V.K.yXsXsXsXsXsXsXsXsXsXsXsXsXsXsXsXsXsXsXsXsX",
"sXsXsXsXsXsXsXsXsXsXsXsXsXsXsXsXsXsXsXsX, , , , , r %.` ` ` ` ` ` ` ) R e.a.m.].@XqX0XY.sXsXsXsXsXsXsXsXsXsXsXsXsXsXsXsXsXsXsXsX",
"sXsXsXsXsXsXsXsXsXsXsXsXsXsXsXsXsXsXsXsXsX, , , , r &.` ` ` ` ) ) Q k.V.L.wX%X}.S.s.f.sXsXsXsXsXsXsXsXsXsXsXsXsXsXsXsXsXsXsXsXsX",
"sXsXsXsXsXsXsXsXsXsXsXsXsXsXsXsXsXsXsXsXsX, , , , w o.` ) R e.a.m.].@XeXXXC.b.~ ) ) ) sXsXsXsXsXsXsXsXsXsXsXsXsXsXsXsXsXsXsXsXsX",
"sXsXsXsXsXsXsXsXsXsXsXsXsXsXsXsXsXsXsXsXsX, , : ; * k ^ k.V.L.wX%X}.S.d.i.R ! ` ` ` ` sXsXsXsXsXsXsXsXsXsXsXsXsXsXsXsXsXsXsXsXsX",
"sXsXsXsXsXsXsXsXsXsXsXsXsXsXsXsXsXsXsXsXsXX X 5 s x A.].@XeXXXC.b.~ ) ) ` ` ` ` ` ` ` sXsXsXsXsXsXsXsXsXsXsXsXsXsXsXsXsXsXsXsXsX",
"sXsXsXsXsXsXsXsXsXsXsXsXsXsXsXsXsXsXsXsXsX9.3.~.6X;X`.}.S.d.i.R ! ` ` ` ` ` ` ` ` ` ` sXsXsXsXsXsXsXsXsXsXsXsXsXsXsXsXsXsXsXsXsX",
"sXsXsXsXsXsXsXsXsXsXsXsXsXsXsXsXsXsXsXsXsX8X<X0.2.F b ( ) ) ` ` ` ` ` ` ` ` ` ` ` ` ` sXsXsXsXsXsXsXsXsXsXsXsXsXsXsXsXsXsXsXsXsX",
"sXsXsXsXsXsXsXsXsXsXsXsXsXsXsXsXsXsXsXsXsXl a 3 X   j [ ` ` ` ` ` ` ` ` ` ` ` ` ` ` ` sXsXsXsXsXsXsXsXsXsXsXsXsXsXsXsXsXsXsXsXsX",
"sXsXsXsXsXsXsXsXsXsXsXsXsXsXsXsXsXsXsXsXsX; ; , , = g E ` ` ` ` ` ` ` ` ` ` ` ` ` ` ` sXsXsXsXsXsXsXsXsXsXsXsXsXsXsXsXsXsXsXsXsX",
"sXsXsXsXsXsXsXsXsXsXsXsXsXsXsXsXsXsXsXsXsXsX, , , , 1 X.[ ` ` ` ` ` ` ` ` ` ` ` ` ) sXsXsXsXsXsXsXsXsXsXsXsXsXsXsXsXsXsXsXsXsXsX",
"sXsXsXsXsXsXsXsXsXsXsXsXsXsXsXsXsXsXsXsXsXsX, , , , =  .<.` ` ` ` ` ` ` ` ` ` Q >.G.sXsXsXsXsXsXsXsXsXsXsXsXsXsXsXsXsXsXsXsXsXsX",
"sXsXsXsXsXsXsXsXsXsXsXsXsXsXsXsXsXsXsXsXsXsX, , , , -  .<.` ` ` ` ` ` ` ) ) ~ v.P.uXsXsXsXsXsXsXsXsXsXsXsXsXsXsXsXsXsXsXsXsXsXsX",
"sXsXsXsXsXsXsXsXsXsXsXsXsXsXsXsXsXsXsXsXsXsX, , , , -  .<.` ` ` ` ` Q i.d.S.}.&XoXV.sXsXsXsXsXsXsXsXsXsXsXsXsXsXsXsXsXsXsXsXsXsX",
"sXsXsXsXsXsXsXsXsXsXsXsXsXsXsXsXsXsXsXsXsXsX, , , , -  .<.` ` ) ~ r.N.oXeX@X].M.y.R sXsXsXsXsXsXsXsXsXsXsXsXsXsXsXsXsXsXsXsXsXsX",
"sXsXsXsXsXsXsXsXsXsXsXsXsXsXsXsXsXsXsXsXsXsX, , , , , i T Q w.x.R. X5XL.V.k.Q ) ` ` sXsXsXsXsXsXsXsXsXsXsXsXsXsXsXsXsXsXsXsXsXsX",
"sXsXsXsXsXsXsXsXsXsXsXsXsXsXsXsXsXsXsXsXsXsXsX, , , * 0 I v.P.5X XR.x.w.R ) ` ` ` sXsXsXsXsXsXsXsXsXsXsXsXsXsXsXsXsXsXsXsXsXsXsX",
"sXsXsXsXsXsXsXsXsXsXsXsXsXsXsXsXsXsXsXsXsXsXsX@ X @ p c U.*XOXN.r.~ ) ` ` ` ` ` ` sXsXsXsXsXsXsXsXsXsXsXsXsXsXsXsXsXsXsXsXsXsXsX",
"sXsXsXsXsXsXsXsXsXsXsXsXsXsXsXsXsXsXsXsXsXsXsXZ 7.8.=X>X|.M.y.Q ` ` ` ` ` ` ` ` ` sXsXsXsXsXsXsXsXsXsXsXsXsXsXsXsXsXsXsXsXsXsXsX",
"sXsXsXsXsXsXsXsXsXsXsXsXsXsXsXsXsXsXsXsXsXsX+X-X7X=X8.5.*.) ` ` ` ` ` ` ` ` ` ` ` sXsXsXsXsXsXsXsXsXsXsXsXsXsXsXsXsXsXsXsXsXsXsX",
"sXsXsXsXsXsXsXsXsXsXsXsXsXsXsXsXsXsXsXsXsXsXpX!.z p @ 8 Y ` ` ` ` ` ` ` ` ` ` ` ` sXsXsXsXsXsXsXsXsXsXsXsXsXsXsXsXsXsXsXsXsXsXsX",
"sXsXsXsXsXsXsXsXsXsXsXsXsXsXsXsXsXsXsXsXsXsXsX@ ; ; , < { ] ` ` ` ` ` ` ` ` ` ) t.sXsXsXsXsXsXsXsXsXsXsXsXsXsXsXsXsXsXsXsXsXsXsX",
"sXsXsXsXsXsXsXsXsXsXsXsXsXsXsXsXsXsXsXsXsXsXsX, , , , & h ] ` ` ` ` ` ` ` ` ) >.J.sXsXsXsXsXsXsXsXsXsXsXsXsXsXsXsXsXsXsXsXsXsXsX",
"sXsXsXsXsXsXsXsXsXsXsXsXsXsXsXsXsXsXsXsXsXsXsX, , , , & j ] ` ` ` ` ` ` Q ~ p.H.tXsXsXsXsXsXsXsXsXsXsXsXsXsXsXsXsXsXsXsXsXsXsXsX",
"sXsXsXsXsXsXsXsXsXsXsXsXsXsXsXsXsXsXsXsXsXsXsXsX, , , & j ] ` ` ` ) ) r.B.Z.:XuXiXsXsXsXsXsXsXsXsXsXsXsXsXsXsXsXsXsXsXsXsXsXsXsX",
"sXsXsXsXsXsXsXsXsXsXsXsXsXsXsXsXsXsXsXsXsXsXsXsX, , , & j [ ) R e.a.n..X4X3XZ.V.sXsXsXsXsXsXsXsXsXsXsXsXsXsXsXsXsXsXsXsXsXsXsXsX",
"sXsXsXsXsXsXsXsXsXsXsXsXsXsXsXsXsXsXsXsXsXsXsXsX; ; ; % t P l.V.L.wX%XT.z.a.~ R sXsXsXsXsXsXsXsXsXsXsXsXsXsXsXsXsXsXsXsXsXsXsXsX",
"sXsXsXsXsXsXsXsXsXsXsXsXsXsXsXsXsXsXsXsXsXsXsXsXd s s p D ).#XeXXXC.b.~ ) ) ` ` sXsXsXsXsXsXsXsXsXsXsXsXsXsXsXsXsXsXsXsXsXsXsXsX",
"sXsXsXsXsXsXsXsXsXsXsXsXsXsXsXsXsXsXsXsXsXsXsXrX<X,X,X1X+X_.D.d.i.R ! ` ` ` ` ` sXsXsXsXsXsXsXsXsXsXsXsXsXsXsXsXsXsXsXsXsXsXsXsX",
"sXsXsXsXsXsXsXsXsXsXsXsXsXsXsXsXsXsXsXsXsXsXsXaX(.4.6.7.A L ,.) ` ` ` ` ` ` ` sXsXsXsXsXsXsXsXsXsXsXsXsXsXsXsXsXsXsXsXsXsXsXsXsX",
"sXsXsXsXsXsXsXsXsXsXsXsXsXsXsXsXsXsXsXsXsXsXsXsXsXo O o +  .<.` ` ` ` ` ` ` ` sXsXsXsXsXsXsXsXsXsXsXsXsXsXsXsXsXsXsXsXsXsXsXsXsX",
"sXsXsXsXsXsXsXsXsXsXsXsXsXsXsXsXsXsXsXsXsXsXsXsXsX, , , - ..<.` ` ` ` ` ` ` ` sXsXsXsXsXsXsXsXsXsXsXsXsXsXsXsXsXsXsXsXsXsXsXsXsX",
"sXsXsXsXsXsXsXsXsXsXsXsXsXsXsXsXsXsXsXsXsXsXsXsXsX, , , - n W ` ` ` ` ` ` ) ` sXsXsXsXsXsXsXsXsXsXsXsXsXsXsXsXsXsXsXsXsXsXsXsXsX",
"sXsXsXsXsXsXsXsXsXsXsXsXsXsXsXsXsXsXsXsXsXsXsXsX, , , , , e %.` ` ` ) R e.s.:.` sXsXsXsXsXsXsXsXsXsXsXsXsXsXsXsXsXsXsXsXsXsXsXsX",
"sXsXsXsXsXsXsXsXsXsXsXsXsXsXsXsXsXsXsXsXsXsXsXsX, , , , , r Y _ _ ~ l.V.L.%Xs.) sXsXsXsXsXsXsXsXsXsXsXsXsXsXsXsXsXsXsXsXsXsXsXsX",
"sXsXsXsXsXsXsXsXsXsXsXsXsXsXsXsXsXsXsXsXsXsXsXsX, , , , , 9 h.I.P.L.{.qXqX$Xs.) sXsXsXsXsXsXsXsXsXsXsXsXsXsXsXsXsXsXsXsXsXsXsXsX",
"sXsXsXsXsXsXsXsXsXsXsXsXsXsXsXsXsXsXsXsXsXsXsXsXsX, , , , e =.l.k.k.g.f.f.s.:.sXsXsXsXsXsXsXsXsXsXsXsXsXsXsXsXsXsXsXsXsXsXsXsXsX",
"sXsXsXsXsXsXsXsXsXsXsXsXsXsXsXsXsXsXsXsXsXsXsXsXsX, , , , w o._ ) ) ) ) ) ) ` sXsXsXsXsXsXsXsXsXsXsXsXsXsXsXsXsXsXsXsXsXsXsXsXsX",
"sXsXsXsXsXsXsXsXsXsXsXsXsXsXsXsXsXsXsXsXsXsXsXsXsXsX, , , = v ] ` ` ` ` ` ` sXsXsXsXsXsXsXsXsXsXsXsXsXsXsXsXsXsXsXsXsXsXsXsXsXsX",
"sXsXsXsXsXsXsXsXsXsXsXsXsXsXsXsXsXsXsXsXsXsXsXsXsXsX, , , & j [ ` ` ` ` ` ` sXsXsXsXsXsXsXsXsXsXsXsXsXsXsXsXsXsXsXsXsXsXsXsXsXsX",
"sXsXsXsXsXsXsXsXsXsXsXsXsXsXsXsXsXsXsXsXsXsXsXsXsXsX, , , = u @.] ` ` ` ` ` sXsXsXsXsXsXsXsXsXsXsXsXsXsXsXsXsXsXsXsXsXsXsXsXsXsX",
"sXsXsXsXsXsXsXsXsXsXsXsXsXsXsXsXsXsXsXsXsX, , , sXsX, , , = y O.] ` ` ` ` ` sXsX` ` ` sXsXsXsXsXsXsXsXsXsXsXsXsXsXsXsXsXsXsXsXsX"
};
